<mxfile host="Electron" modified="2024-01-29T15:01:47.289Z" agent="Mozilla/5.0 (Windows NT 10.0; Win64; x64) AppleWebKit/537.36 (KHTML, like Gecko) draw.io/21.2.8 Chrome/112.0.5615.165 Electron/24.2.0 Safari/537.36" etag="rv4DYA6krQrXPRaku7bp" version="21.2.8" type="device">
  <diagram name="第 1 页" id="TiUcTzkpdyk3yZOjxuos">
    <mxGraphModel dx="1674" dy="836" grid="1" gridSize="10" guides="1" tooltips="1" connect="1" arrows="1" fold="1" page="1" pageScale="1" pageWidth="1169" pageHeight="827" math="0" shadow="0">
      <root>
        <mxCell id="0" />
        <mxCell id="1" parent="0" />
        <mxCell id="0tE8cKSyxGMmRXLi_Se2-1" value="Classname" style="swimlane;fontStyle=1;align=center;verticalAlign=top;childLayout=stackLayout;horizontal=1;startSize=26;horizontalStack=0;resizeParent=1;resizeParentMax=0;resizeLast=0;collapsible=1;marginBottom=0;whiteSpace=wrap;html=1;" parent="1" vertex="1">
          <mxGeometry x="60" y="286" width="160" height="86" as="geometry">
            <mxRectangle x="170" y="180" width="100" height="30" as="alternateBounds" />
          </mxGeometry>
        </mxCell>
        <mxCell id="0tE8cKSyxGMmRXLi_Se2-2" value="+ field: type" style="text;strokeColor=none;fillColor=none;align=left;verticalAlign=top;spacingLeft=4;spacingRight=4;overflow=hidden;rotatable=0;points=[[0,0.5],[1,0.5]];portConstraint=eastwest;whiteSpace=wrap;html=1;" parent="0tE8cKSyxGMmRXLi_Se2-1" vertex="1">
          <mxGeometry y="26" width="160" height="26" as="geometry" />
        </mxCell>
        <mxCell id="0tE8cKSyxGMmRXLi_Se2-3" value="" style="line;strokeWidth=1;fillColor=none;align=left;verticalAlign=middle;spacingTop=-1;spacingLeft=3;spacingRight=3;rotatable=0;labelPosition=right;points=[];portConstraint=eastwest;strokeColor=inherit;" parent="0tE8cKSyxGMmRXLi_Se2-1" vertex="1">
          <mxGeometry y="52" width="160" height="8" as="geometry" />
        </mxCell>
        <mxCell id="0tE8cKSyxGMmRXLi_Se2-4" value="+ method(type): type" style="text;strokeColor=none;fillColor=none;align=left;verticalAlign=top;spacingLeft=4;spacingRight=4;overflow=hidden;rotatable=0;points=[[0,0.5],[1,0.5]];portConstraint=eastwest;whiteSpace=wrap;html=1;" parent="0tE8cKSyxGMmRXLi_Se2-1" vertex="1">
          <mxGeometry y="60" width="160" height="26" as="geometry" />
        </mxCell>
        <mxCell id="0tE8cKSyxGMmRXLi_Se2-9" value="Classname" style="swimlane;fontStyle=1;align=center;verticalAlign=top;childLayout=stackLayout;horizontal=1;startSize=26;horizontalStack=0;resizeParent=1;resizeParentMax=0;resizeLast=0;collapsible=1;marginBottom=0;whiteSpace=wrap;html=1;" parent="1" vertex="1">
          <mxGeometry x="320" y="286" width="160" height="86" as="geometry" />
        </mxCell>
        <mxCell id="0tE8cKSyxGMmRXLi_Se2-10" value="+ field: type" style="text;strokeColor=none;fillColor=none;align=left;verticalAlign=top;spacingLeft=4;spacingRight=4;overflow=hidden;rotatable=0;points=[[0,0.5],[1,0.5]];portConstraint=eastwest;whiteSpace=wrap;html=1;" parent="0tE8cKSyxGMmRXLi_Se2-9" vertex="1">
          <mxGeometry y="26" width="160" height="26" as="geometry" />
        </mxCell>
        <mxCell id="0tE8cKSyxGMmRXLi_Se2-11" value="" style="line;strokeWidth=1;fillColor=none;align=left;verticalAlign=middle;spacingTop=-1;spacingLeft=3;spacingRight=3;rotatable=0;labelPosition=right;points=[];portConstraint=eastwest;strokeColor=inherit;" parent="0tE8cKSyxGMmRXLi_Se2-9" vertex="1">
          <mxGeometry y="52" width="160" height="8" as="geometry" />
        </mxCell>
        <mxCell id="0tE8cKSyxGMmRXLi_Se2-12" value="+ method(type): type" style="text;strokeColor=none;fillColor=none;align=left;verticalAlign=top;spacingLeft=4;spacingRight=4;overflow=hidden;rotatable=0;points=[[0,0.5],[1,0.5]];portConstraint=eastwest;whiteSpace=wrap;html=1;" parent="0tE8cKSyxGMmRXLi_Se2-9" vertex="1">
          <mxGeometry y="60" width="160" height="26" as="geometry" />
        </mxCell>
        <mxCell id="0tE8cKSyxGMmRXLi_Se2-13" value="&lt;i&gt;abstract class&lt;/i&gt;" style="swimlane;fontStyle=1;align=center;verticalAlign=top;childLayout=stackLayout;horizontal=1;startSize=26;horizontalStack=0;resizeParent=1;resizeParentMax=0;resizeLast=0;collapsible=1;marginBottom=0;whiteSpace=wrap;html=1;" parent="1" vertex="1">
          <mxGeometry x="180" y="40" width="160" height="86" as="geometry" />
        </mxCell>
        <mxCell id="0tE8cKSyxGMmRXLi_Se2-14" value="+ field: type" style="text;strokeColor=none;fillColor=none;align=left;verticalAlign=top;spacingLeft=4;spacingRight=4;overflow=hidden;rotatable=0;points=[[0,0.5],[1,0.5]];portConstraint=eastwest;whiteSpace=wrap;html=1;" parent="0tE8cKSyxGMmRXLi_Se2-13" vertex="1">
          <mxGeometry y="26" width="160" height="26" as="geometry" />
        </mxCell>
        <mxCell id="0tE8cKSyxGMmRXLi_Se2-15" value="" style="line;strokeWidth=1;fillColor=none;align=left;verticalAlign=middle;spacingTop=-1;spacingLeft=3;spacingRight=3;rotatable=0;labelPosition=right;points=[];portConstraint=eastwest;strokeColor=inherit;" parent="0tE8cKSyxGMmRXLi_Se2-13" vertex="1">
          <mxGeometry y="52" width="160" height="8" as="geometry" />
        </mxCell>
        <mxCell id="0tE8cKSyxGMmRXLi_Se2-16" value="+ method(type): type" style="text;strokeColor=none;fillColor=none;align=left;verticalAlign=top;spacingLeft=4;spacingRight=4;overflow=hidden;rotatable=0;points=[[0,0.5],[1,0.5]];portConstraint=eastwest;whiteSpace=wrap;html=1;" parent="0tE8cKSyxGMmRXLi_Se2-13" vertex="1">
          <mxGeometry y="60" width="160" height="26" as="geometry" />
        </mxCell>
        <mxCell id="0tE8cKSyxGMmRXLi_Se2-17" value="" style="endArrow=block;endSize=16;endFill=0;html=1;rounded=0;exitX=0.5;exitY=0;exitDx=0;exitDy=0;entryX=0.253;entryY=1.156;entryDx=0;entryDy=0;entryPerimeter=0;" parent="1" source="0tE8cKSyxGMmRXLi_Se2-1" target="0tE8cKSyxGMmRXLi_Se2-16" edge="1">
          <mxGeometry width="160" relative="1" as="geometry">
            <mxPoint x="230" y="300" as="sourcePoint" />
            <mxPoint x="390" y="300" as="targetPoint" />
            <Array as="points">
              <mxPoint x="140" y="230" />
              <mxPoint x="220" y="230" />
            </Array>
          </mxGeometry>
        </mxCell>
        <mxCell id="0tE8cKSyxGMmRXLi_Se2-19" value="" style="endArrow=block;endSize=16;endFill=0;html=1;rounded=0;exitX=0.5;exitY=0;exitDx=0;exitDy=0;entryX=0.253;entryY=1.156;entryDx=0;entryDy=0;entryPerimeter=0;" parent="1" source="0tE8cKSyxGMmRXLi_Se2-9" edge="1">
          <mxGeometry width="160" relative="1" as="geometry">
            <mxPoint x="220" y="286" as="sourcePoint" />
            <mxPoint x="300" y="130" as="targetPoint" />
            <Array as="points">
              <mxPoint x="400" y="230" />
              <mxPoint x="300" y="230" />
            </Array>
          </mxGeometry>
        </mxCell>
        <mxCell id="0tE8cKSyxGMmRXLi_Se2-20" value="子类继承父类" style="text;strokeColor=none;align=center;fillColor=none;html=1;verticalAlign=middle;whiteSpace=wrap;rounded=0;" parent="1" vertex="1">
          <mxGeometry x="50" y="40" width="120" height="30" as="geometry" />
        </mxCell>
        <mxCell id="0tE8cKSyxGMmRXLi_Se2-25" value="Classname" style="swimlane;fontStyle=1;align=center;verticalAlign=top;childLayout=stackLayout;horizontal=1;startSize=26;horizontalStack=0;resizeParent=1;resizeParentMax=0;resizeLast=0;collapsible=1;marginBottom=0;whiteSpace=wrap;html=1;" parent="1" vertex="1">
          <mxGeometry x="890" y="290" width="160" height="86" as="geometry" />
        </mxCell>
        <mxCell id="0tE8cKSyxGMmRXLi_Se2-26" value="+ field: type" style="text;strokeColor=none;fillColor=none;align=left;verticalAlign=top;spacingLeft=4;spacingRight=4;overflow=hidden;rotatable=0;points=[[0,0.5],[1,0.5]];portConstraint=eastwest;whiteSpace=wrap;html=1;" parent="0tE8cKSyxGMmRXLi_Se2-25" vertex="1">
          <mxGeometry y="26" width="160" height="26" as="geometry" />
        </mxCell>
        <mxCell id="0tE8cKSyxGMmRXLi_Se2-27" value="" style="line;strokeWidth=1;fillColor=none;align=left;verticalAlign=middle;spacingTop=-1;spacingLeft=3;spacingRight=3;rotatable=0;labelPosition=right;points=[];portConstraint=eastwest;strokeColor=inherit;" parent="0tE8cKSyxGMmRXLi_Se2-25" vertex="1">
          <mxGeometry y="52" width="160" height="8" as="geometry" />
        </mxCell>
        <mxCell id="0tE8cKSyxGMmRXLi_Se2-28" value="+ method(type): type" style="text;strokeColor=none;fillColor=none;align=left;verticalAlign=top;spacingLeft=4;spacingRight=4;overflow=hidden;rotatable=0;points=[[0,0.5],[1,0.5]];portConstraint=eastwest;whiteSpace=wrap;html=1;" parent="0tE8cKSyxGMmRXLi_Se2-25" vertex="1">
          <mxGeometry y="60" width="160" height="26" as="geometry" />
        </mxCell>
        <mxCell id="0tE8cKSyxGMmRXLi_Se2-29" value="virtual Class" style="swimlane;fontStyle=1;align=center;verticalAlign=top;childLayout=stackLayout;horizontal=1;startSize=26;horizontalStack=0;resizeParent=1;resizeParentMax=0;resizeLast=0;collapsible=1;marginBottom=0;whiteSpace=wrap;html=1;" parent="1" vertex="1">
          <mxGeometry x="890" y="30" width="160" height="86" as="geometry" />
        </mxCell>
        <mxCell id="0tE8cKSyxGMmRXLi_Se2-30" value="+ field: type" style="text;strokeColor=none;fillColor=none;align=left;verticalAlign=top;spacingLeft=4;spacingRight=4;overflow=hidden;rotatable=0;points=[[0,0.5],[1,0.5]];portConstraint=eastwest;whiteSpace=wrap;html=1;" parent="0tE8cKSyxGMmRXLi_Se2-29" vertex="1">
          <mxGeometry y="26" width="160" height="26" as="geometry" />
        </mxCell>
        <mxCell id="0tE8cKSyxGMmRXLi_Se2-31" value="" style="line;strokeWidth=1;fillColor=none;align=left;verticalAlign=middle;spacingTop=-1;spacingLeft=3;spacingRight=3;rotatable=0;labelPosition=right;points=[];portConstraint=eastwest;strokeColor=inherit;" parent="0tE8cKSyxGMmRXLi_Se2-29" vertex="1">
          <mxGeometry y="52" width="160" height="8" as="geometry" />
        </mxCell>
        <mxCell id="0tE8cKSyxGMmRXLi_Se2-32" value="+ method(type): type" style="text;strokeColor=none;fillColor=none;align=left;verticalAlign=top;spacingLeft=4;spacingRight=4;overflow=hidden;rotatable=0;points=[[0,0.5],[1,0.5]];portConstraint=eastwest;whiteSpace=wrap;html=1;" parent="0tE8cKSyxGMmRXLi_Se2-29" vertex="1">
          <mxGeometry y="60" width="160" height="26" as="geometry" />
        </mxCell>
        <mxCell id="0tE8cKSyxGMmRXLi_Se2-35" value="抽象类实现" style="text;strokeColor=none;align=center;fillColor=none;html=1;verticalAlign=middle;whiteSpace=wrap;rounded=0;" parent="1" vertex="1">
          <mxGeometry x="770" y="30" width="120" height="30" as="geometry" />
        </mxCell>
        <mxCell id="0tE8cKSyxGMmRXLi_Se2-36" value="" style="endArrow=block;dashed=1;endFill=0;endSize=12;html=1;rounded=0;entryX=0.498;entryY=1.069;entryDx=0;entryDy=0;entryPerimeter=0;exitX=0.5;exitY=0;exitDx=0;exitDy=0;" parent="1" source="0tE8cKSyxGMmRXLi_Se2-25" target="0tE8cKSyxGMmRXLi_Se2-32" edge="1">
          <mxGeometry width="160" relative="1" as="geometry">
            <mxPoint x="810" y="230" as="sourcePoint" />
            <mxPoint x="970" y="230" as="targetPoint" />
          </mxGeometry>
        </mxCell>
        <mxCell id="0tE8cKSyxGMmRXLi_Se2-37" value="Classname" style="swimlane;fontStyle=1;align=center;verticalAlign=top;childLayout=stackLayout;horizontal=1;startSize=26;horizontalStack=0;resizeParent=1;resizeParentMax=0;resizeLast=0;collapsible=1;marginBottom=0;whiteSpace=wrap;html=1;" parent="1" vertex="1">
          <mxGeometry x="890" y="290" width="160" height="86" as="geometry" />
        </mxCell>
        <mxCell id="0tE8cKSyxGMmRXLi_Se2-38" value="+ field: type" style="text;strokeColor=none;fillColor=none;align=left;verticalAlign=top;spacingLeft=4;spacingRight=4;overflow=hidden;rotatable=0;points=[[0,0.5],[1,0.5]];portConstraint=eastwest;whiteSpace=wrap;html=1;" parent="0tE8cKSyxGMmRXLi_Se2-37" vertex="1">
          <mxGeometry y="26" width="160" height="26" as="geometry" />
        </mxCell>
        <mxCell id="0tE8cKSyxGMmRXLi_Se2-39" value="" style="line;strokeWidth=1;fillColor=none;align=left;verticalAlign=middle;spacingTop=-1;spacingLeft=3;spacingRight=3;rotatable=0;labelPosition=right;points=[];portConstraint=eastwest;strokeColor=inherit;" parent="0tE8cKSyxGMmRXLi_Se2-37" vertex="1">
          <mxGeometry y="52" width="160" height="8" as="geometry" />
        </mxCell>
        <mxCell id="0tE8cKSyxGMmRXLi_Se2-40" value="+ method(type): type" style="text;strokeColor=none;fillColor=none;align=left;verticalAlign=top;spacingLeft=4;spacingRight=4;overflow=hidden;rotatable=0;points=[[0,0.5],[1,0.5]];portConstraint=eastwest;whiteSpace=wrap;html=1;" parent="0tE8cKSyxGMmRXLi_Se2-37" vertex="1">
          <mxGeometry y="60" width="160" height="26" as="geometry" />
        </mxCell>
        <mxCell id="0tE8cKSyxGMmRXLi_Se2-41" value="virtual Class" style="swimlane;fontStyle=1;align=center;verticalAlign=top;childLayout=stackLayout;horizontal=1;startSize=26;horizontalStack=0;resizeParent=1;resizeParentMax=0;resizeLast=0;collapsible=1;marginBottom=0;whiteSpace=wrap;html=1;" parent="1" vertex="1">
          <mxGeometry x="890" y="30" width="160" height="86" as="geometry" />
        </mxCell>
        <mxCell id="0tE8cKSyxGMmRXLi_Se2-42" value="+ field: type" style="text;strokeColor=none;fillColor=none;align=left;verticalAlign=top;spacingLeft=4;spacingRight=4;overflow=hidden;rotatable=0;points=[[0,0.5],[1,0.5]];portConstraint=eastwest;whiteSpace=wrap;html=1;" parent="0tE8cKSyxGMmRXLi_Se2-41" vertex="1">
          <mxGeometry y="26" width="160" height="26" as="geometry" />
        </mxCell>
        <mxCell id="0tE8cKSyxGMmRXLi_Se2-43" value="" style="line;strokeWidth=1;fillColor=none;align=left;verticalAlign=middle;spacingTop=-1;spacingLeft=3;spacingRight=3;rotatable=0;labelPosition=right;points=[];portConstraint=eastwest;strokeColor=inherit;" parent="0tE8cKSyxGMmRXLi_Se2-41" vertex="1">
          <mxGeometry y="52" width="160" height="8" as="geometry" />
        </mxCell>
        <mxCell id="0tE8cKSyxGMmRXLi_Se2-44" value="+ method(type): type" style="text;strokeColor=none;fillColor=none;align=left;verticalAlign=top;spacingLeft=4;spacingRight=4;overflow=hidden;rotatable=0;points=[[0,0.5],[1,0.5]];portConstraint=eastwest;whiteSpace=wrap;html=1;" parent="0tE8cKSyxGMmRXLi_Se2-41" vertex="1">
          <mxGeometry y="60" width="160" height="26" as="geometry" />
        </mxCell>
        <mxCell id="0tE8cKSyxGMmRXLi_Se2-45" value="" style="endArrow=block;dashed=1;endFill=0;endSize=12;html=1;rounded=0;entryX=0.498;entryY=1.069;entryDx=0;entryDy=0;entryPerimeter=0;exitX=0.5;exitY=0;exitDx=0;exitDy=0;" parent="1" source="0tE8cKSyxGMmRXLi_Se2-37" target="0tE8cKSyxGMmRXLi_Se2-44" edge="1">
          <mxGeometry width="160" relative="1" as="geometry">
            <mxPoint x="810" y="230" as="sourcePoint" />
            <mxPoint x="970" y="230" as="targetPoint" />
          </mxGeometry>
        </mxCell>
        <mxCell id="0tE8cKSyxGMmRXLi_Se2-55" value="关联关系" style="text;strokeColor=none;align=center;fillColor=none;html=1;verticalAlign=middle;whiteSpace=wrap;rounded=0;" parent="1" vertex="1">
          <mxGeometry x="460" y="40" width="120" height="30" as="geometry" />
        </mxCell>
        <mxCell id="0tE8cKSyxGMmRXLi_Se2-56" value="Classname" style="swimlane;fontStyle=1;align=center;verticalAlign=top;childLayout=stackLayout;horizontal=1;startSize=26;horizontalStack=0;resizeParent=1;resizeParentMax=0;resizeLast=0;collapsible=1;marginBottom=0;whiteSpace=wrap;html=1;" parent="1" vertex="1">
          <mxGeometry x="580" y="286" width="160" height="86" as="geometry" />
        </mxCell>
        <mxCell id="0tE8cKSyxGMmRXLi_Se2-57" value="+ field: type" style="text;strokeColor=none;fillColor=none;align=left;verticalAlign=top;spacingLeft=4;spacingRight=4;overflow=hidden;rotatable=0;points=[[0,0.5],[1,0.5]];portConstraint=eastwest;whiteSpace=wrap;html=1;" parent="0tE8cKSyxGMmRXLi_Se2-56" vertex="1">
          <mxGeometry y="26" width="160" height="26" as="geometry" />
        </mxCell>
        <mxCell id="0tE8cKSyxGMmRXLi_Se2-58" value="" style="line;strokeWidth=1;fillColor=none;align=left;verticalAlign=middle;spacingTop=-1;spacingLeft=3;spacingRight=3;rotatable=0;labelPosition=right;points=[];portConstraint=eastwest;strokeColor=inherit;" parent="0tE8cKSyxGMmRXLi_Se2-56" vertex="1">
          <mxGeometry y="52" width="160" height="8" as="geometry" />
        </mxCell>
        <mxCell id="0tE8cKSyxGMmRXLi_Se2-59" value="+ method(type): type" style="text;strokeColor=none;fillColor=none;align=left;verticalAlign=top;spacingLeft=4;spacingRight=4;overflow=hidden;rotatable=0;points=[[0,0.5],[1,0.5]];portConstraint=eastwest;whiteSpace=wrap;html=1;" parent="0tE8cKSyxGMmRXLi_Se2-56" vertex="1">
          <mxGeometry y="60" width="160" height="26" as="geometry" />
        </mxCell>
        <mxCell id="0tE8cKSyxGMmRXLi_Se2-60" value="" style="endArrow=none;html=1;edgeStyle=orthogonalEdgeStyle;rounded=0;exitX=1.003;exitY=0.849;exitDx=0;exitDy=0;exitPerimeter=0;entryX=-0.008;entryY=0.828;entryDx=0;entryDy=0;entryPerimeter=0;" parent="1" source="0tE8cKSyxGMmRXLi_Se2-10" target="0tE8cKSyxGMmRXLi_Se2-57" edge="1">
          <mxGeometry relative="1" as="geometry">
            <mxPoint x="440" y="230" as="sourcePoint" />
            <mxPoint x="600" y="230" as="targetPoint" />
          </mxGeometry>
        </mxCell>
        <mxCell id="0tE8cKSyxGMmRXLi_Se2-63" value="关系描述" style="text;strokeColor=none;align=center;fillColor=none;html=1;verticalAlign=middle;whiteSpace=wrap;rounded=0;" parent="1" vertex="1">
          <mxGeometry x="470" y="305" width="120" height="30" as="geometry" />
        </mxCell>
        <mxCell id="0tE8cKSyxGMmRXLi_Se2-64" value="turtle" style="swimlane;fontStyle=1;align=center;verticalAlign=top;childLayout=stackLayout;horizontal=1;startSize=26;horizontalStack=0;resizeParent=1;resizeParentMax=0;resizeLast=0;collapsible=1;marginBottom=0;whiteSpace=wrap;html=1;" parent="1" vertex="1">
          <mxGeometry x="256" y="646" width="160" height="88" as="geometry">
            <mxRectangle x="170" y="180" width="100" height="30" as="alternateBounds" />
          </mxGeometry>
        </mxCell>
        <mxCell id="0tE8cKSyxGMmRXLi_Se2-65" value="+ field: type" style="text;strokeColor=none;fillColor=none;align=left;verticalAlign=top;spacingLeft=4;spacingRight=4;overflow=hidden;rotatable=0;points=[[0,0.5],[1,0.5]];portConstraint=eastwest;whiteSpace=wrap;html=1;" parent="0tE8cKSyxGMmRXLi_Se2-64" vertex="1">
          <mxGeometry y="26" width="160" height="26" as="geometry" />
        </mxCell>
        <mxCell id="0tE8cKSyxGMmRXLi_Se2-66" value="" style="line;strokeWidth=1;fillColor=none;align=left;verticalAlign=middle;spacingTop=-1;spacingLeft=3;spacingRight=3;rotatable=0;labelPosition=right;points=[];portConstraint=eastwest;strokeColor=inherit;" parent="0tE8cKSyxGMmRXLi_Se2-64" vertex="1">
          <mxGeometry y="52" width="160" height="10" as="geometry" />
        </mxCell>
        <mxCell id="0tE8cKSyxGMmRXLi_Se2-67" value="+ method(type): type" style="text;strokeColor=none;fillColor=none;align=left;verticalAlign=top;spacingLeft=4;spacingRight=4;overflow=hidden;rotatable=0;points=[[0,0.5],[1,0.5]];portConstraint=eastwest;whiteSpace=wrap;html=1;" parent="0tE8cKSyxGMmRXLi_Se2-64" vertex="1">
          <mxGeometry y="62" width="160" height="26" as="geometry" />
        </mxCell>
        <mxCell id="0tE8cKSyxGMmRXLi_Se2-68" value="&lt;p style=&quot;line-height: 150%;&quot;&gt;聚合关系aggregation&lt;br&gt;（部分能独立于整体之外）&lt;/p&gt;" style="text;strokeColor=none;align=center;fillColor=none;html=1;verticalAlign=middle;whiteSpace=wrap;rounded=0;" parent="1" vertex="1">
          <mxGeometry x="70" y="474" width="170" height="58" as="geometry" />
        </mxCell>
        <mxCell id="0tE8cKSyxGMmRXLi_Se2-69" value="&lt;p style=&quot;line-height: 150%;&quot;&gt;组成关系composition&lt;br&gt;（部分不能独立于整体之外）&lt;/p&gt;" style="text;strokeColor=none;align=center;fillColor=none;html=1;verticalAlign=middle;whiteSpace=wrap;rounded=0;" parent="1" vertex="1">
          <mxGeometry x="520" y="469" width="180" height="78" as="geometry" />
        </mxCell>
        <mxCell id="0tE8cKSyxGMmRXLi_Se2-71" value="creeper" style="swimlane;fontStyle=1;align=center;verticalAlign=top;childLayout=stackLayout;horizontal=1;startSize=26;horizontalStack=0;resizeParent=1;resizeParentMax=0;resizeLast=0;collapsible=1;marginBottom=0;whiteSpace=wrap;html=1;" parent="1" vertex="1">
          <mxGeometry x="255" y="456" width="160" height="86" as="geometry">
            <mxRectangle x="170" y="180" width="100" height="30" as="alternateBounds" />
          </mxGeometry>
        </mxCell>
        <mxCell id="0tE8cKSyxGMmRXLi_Se2-72" value="+ field: type" style="text;strokeColor=none;fillColor=none;align=left;verticalAlign=top;spacingLeft=4;spacingRight=4;overflow=hidden;rotatable=0;points=[[0,0.5],[1,0.5]];portConstraint=eastwest;whiteSpace=wrap;html=1;" parent="0tE8cKSyxGMmRXLi_Se2-71" vertex="1">
          <mxGeometry y="26" width="160" height="26" as="geometry" />
        </mxCell>
        <mxCell id="0tE8cKSyxGMmRXLi_Se2-73" value="" style="line;strokeWidth=1;fillColor=none;align=left;verticalAlign=middle;spacingTop=-1;spacingLeft=3;spacingRight=3;rotatable=0;labelPosition=right;points=[];portConstraint=eastwest;strokeColor=inherit;" parent="0tE8cKSyxGMmRXLi_Se2-71" vertex="1">
          <mxGeometry y="52" width="160" height="8" as="geometry" />
        </mxCell>
        <mxCell id="0tE8cKSyxGMmRXLi_Se2-74" value="+ method(type): type" style="text;strokeColor=none;fillColor=none;align=left;verticalAlign=top;spacingLeft=4;spacingRight=4;overflow=hidden;rotatable=0;points=[[0,0.5],[1,0.5]];portConstraint=eastwest;whiteSpace=wrap;html=1;" parent="0tE8cKSyxGMmRXLi_Se2-71" vertex="1">
          <mxGeometry y="60" width="160" height="26" as="geometry" />
        </mxCell>
        <mxCell id="0tE8cKSyxGMmRXLi_Se2-76" value="" style="endArrow=diamondThin;endFill=0;endSize=24;html=1;rounded=0;exitX=0.5;exitY=0;exitDx=0;exitDy=0;entryX=0.508;entryY=1.079;entryDx=0;entryDy=0;entryPerimeter=0;" parent="1" source="0tE8cKSyxGMmRXLi_Se2-64" target="0tE8cKSyxGMmRXLi_Se2-74" edge="1">
          <mxGeometry width="160" relative="1" as="geometry">
            <mxPoint x="340" y="560" as="sourcePoint" />
            <mxPoint x="450" y="600" as="targetPoint" />
          </mxGeometry>
        </mxCell>
        <mxCell id="0tE8cKSyxGMmRXLi_Se2-77" value="visitor Center" style="swimlane;fontStyle=1;align=center;verticalAlign=top;childLayout=stackLayout;horizontal=1;startSize=26;horizontalStack=0;resizeParent=1;resizeParentMax=0;resizeLast=0;collapsible=1;marginBottom=0;whiteSpace=wrap;html=1;" parent="1" vertex="1">
          <mxGeometry x="690" y="460" width="160" height="86" as="geometry">
            <mxRectangle x="170" y="180" width="100" height="30" as="alternateBounds" />
          </mxGeometry>
        </mxCell>
        <mxCell id="0tE8cKSyxGMmRXLi_Se2-78" value="+ field: type" style="text;strokeColor=none;fillColor=none;align=left;verticalAlign=top;spacingLeft=4;spacingRight=4;overflow=hidden;rotatable=0;points=[[0,0.5],[1,0.5]];portConstraint=eastwest;whiteSpace=wrap;html=1;" parent="0tE8cKSyxGMmRXLi_Se2-77" vertex="1">
          <mxGeometry y="26" width="160" height="26" as="geometry" />
        </mxCell>
        <mxCell id="0tE8cKSyxGMmRXLi_Se2-79" value="" style="line;strokeWidth=1;fillColor=none;align=left;verticalAlign=middle;spacingTop=-1;spacingLeft=3;spacingRight=3;rotatable=0;labelPosition=right;points=[];portConstraint=eastwest;strokeColor=inherit;" parent="0tE8cKSyxGMmRXLi_Se2-77" vertex="1">
          <mxGeometry y="52" width="160" height="8" as="geometry" />
        </mxCell>
        <mxCell id="0tE8cKSyxGMmRXLi_Se2-80" value="+ method(type): type" style="text;strokeColor=none;fillColor=none;align=left;verticalAlign=top;spacingLeft=4;spacingRight=4;overflow=hidden;rotatable=0;points=[[0,0.5],[1,0.5]];portConstraint=eastwest;whiteSpace=wrap;html=1;" parent="0tE8cKSyxGMmRXLi_Se2-77" vertex="1">
          <mxGeometry y="60" width="160" height="26" as="geometry" />
        </mxCell>
        <mxCell id="0tE8cKSyxGMmRXLi_Se2-81" value="Lobby" style="swimlane;fontStyle=1;align=center;verticalAlign=top;childLayout=stackLayout;horizontal=1;startSize=26;horizontalStack=0;resizeParent=1;resizeParentMax=0;resizeLast=0;collapsible=1;marginBottom=0;whiteSpace=wrap;html=1;" parent="1" vertex="1">
          <mxGeometry x="560" y="660" width="160" height="86" as="geometry">
            <mxRectangle x="170" y="180" width="100" height="30" as="alternateBounds" />
          </mxGeometry>
        </mxCell>
        <mxCell id="0tE8cKSyxGMmRXLi_Se2-82" value="+ field: type" style="text;strokeColor=none;fillColor=none;align=left;verticalAlign=top;spacingLeft=4;spacingRight=4;overflow=hidden;rotatable=0;points=[[0,0.5],[1,0.5]];portConstraint=eastwest;whiteSpace=wrap;html=1;" parent="0tE8cKSyxGMmRXLi_Se2-81" vertex="1">
          <mxGeometry y="26" width="160" height="26" as="geometry" />
        </mxCell>
        <mxCell id="0tE8cKSyxGMmRXLi_Se2-83" value="" style="line;strokeWidth=1;fillColor=none;align=left;verticalAlign=middle;spacingTop=-1;spacingLeft=3;spacingRight=3;rotatable=0;labelPosition=right;points=[];portConstraint=eastwest;strokeColor=inherit;" parent="0tE8cKSyxGMmRXLi_Se2-81" vertex="1">
          <mxGeometry y="52" width="160" height="8" as="geometry" />
        </mxCell>
        <mxCell id="0tE8cKSyxGMmRXLi_Se2-84" value="+ method(type): type" style="text;strokeColor=none;fillColor=none;align=left;verticalAlign=top;spacingLeft=4;spacingRight=4;overflow=hidden;rotatable=0;points=[[0,0.5],[1,0.5]];portConstraint=eastwest;whiteSpace=wrap;html=1;" parent="0tE8cKSyxGMmRXLi_Se2-81" vertex="1">
          <mxGeometry y="60" width="160" height="26" as="geometry" />
        </mxCell>
        <mxCell id="0tE8cKSyxGMmRXLi_Se2-86" value="Bathroom" style="swimlane;fontStyle=1;align=center;verticalAlign=top;childLayout=stackLayout;horizontal=1;startSize=26;horizontalStack=0;resizeParent=1;resizeParentMax=0;resizeLast=0;collapsible=1;marginBottom=0;whiteSpace=wrap;html=1;" parent="1" vertex="1">
          <mxGeometry x="800" y="660" width="160" height="86" as="geometry">
            <mxRectangle x="170" y="180" width="100" height="30" as="alternateBounds" />
          </mxGeometry>
        </mxCell>
        <mxCell id="0tE8cKSyxGMmRXLi_Se2-87" value="+ field: type" style="text;strokeColor=none;fillColor=none;align=left;verticalAlign=top;spacingLeft=4;spacingRight=4;overflow=hidden;rotatable=0;points=[[0,0.5],[1,0.5]];portConstraint=eastwest;whiteSpace=wrap;html=1;" parent="0tE8cKSyxGMmRXLi_Se2-86" vertex="1">
          <mxGeometry y="26" width="160" height="26" as="geometry" />
        </mxCell>
        <mxCell id="0tE8cKSyxGMmRXLi_Se2-88" value="" style="line;strokeWidth=1;fillColor=none;align=left;verticalAlign=middle;spacingTop=-1;spacingLeft=3;spacingRight=3;rotatable=0;labelPosition=right;points=[];portConstraint=eastwest;strokeColor=inherit;" parent="0tE8cKSyxGMmRXLi_Se2-86" vertex="1">
          <mxGeometry y="52" width="160" height="8" as="geometry" />
        </mxCell>
        <mxCell id="0tE8cKSyxGMmRXLi_Se2-89" value="+ method(type): type" style="text;strokeColor=none;fillColor=none;align=left;verticalAlign=top;spacingLeft=4;spacingRight=4;overflow=hidden;rotatable=0;points=[[0,0.5],[1,0.5]];portConstraint=eastwest;whiteSpace=wrap;html=1;" parent="0tE8cKSyxGMmRXLi_Se2-86" vertex="1">
          <mxGeometry y="60" width="160" height="26" as="geometry" />
        </mxCell>
        <mxCell id="0tE8cKSyxGMmRXLi_Se2-90" value="" style="endArrow=diamondThin;endFill=1;endSize=24;html=1;rounded=0;exitX=0.5;exitY=0;exitDx=0;exitDy=0;entryX=0.308;entryY=0.92;entryDx=0;entryDy=0;entryPerimeter=0;" parent="1" source="0tE8cKSyxGMmRXLi_Se2-81" target="0tE8cKSyxGMmRXLi_Se2-80" edge="1">
          <mxGeometry width="160" relative="1" as="geometry">
            <mxPoint x="670" y="620" as="sourcePoint" />
            <mxPoint x="830" y="620" as="targetPoint" />
            <Array as="points">
              <mxPoint x="640" y="640" />
              <mxPoint x="640" y="630" />
              <mxPoint x="739" y="630" />
            </Array>
          </mxGeometry>
        </mxCell>
        <mxCell id="0tE8cKSyxGMmRXLi_Se2-94" value="1" style="edgeLabel;html=1;align=center;verticalAlign=middle;resizable=0;points=[];" parent="0tE8cKSyxGMmRXLi_Se2-90" vertex="1" connectable="0">
          <mxGeometry x="-0.8574" y="1" relative="1" as="geometry">
            <mxPoint y="-4" as="offset" />
          </mxGeometry>
        </mxCell>
        <mxCell id="0tE8cKSyxGMmRXLi_Se2-91" value="" style="endArrow=diamondThin;endFill=1;endSize=24;html=1;rounded=0;exitX=0.5;exitY=0;exitDx=0;exitDy=0;" parent="1" source="0tE8cKSyxGMmRXLi_Se2-86" edge="1">
          <mxGeometry width="160" relative="1" as="geometry">
            <mxPoint x="690" y="656" as="sourcePoint" />
            <mxPoint x="789" y="546" as="targetPoint" />
            <Array as="points">
              <mxPoint x="880" y="626" />
              <mxPoint x="789" y="626" />
            </Array>
          </mxGeometry>
        </mxCell>
        <mxCell id="0tE8cKSyxGMmRXLi_Se2-93" value="1...*" style="edgeLabel;html=1;align=center;verticalAlign=middle;resizable=0;points=[];" parent="0tE8cKSyxGMmRXLi_Se2-91" vertex="1" connectable="0">
          <mxGeometry x="-0.7714" y="-1" relative="1" as="geometry">
            <mxPoint as="offset" />
          </mxGeometry>
        </mxCell>
        <mxCell id="0tE8cKSyxGMmRXLi_Se2-95" value="" style="shape=image;verticalLabelPosition=bottom;labelBackgroundColor=default;verticalAlign=top;aspect=fixed;imageAspect=0;image=data:image/png,iVBORw0KGgoAAAANSUhEUgAAAoAAAAJXCAYAAAAD9uW0AAAAAXNSR0IArs4c6QAAAARnQU1BAACxjwv8YQUAAAAJcEhZcwAAEnQAABJ0Ad5mH3gAAP+lSURBVHhe7J0FgB3V1cfn6brH3YUAIQR3bSjuULxYKdJSPqylhRZrKdRboMWLU9xdQvCgIQJxt7WsP//uOeeeO/fNTpaXEMgm7/zgn/P27cjV2Zlz7z0TyCgcQRAEQRAEIW8IaisIgiAIgiDkCXIDKAiCIAiCkGfIDaAgCIIgCEKeITeAgiAIgiAIeYbcAAqCIAiCIOQZcgMoCIIgCIKQZ8gNoCAIgiAIQp4hN4CCIAiCIAh5hgSCXgtpbRm5U/5+8JY70N3KPl/axnrXhd8VJaDtOtDd2sKm0DYFQRByRa5fgiAIgiAIeYbcAAqCIAiCIOQZcgMoCIIgCIKQZ2zScwD95uSsD353wbkcu9N+G2ju0+ZK2qdUgxnPd5mw/mDhKcOUT5mGtN3g5FKnfo1lY6b5O8Qvq8GcriDeeu58pHTQ26M698yg9zjpb36GTfhsEtHW4JsxbTcCuZRzwqdNdcqXXJMEQVgLG/ESJwiCIAiCIGwM5AZQEARBEAQhz5AbQGGjkNH/OTADIVcJmy5+9emVIAiC8L0hN4CCIAiCIAh5xsZZBOJ3Ru/EZL9tvN/5beOZWZ/Sdl3JZZ50p7vntN/Ubf0dF3NQJ9Audv5uM6dNWyCqrf0d4FfuJdpyiYX86t2Lz4G8tbPeTz98fj6HfeA01zMZl84J8q5f2CSexvzK3pO1uLb2ch7uh7x7u7Y23Ca4OIu0zSa7FoP8o92fvGkMrWf/8muM3xme1umzSMZcX0xefVpM0LMMJJc8fK/5FAShu7BJ/M0RBEEQBEEQNhzdzgPIyQnobezk8XcGn4fkTIQOFAiQ/S49gF6Pn//dtDeRPkfOEw9gh7bA5zNnoq1LJtAGtZcmk3JrrLCQfEC7jhiONhygEs4p7IhPMXtrYr2ffoyXT5/EPvDaDurTVjdXD2BS2+WrVupPjvPVkhVow2HyC7aFO+d2TJ9eaPtW16BlD2B20dFPOH9UEeLmYoeQ0X3f4Jdmvq5wHeaQr+8WbwPRCbIvz9w3wuwr5QTa22gb6iJfXr7XfAqC0F3YJP7mCIIgCIIgCBuObhMImvxAbiBTTpT9cOpNqJ93j31pPA+pU2DUDQinzec53MDeEP4dp4fzC0S9O26mT+TTtQWu/MO1aF+sW422uIj8PcG2ZrTA4EGD0b5w7gVoy8K0TdTHm+Yts7RPGa7X047PuVL6QHwKygGxNFGPtqmdZjf2Kiev1hZmhpvvIZFN9mmM26+2rTojUz77lD4ojrv3drSlpaVoW7TXO5l0e/Ff9/4h2iP22QttNY8GWB49Ljv2ANbrWrD701cNC9HyuSZEyKPIfREoXEufs+tmo9aHTp99da7VCVrVQX1kRVsD2j7VfdEC4/QVJqkPEO52GRMEobsglwJBEARBEIQ8Q24ABUEQBEEQ8oxuMwTMIxRxnZwv53yFNp1yxy68w3ppPdE5lXQHd3qXVaEd1H8AWnfgbcNg3zHPXbwMbX0DDftlop3fY5vSCxeYoF700KOmB1pgeJ/e9IGzupneltOyD+LKP16P9s2WJrSFPATcSj8D/fv3R/vU6WejrSigIb2NNgTMo2na8vHu+PA1/clxnn76abStcVryMmAAtcPfHXE6WmDwQMpXSvc8HuHcZKvdcwVp1vn5YNoX9EFx0sP3oOWh/vZIIdrGBhrGBP685wFojztgf7RVPkPAKX2ykK6Mj5tpccmdd96JFpi7bDFaXkR04u40tHz4fnRcwDs1xK9JbdT64DJ1s+488vH7aB9//HG0dckWtL1790ELXHXkSWhHDhmGtlMjAzbT64sgCOuGXAoEQRAEQRDyjI0bBsY6c5u+FZ21lLxqh9z5R7Q27cFi/YlIhumpNhaLoQV+WEGetYt+/n9o9+BnfV4VAuTkFsz2CbToe2V7Ivkx99yG9quvyFvZUVqO1iauY9ewF6O4rhbtAQeQtwO4Y98D0fJ8+LAd74af3K0H+LWSS03mcpwNBadHn5NKibj6Rqrfx+PkxSgooEopaSRvKjBoMC0Cefrk89BWFJKHNRcPYNaqAIYfd3S6MtY+7KiNex6Jss6lP6/Rjt5pS5ajPeSuW9ECyRS1kIxegNC6Zg3asweMRAv84idnoB2D/yr4HJ5z54q3ONbzMOuPp9016XJ9f9oM+qA44pF70RaX6D6sw680NbmLfv60y95oTziQ+kY1Z8yqpw5PPR/61F1op7zzDlog05tGAZIJagQjVlPn/7//o2sCcGY/Ci3kbaNZefGcy5tPxLvNt4TjP7foSpxT63rE973zT2jb2miBUaSY+kxLs1uGP6om7/JvfnEZ2rH4r8JaMZf2RJ1yg2lrC/D2+ru0jr0U5PAyCl4M1RUbLMCVt+zXs9w3el8RhG6EtH9BEARBEIQ8o9veAAYDgU4KBLPFRKNRo1WrVqHq19SjDPAEycoJOL57DnD6gFbXNhotXboUBU5UW6lU2lWalNbKqEd8kJANl51NBsoLpX7HwZe/Ca42cI54xZUITmGlgPrMWit2u0mqf5Sg04CmT5+OSiQTRpFwBMX1XlhWhvr6q6+MmlMOysDH39SB+lPK7jmEt3796nutcPkocVUuWL4SNX/BAlR5ebkRXy/4mgBeWdAsVfas7g63sWlfTDPq6OhAlZSUophS1b5YS5epa5LSitZ6VE7wycBdx+KCLiAFI6pMIcg+bwsSBGGTRrqxIAiCIAhCntFtbgDZawBTTUBpJ9xJTkYl11ImQAqGI0bLYh2ojxfMQzFx9RTLUgfLVqcvlPijPhes6QR9uWy+0apUDBUrLSSlU6iE2pGVzmRIKnO0epQfsaHoWRsILsSutB5YpWLkJZdtstDlGlAbgoLqMyiQzhhx6aRVHaPgM+zrky8uX5jtBXps2VKjO2fOQP1l4TzUjfNmoz5dvNAI5lyB+JxcSzBPkJWOBFCwthRUpb4DRdNxo1LVTEHRUAoVVKkBFYXUfloFgQzKoL1bfnCeuxKnmfW9w+nXMmmBz1ohrbBKMAiyD7K38QJfecVUF1aieqcLUeWtGaNAqBjlBFUtKYXCpMKiMiPG7Zc5ANt5ZNfD2uTFdxudwYD6B8T5hUDOrGhKtSulAq1oqACVSapttULBcJYMXAFKQXVlIkH7TDmzVQpAT349zegvC2ai/rpwFuq+WR+h3onXGXE9cx58imfDsYEObNqmliDkM9IHBEEQBEEQ8gy5ARQEQRAEQcgzuk0YmHZ9K/rVEgoDc9Ddf0Fr0xGk4LFMXI9wBIPufWzVCnoz6y677IL2AR0Y1Q7fAkNQCJ8/xF9Y8LhQmn7XFIYBQce565mn0AJXf/ou2lCIEhLvFF7WDZXAYWDK6xvRTpo0CS1wx74U9uJbh4H5jvApnU5PDr7bcDZ02rPCwPzxJrRPxCjMRUEBjM1DGBgKkwMMGjwI7eOn/AxtZRHVQVYr8JyjVYd/+dFN19EHxddfz0bbUVWJtrmFwmZcsuOOaIGfnUHBpsP6eBztgs5I8NqdDp35eUspDMyke25GC6zRYV8SFRQSKKbfCfzLMduhBc458QS0g3R9mzxYI3aMX7l68dbF9w4nUl9KWnXhvfeFFQbm4f+iLS0pQZvUiW5ppjBAwI27ZoeBqdLH5RA9QMxTIBe8Qv2RA3ADDUMosHq8rRXt+AS1mF//+tdogaMLaRiYD2dOwXUB5NDn1qd+/PbhvgKLnoDWEO21dI0b4mr/26nP1NVSHwmUUUid1la3DC8cNxHtBSecglaHg/bAMbFglYfjvNu4Eu0Vv74CLTBPX+/CYWqUxXW0zVlnnYUW+NkudA2L60LjvhKwCs6bd0EQug/SPwVBEARBEPKMbuMBjOlb0VmL6dVOB9zT2QMY93gA/WaOR9vpqb9nz55on/vJpWjLIu69bqVntzSsQvAQTOinWB1uZqZ+vL327266nmwmbyN7r8Ip2sguUg4EHdJeyvIG8gDub72W6rZ96EmaPYDsfQLY++FNod+k+VzIZcJ7p2P7uSxs19ja4P10HrI9gFSOT8ToVWBchkVW6J5Bg8gD+OQp56KtLCIPa6GdHv6svWft2gN4wH230wfF3Lm0GKixF70yq1UHzr16FAWaBs45hjzFPeM68zrIeNptNqq56ro0+aJtpixchBZ48inySC3XAY632mortOfrOgZKy8jzgmFlAO3l9QboBYLekEF+9c6NhNudFSLJC7fNgB0Fm7HyCnjOvFZMe2EPoD6/7QE8jD2ApeQB5HZoewA5EPSPDsr2ANqeOM4iO8ZXtJFv//nnnkcLvDOXzltWRl6+Y/bYB+0uW5uwyGt37nFegLVuZOEtJPbeW9cAUz98PP6VfS5P2fvx1vw5aF988UW0K5roWjJ8uA5qrTh//6PQVlboNsbY50rxUAM1uFcS1Oeuu9b1mr9XTcG0Q9oD2G8FvV7vpJNORAv8djSNsjgcookrxcJ7bfXNpt3JAJ9yX6/rlvdnwHut9z1uDpUhCJsB0tIFQRAEQRDyjE3aA+jnuStN0vyWtH4qffCEc9BOHOnOhinxeBb4OEH7cZBfJQbBTxWvt9Jctd///vdogfdL6Qk6GqGnbeM1tOC5TmYOYBcewJROl31XLh7AdfMAdujJnvvd/W/6oJg3jzyA9T3IAxjTcwB/N2YoWuCnx56MtisPIBP0eDxarTIl/7PjUK4cp0Jb93X9qtnrNJvd9OHW2wPodWNYHkAIPm6T0t6fiI/rI6M9QtxWPWdeK9+nB5Dhqxb3LxvyVak2pS29HE3Vu7YA/64Tdvn6nLcTnEYu55S+cGjPGQBhoIBgkCu484Ht0wJm3qP1C37FHoSjAvgFcPYLMvtqy03Up3jW6gG89ppr0QLv6PmyPHLRdyWV6sknUz8Brhm7G33YFDyAnEYIhWPje1zfVArCZoe0dEEQBEEQhDyj29wAQkJQ6gENlHHCnWSCBwdCqLJMGFWSDBjFI1FUs3oiB81YvBjFgZxB8AyIz4Hw9KcEoVFBKfUDKxkiMZ8tX4laHEsYRQJFKCel0qYUUUcBBZJJI1x+rBRMBVBOWj19KwWctBEDjgIQB8nF6UTwayUuF5basbM8wFOzV6acu5B3H79z6WQZYYF61SXghQBlHykVUPXgUSiTJKkt0Gdhp0UnGtbaglpVVYC8xwUVq/oAhbWcdKErTSYYQDF2ubAoVK/aRqcBvEmsHlojtWq0uB2AwCmCjhGWLi+/c3Uqj6CrtBZ6/JTSWuA0ZKlWh0qq7UCBSATVGAkbNWilAqrtK3Ew7SC89k5VUZastLG4HDhgdi6Y4NqWvJhmBL/T4m31pcC0It4WBL5+EHj+2PsH2PWUE/ZBQYz1XUKlAeSE1T9KqYICVDoUMsqE1fVLKaXqBgReS1CbpU54z6mAkQtQL/UZBDP/QLDmmaXfVujWBcsiHg6hmHgoiIpZisBrDZWi6loFKowXooqTRUZMRp0IZJeLm37InKu0n9SvbNn1zaK9Laly8MoL1w0qHEDBJdiWIOQz0JcEQRAEQRCEPEJuAAVBEARBEPKMjXMDaIYHvh1jx4xBFRUXGcGaFhBMZAfNmDEDBROmWQGVaxADH70FgSNr1pezZ89GxWIxIyYUCqEGDhyEikajRjAJH8TpYgnZ8DuTvw+4bdj4tYFc4X1B3LR5aBLO8l2NNMGolz3yBesQQNy+QYlkEjVlxmeoh197AfW/N54zenvGVFRTaysKljThsiZYCAN10o3aK5evGerUP9twufj9br3gA7G4UpV4WsKcZUtRz7z7FurBl58z+t9rr6BenvohamVTK4rLGWTXGagrYLEYSqUFxFUEgmYNgkNkHUb9jpVLlQbVQUDcV1iwuI7FqK9RBn2eXM+1wYA0WPL8iBIEweUbLjWCIAiCIAjC5sZGCQPjjWwBcDiHWQtXod3v/r+jtZOXSdH0bfbe/GRvCp/y8SefoAXeaFuINhyhMAwTGygsw5VXXokW2CeqAyeAi0aR0fOh7WTRC7wgdAR9e9jdt6EFLyATDlGg2R49YNq/4xy43c5on3v+ObTA/CLaP6QnXVfX0Wuc7FfB3brvD9FyBJIoLBbwsFy/Ze7ZKfT6uUcWuSE2wNMIhOLkleRX411/wGFogcGVlMYSLk9t2yw3Jx3Fcf78xQdoP/poKtr6KnqtGZDWISTGtbSjPeooCjy7dzlMS9dw+vnQ+tF7pvUIfvWNFAbmqXZ6dRqHgYm2UP0DHAbmhZPp9VMVhaVo6/Bf4rkpb6K9e8FctMUlVLdfL3CDMzc3U6iRUIjOkdIRt3tb+Ro4cCDaUIKCa3D4lMtHuq+L23nilmg5Gw3NVAZnv/o4WiAWozBEqQJKa2srtaQTevZDCxwxiUIA9eMGZzc8hpqvc9s8Cp7zyiuvom3uSeE5gECQUjK4ns5x2qmnooWFB8xf/kXl/NzqBWiZuBXHh9vLNpUUPP2YY45Fu+2KVmfPCVvjZ/Z3F/ul1apXoE3//N60mfRBccT/7kVbXEz1k0IXkeP7KriT9Kvg3Jy6gMcL4PVZN3xKff/zL75ACyyqpn7JIW+2aqBzHH744WiBA6uq6YO+BnBx2NnDxVYK7jIrdHue1+K2wOteew3tzJmU19X6tWxpWOyl4eNwUOWaUiqDHa1XEV6vQ+BURWhBEi+xaIrxlchxLnztWbTNOpB5qz5OPM4xq1TdleCSI+eoHxyEll6K55YbcP4b1F6XLafXbjYWULCiOXMo0DQCK2xs4hR8pm9fN6BRn2rqP9x++jRSK7FDxbz/xddoP//8M7QdvSkMkD2C0kdfSw44gOr9uF4D0ALcTkKeRpZVT9reuXQ+2ld1nTQV6uu8IhSirWp0GK4999wT7akj3eDgJjwOB/NmgrozCsJmhqeXC4IgCIIgCJs7GycQtMb2BHo9gPve9ze0NgH9XMxPj5cdcRzauXPJ+wPcNXMy2vJyejodNo+Od/HF/4cW+NFACgqdidETX7rA9YYw/Ny9eDUFpj74DgosnILwIZpEnJ4Mx44dg/bQnfdA+4+//wMtsKoXpZkDqlbW0uvjuvQAug/0xruyUnsA/3bv/Wj/8dEbaAHOK3sA2dv43zPOQwvsMHw02gLzlEsHtj2A/Jx7yQtPoH3mmWfQNlRzOGNVVjpa9bgWKqHLL78c7aH93ddRbSgPIHvlXjzlbLTsAXRDRTvOLQ+SZ+mmj8lrWVSkfSdRN0wFeygyOtIye85COmg4kNT1Gk1TKGf23N36g+PRAkcduK/+RCxbTeGed/3bNWiBpPYupgrIC7VmDXkczh25BVrgkvMosHUnD6A1r8qJUhp/xx7Ou+5C296fvHRAKEQ1NrqV0n7hL36B9tHnn0QLvP/++2gbR9kBUaC/uV6NlPZ2ltWSZ4nb6oSVbc4ZZ5yBnyftuhNa0zbtLsP1rJP/XXoAk7qsIOoKcP7T9Oq9V159BS2wrDd5wdhbPXY11cEVV1yBFjiijw6ZrLsD58f2lHEMY47f/PxSCih+yy23oAWm6HZTpvtgQvc9LkOAmz33nWCS+ml9vduSLx07Ae2FZ1JbZ9/03FXL9SfV/u6+GW1DPbW7Fh1Uu73d9RKePQCCDznOL376M7TsS7Pztc+/KOAzXzfj1eSdDluhYQJZFQxppr6STLoXp2CSvII8IlO5gsr5L3/5K1rgw2k0YnL3Pfegjfdj76x7Ha2qpf2OPPJItNftdyBagNtJEGL/KHh+JF8rAd1VnJ8+9T+0L730Etp4Jb3ODuA5iz0a6VyXXXoZ2hOHUXkhfG13q44QD6CwmeJt6oIgCIIgCMJmzsa5AYSHMSV4cGMZOkXJdZVR34OSmSSqr3p6B23Xp79RuCOJKlCPiKDVhQWodxYtMmJS0RAKnnVBwUzGCBwDoE/nL0TVdbShYpGwUUljPWrHAf1QFeEAqiyYMeLgvBz8lYrcKw9ZEU5VQSlxeoLRCKq9urdRc3k1qqO8Bype0QtVoJ7oWbrI1T+qtDFCLJ3brgMuh+bCECpZXYpK9+prlNJyKqtRHYVFqCy82eITZEE5Sqs82jIRfpU44Hc4HSSpPUAwS4pVojYFhaNRVEFRISoRShrFAnFUJtSBckIxVKY4aBQoUedSihZFUaFoEOWo37E4QDLXBQeTTVRUWqpAxcqLUfGKMlK0wAj8DOhrUIe1lQ6r9qLFJEtLUIHqKlSiprdRY2EJ6qu+Fah/TvsA9frKZUaN/fugQg1xVFGLgwqlVbvXCiYDqNZe/VH1FT1QM/r3cC579VnUg7EWVCaiqkapRaWX5e2q3NbAacMyv+yif7vKnZZgGBWLFhk5qh5A6XJSqqwY1VYQMuqErpRQwlWD2gz0SUsr6hePP4p6LxI0SvetRjUUBVGZYBLV0rHGVTsppdogCKYng8rLCo322WYiCnztIFMSVtTijnAxKllUjkoXVqBSUVdB1b5A3Ff8VKD6NihaEEQVFxegguo6xUqqDgvioOMZ1bdAqXDEKFpSgiosLUMV1ZSiklF1jdbaZbsxqF7lIVR9STGqqbLCqK28BjV1ySoUjAmwWlUaQCYwvq4nlUSjmPoeNLOpCdVRra5LSs01ZUYNlUWo/n37oMYNG4kyy5RB4LUFBVQp2RKEzRS4fAuCIAiCIAh5hNwACoIgCIIg5Bmb5A2gN0jpqFGjjDgAczKVRAVDQRRMeGZxEFkIJWG97jcLHu5bMH8+KpVKo2wikTBq2LBhKA76nEqnjGDBAS86yBn7Za4aOAKI88PnAnE5wHoeEgSezk6ryq4eAuZjq59gW+t3fA4+DoRLAcECCRZM3s6W2oYXljDmoOof0HrC6fBiDq9UVFSMqqioyBJMaGet7TgwUZ8FC2lAvH91dTWqsLDQKBf4XMFgCMVwHYGg0/l1PLtOGQgnAuLyhkn4LD4eByafPn06ChZ1sMrKylC77bYbatRo1U+UYrEOIz5nMqGOqxSORFARJQihA3rl5ZdRegTO5GFjX0DscmVxXzVlptoniOvGry2YMVcrY7BUA/TgQw+iVq9ejSosLDKCRWGghCo3UEdHO6pHz55G/fv3R4VDYdSqVatQO2y/g9Hu201E8XXHJEf3d5CXQACmSQSz6pvzzvv7UVJcjKqsrETBwimzeErjvW7xNaWsrNSI+0pJaQmKjxePx436R8tRffr2QXFg8kxa1YMW95UVK5ajVtfWG0GqMGXc4TUwMMtqaGhF1dXVoRi7XLiPDB0yBAWLbHChjfqdkSDkGRv7+i0IgiAIgiB8z2ycMDB8RuvMCX0rOmsRhV3Z997OYWCcAIUK6eig8AP/OegEtLvtSMFqgUP/eiPaujoKsdAWpfgpJTpAMPDaaeejHVRNYUUi3tgSCg4tfcOfb0L7bCsdD7wizK5N5Pm69joKq/DJAgq2+/e/u2mfPYACMDO9V9ITanYYGPpswsCkKH+IfgpfFaS83/zww2iv//JztECpDgcR0eFxOAj20z9yQ5hsNWQU2rB6+gbYOxWznvLpDI5z5qsU/oXDKTT3onAsAAe4Hb2GQlFceOGFaE/sZYUZMQ5B/QEmViumB9xzXXMTleuTHU1oOQxMoQ6bAnAYmNdO0mFgSrQXjrJJ6LAUy0qoXtrbqS5PfvBfaAEOd5GupHA2rW0U6uWCkTugBc46gYIfl7ZR2UfCdLwaew64Tn+7jkWxVIfj2PN2t77BCwSki6htNeqwEz8ZTGF4gMvPOB2tKVXtfUigb42IBCks95VTP0R7330U/qetr1sX4JEFQkEqEPYcHuToIMeKc8+lkDMTyyk/HCP6xg8+og+KR/9H4TPmVFAfAa82AOuPwHsCcLt/7sc/RTvMCkhdBi4rQHefVl1m737phoE56hEKA8KBulP6suMfBobCgOQSBub0Z59H++abFC4HaOpLoXK4Loboerrs0kvRAif00OF09PH8HoUfqaWQRBzW5Eud9rAVaLssRvXL4aGu3pFC2Bx6EAX7BvjKM3v+YrSPvkCha44/jsJYAVvW6PTotq1j3jvzl9P1EPjhAxQKiMssXkz9ngOdA6fr4OmXnnUO2mEw1OFhZYbKha8TrzdQ+J8//elPaIEZ5dT+OIRS/1VUhscccwxa4MKJ1H8S3GxT1K84MD0SonZzxxMPof3VJxQQmq9ZQFSPrHB4r3tPoOs6sOdoCr5ewm1MZyfNFyvFp/MooPUB9/8HLROIuNdRDp59616Hoj1uf7rmFia4ASjYy+rTFgRhc0SauiAIgiAIQp6xSd4A8lwfnkMCngJWv379UTz/B55gQQ0NjUaLFi1CMZl0CmVT19SIWrlyBYrnFvJcH1DPnj1RvQIOiudr2djzjlA6zd8WO2TDdw3P/yFRPhiuC1/g+7X9LgfWemz4ilUYQUF4WVBJURDF+9r7888QkBcEXkcWzwmqLi5ElUdDKFXAriDfSnzqjUFanZ/F87R4XhXPdzryiCONRlZFUNAs7aZ5+I7bG22zzQRUIhFH8dyygMozz5FsVP0G9PkXn6PAr8PCKMMgaBZKcFEB2e3+u8Y+1zqdExxAtiymTp2Kam5pRvG1JBgKGcFoBGj3PfZAHXvQ/ijwgbG4vWw1dCDqonPPRw2o6WnkxSc5TlDVCagrzPxo9RnbqLoGoixKIlFUpaolEATnBvFcUPYk20CAc5A9/7FCJQVUpjIJqigqQUVCESPwMYKGDh2G4usoXwfta2EiAXMpk868efOMTD502/KDt+W6AA8tyJ0LmjbzFceMHoPyxZxMEPKDrq8mgiAIgiAIwmbHJn0DmGhtRcFsEtYOg4aiqmIpVKpYPQkqtYdTRp/M/woFs1pAgXQQZfPOwq9QC9PtqEBIPVUrJdIJo+0HDkfBi5RAHepJG5RUT5EsxnikguC5gUdZfsbv/LRN1aLFgZFzIKQOi1KHBKXV+Vn8AK3jSpsv7FS4CmZp/dF5UPkG6Z9QJrCrB047KJjOoFJqB5T6PTqxYAoWS+eD67+sI40KptT5PEpnCrNUmGg3gilFoGgyhYpoGdcZKKMSBV5QOqVbl1bwajeH2XB+UfAzfZ1N1nE09ndKibBqg1oxdW5QRWMbavdBw1GHbjHQqEwlGxRRJwTxMl54RRjruK23QRXGOkgdbag2J+50hFKoeCSD+mTlPBTMTGM5BeoEILOGlTBtHur/e4TbbSZAgm9QHIQaA1FroCKVTGBr9SPrs4aVqFWFIVRQlTUoHu8wGtyeQp28/a6oMrUfqCLhqlidGxTMpFDV6oQge+SC4UDbOsVu24dscDvQbQyaHsp8o7pEKoNiz5uj+54DHlGtUlVVIO5C4UQaVaiugSzVXbLE0bFTgQ4j+BrEQdmj6TSq2BKv4p3YfyRqWGE5qqSpw2hNNINqKwmhpq9caQQvwsOX4fHJNLWWPlm2ABULBlHxcAgVUfXC6l/aAzW2qg+K05x9LVEljoLP3yBB2AyAa4YgCIIgCIKQR8gNoCAIgiAIQp6xWdwA8ugAaNjw4Sie3N/R3oGyh6Nmz56NalfbgxyY7A+yXPwLFi5EpVMpVCgcQvEEY9DoMWNQfO51mnwufCNcX7nAQ2BdwQtZugTOZ8sH+Ba0oRb0bChGj1bt0TPB3WSDC0gnnocYQRzInBc1cdBcEC8K4Mn7tbW1qEa1J8sJhkkaGAwGcf3Z6q7wKGB9e8xo5cqVqFAoiGJ4gRloyJChqH4VPVAGXc4gvi64ZWBdaFhstHIBFumAcgLSz/LAC0dsvPXFC4zWFW5j/XpWofr06YOyF5zwuUKhMGqFKnNWoyoUkKkgXaZ87QZxPXkDvycTSaMBAwagyssKUCmVKJAg5DM5Xj0EQRAEQRCEzYVN6gbQnhANCjlxlM3Y8gJSRSGqNZxBpUsLjKa31JPa16DYO7ImkTb6fNVqVEt5OSrc0owaWF5mNLZ3NYqB4LQgewkFPwNnMvAqqpR6vI92Vg7oJJqJ337w2TLqCRlkJokr6QdnvYWSngwPh/IqlA5mKR1MdlLWhHqQL/C9knZr6J9QfmkEqX9d6UnvqUCYpL4FOSF1fiOanA4hX0GxMCkVgP08gknsqDiKFwmg1L54evv8qLUTCIRQvvCEfVYu+JRnWn22ldW29OKUsiRpZM+eKJtMULU7pbRKJsjtO65qVJ8A9ayuRqXVsUAxWDgTjKC4DurXtKJiqjWxqFZAkO60Oa5NRv0eBJ9QkEeU+s5If2eg45l9UN8M1ymXlJNRDcIrJqCuH0rQC0FNjSuNalvaUOmCIlQwkEElE3Gj0T16oiAMOoZCN8mEvJJM+1NpAZl0mV4JInihkNk7mDZKs1QZgeKBpFbKiE/PJed+of7R4rbAxNUJQQn1HcteQAYy/cG3TeuTgDfSo7A6H0ptAdpt+BBUdazNKKFaC0pdEEArW9qN5jfUo0yj0rGH5nQkjBa3tqGCgQIU13G/joDRHgNHophQSrVTcAH6pLkTkH+vBGEzwKe1C4IgCIIgCJszm/QNIM9dSarPrJqCClSfvn1R7CUJhyNGTU1NKG9A6GVLlxrxC9v5Be4856dv3z5GNTXVKIbnhPGcFnsOzebK95HPXOba5fODeSQaRRUXl6C6AqoKxB4iEHu/SkpKUTZ2Wwa1t7ejWtpbjFz3DMHeq00CKAyQpqWl1Sgej6M4737tkMscjoBHgXly6zFXrrvB8+gYv3mCOQH7WPuNGzcOxYGZQRyYndvxmjVrjBYtVNdoJYMu6KXqGs1qaVHtUInnffPcwrLycqORI0ehDJ50CUI+Ih5AQRAEQRCEPGOTvgHkuTBZHkCt8UNGoopiYVRBa8aopaAU9cGchah6tT3ovdrVRvVtcVQqWoQqb0mgdho40qhQlR7IBX4IOpk0eAtI7lwnrSzfC8uDdx8l2Aql5wGtP5TGzvN41Gm0csOkSGv94DlGfuJ5gp2xzsvBWz0EVd68ygQTWkkUz8Ui0RE7o8vLEm/L6dxQ8PwvkIv3/J0JhUhFRVGUTUDtA/IeBZLN4u+Ki4tQ7PFygiFdNuq36jMokUprZYxcyBPIx7UJ4Pfwe/1bVR8k9Z2R/s4An0F8RO9RNxzstYwlOoziKmsgnsPnzhd1VVJSjOI5bvZcO1ZINRKU+hHEueoKk3O1fec2QZi5s/BZi0uJf+bpebbc+bZrh+s9EwihkirfoFTQVU54qm1sRRVqUFG5EQdrrnQKUXWhoNHnK5ahvExbtdxoabIDVRxR7VcpHUuhRhZXGW1dWoIyhcCV4Qen2ZN2QdjcyLEXC4IgCIIgCJsLcgMoCIIgCIKQZ2x2N4Dawe8MHz4cZYazLMLhMIoDQjep70Bff/21Ee/H4kC4fFxQvsATwEFcHsLGx26foHUJ1muPcHGfSaczqK7gc/kC3yvx8TYluCzWF5NnXQabEl3W6YZCz5uoUAY0YsQIo2QyheKFJ3ytBS1ZsgTVkXBQzKJFC404gHQymUClUinU4CGDjfhd3xCOCiUIgngABUEQBEEQ8o1N+wZQB/zkp3dQkdaImj6oIWUVqMK2dqOmggLUcvW0CHp1dS3q85Y1RhzUORmPoUaVVqHG9+xn5CUTDKB4ccC6LhAwk7PNBHlX6l+S3saeHM7f8aIJc34nbKR+TR4KM+GeNua50FmT0/WEf1YmGHSlz8Flb+QHbGfJ5AF+VOfzm9i+vvBpgmlVVkp2+aztXBycGwU/g9RBMH8q67RmQaXWI/5VOE3aUPC58fwa+zv83moTGfUFKhBBBYJRVBa6MWgHjFnsYPKrBIcFpUNqO0uq5lUfCKA4nFJUnRdUoGqR5QKfYdEJHY89OhhORC+I4LbK4m1BtLcrk8DvAVOn6l9WJJ3Okl+bCgUKUJwHk2goMy3TH7W4DrhO7CbE9az+pzJRZW2k2zb/HGBBe9fSZ+903Cw8v+S8ZNWN2gAUUH0DFM6oq4hSSJUDy0WnVu2H6oIyrZ1HjzUqceKoSKIN1VEeMZpVvxT1dXMLapXaF/RV3XKjWFkUFYq3oYqcJGr3oSOM+qh9QKaA3VYmCHmL9ABBEARBEIQ8Y7O4AdTPnyh+JVh5YRQ1ctRIVEdHhxG/3D2RSKJeeukl1OrVq40ikQgqkUigBg8ehKpQZ2F5n6Q3NulMBhUIBFHhUMiIy8d4JrogmUyieG5QRj35szYnsjxUmwh+aebgzM3NzSg/vM4Z9n+AuBlzgPSuCKm2BCosLDQygFdIiY/L7Qel2hyou8LlY+crqK4RIG95B1U+WBywmMtQbUjqLkC4llxDtmwouDB9ioG9n8OGDTUqLy9HxWIxVDisrlla3CaXLl2GWtOeRrWods6KhMOohLpmgfh4Q4YMNuIwYYIguHzPVwZBEARBEARhY7NJ3wCmA0ESfNYqi5N41deE/v1QNamkUVs4iGoOpFGT585FLU6ljQqDCVQ43Y7adkB/FMz8Y6ViJAZmkoF4mgnInvsDsucPsRief+MHz1EKqUyCgpm0EczwAjkh9WytlEh3kFIQuJcEh8VD8yO4VgDSpMXUtzahUuEAyp53ZmQFqUb5At+7Unu50nntSqaM1Pa2nLQ6Akunx7sNz88DcZmFM2FUSO0H4nlpKEZth4KvUOoHj7guzPnUdiyTfvU9qNP31u8M6juS+pa1FkybVwqEwijVQlELVtahbHSTcEIJlW5QPIXiNIAamjpQS+vrUKloFAVBzsOpOCqUjKH6FBejeobDRib9aVUqIE1AlSvLBEY3+dOy82x+58GUD/70ncB12qui3Kh3YQkq2hFHwZUGFA2HjKYtXYyCUMUYrjiiEgkKJo1CaVXmSkHwjipxu4Gcssw1Aj4rwaxaELdVUJiVIgUzIS13XuBa4ZOCPGUZUSdEqXZixN9pRdV3XhngM4iPa4vR5wZ/MWhgSYHRlgPKUMXxVah4xDFqSbWj3m1Yjpq8ajGqvrXZKKmu5aCilkbUqJoK1IhqV5wPvi6bshCEPKaLK4YgCIIgCIKwOSI3gIIgCIIgCHnGZnEDmDXq4JmwzUGbeWIwKJ1Oo3iCeigcQoUjYSMOJlpcXIwaNHAgKq2Oyfpe5lfr8VkzaqHT7Af/jvPX2tpqxENcXsxxlVav6UAtXrwYxQFWN0V40YHfwgNuI7Y2RYLBECqkGiFo3rx5qCzcjkHSQLNlLV26FNXY2IiKRiNGvKCIg0xXVlWi4K2qLLdDqLJW4h9TadWHtLp7OfMoZnV1lauaGhQHKub+FVRlzVqxfAWqPpZAOU6ExFMLQNBfQZ464HIC8QyDjcG3rRuTLZNf9ZnF6J85vxyuC7TlVluhuHxTyaRRWLVB0Px581GzvpqFSqprM4vh/s4Bph2IiMTSJ+ZzCIJA139BEARBEAQhj+i2N4C2h4JlT4gG+WHWJMDDuNK2ZTWo0cWu0vEEqiAYRsWCKVRHIGkUbUugBpZWo7bqNxTFi0tAqRCJ4adWGxO8VcteIGImJGuSKksg9Baw0iozSrAZqKKyAhVSv2Px4oJ0KIPqSMVQ0xuWG9WrfUHGFagPyK/BAz0/bxpq9ppaVGtxBBVOqCdxrWgqjVpbHtYd/Whu1BlwLthSBemKo1gbOh+Hw/6kMhkUB+xelGk34gCzkBXMDn+wPTngbVBib1EavF1KKiGu9EKGdCaFchukH5BuJd7GloYXsLDsxSScnjWVUdSUxbNQH69pNGqLOignpdIF0g1gpfqX9eScGajGWAqVihajosGoo7oFKqD6EmirgSNRlWo/1tqqLhhQbV7L62XKqAyAsiKRa+CT+1M2vFiiK0x56cPqmslarGOA+lMKqXIElQQKjMb3GoCqimdQMZVJUCYaMpqdTqDu/+AdFKwJAzWGC41SQdX2lFQjJGmgDbFC6rIBCmsxdn17ZbcL1lpR26+tYCHgPcjJqBOzNOwBblfXRFBtW6MRk1D7gjKqYEFdUaTSCLLZa+BWqAHxYhS3FVBhYRHq7TWLUS8unYWy6yCmShDUu8NB7dJ/OMompdouSBAEF+j2giAIgiAIQh6x+d0AsucsqZ5ElcrVV6C+ffoaZdLq6RI8OhoOoGyTSqZQQ4cNRVUVhFHwbMzSzgOD/eTKWts8tPWlT+8+KJ7LAuJzeXnnnSlGy1SKQSa+hJ4b81Vro9FTTz2FYoKhEGpTAHIPikaDqIJogVEqlUZxMOuCAvW90ty5c40WxZpRpnwY8NywAlqatZU7EFT1Avou4XxxwOLm5hbUAw8+aNSgtgM5RSotIF3vb6o8syZPnowqLSlBpVMpV2maT8rBkcdusQUKcsbK+gG/6MymOPdq+x12QEWjURTXt933uC29+sqrqKc+eAsFziYW+Vwdp66tHXXfo0+jvpg514jrhV2CXRTlt4c7iyYcjqDY2wZiuM/wnNCZM2cZgSMPpLobKqDaIKjLtuDzff+KnqgeNT1QyVTSiM/brsoNxHMuuU5AyUQCxfuPGjEYZROKkARBcHH/mgmCIAiCIAh5QUA90fq7ML5L+IzWmWP6VnTWIpiJ5Tj73P83tDbqeRstvC4I+OceP0B79D57ogVK2vT8Fb2krrUEHqsd57m3PkALnPTyI2jLyuC15I7TpJ1c8Mo0pt+SpWhPP/3HaK/Ycke0Sc/8FQDnzyj+NGMG2ttvux0tsGBgT7Rp7XHstxJn4jmTJk1CC9y63/5o47o8omlwA2h09aQg4K7iywVL0O73wL/Q2iQC9Fou9rSEW9egBUaPHo12u63Go4VX4gGTp0xGCzQ2oq/IKarogZbLeU3Ufd0XN5exTTQH6Be/+AXaE2r6okW4jIJx/YHSMx1XSBLX3PRHtI/rdIAXBaioc19FNmjwILTPnnwa2qpS2kY1WrQIl4/2zIW0d+GEJx6kD4q3p7yNtrY/pRFWswJFLS1ogWHDhqE9dMst0TY10SvVfjRwJFpg6+H0mR0YyxqoLnf7z81oAXhtIJAuKkULq2qBcwe5c5IuP+t0tBBMHElRehIB3XYVkSC1219PnYr2vvvuRxvr0x8tkNbtJOa0omWirW6+cDWkYo+tJ6DlV8W9+PGHaAFuC7GCYrQ8j7VPa9rpaKffjR4zBu2jZ1BdRC0vTpTrW9dFo66E976k/gAc/fC9aEtKcd2wqS/wWDJ/23EPtCcefADacp++1q77GrUEx/nxcy+ifeONN9ACjX2pjDgfW6xcjfaySy9FCxzdp4o+eM9h5Wu1/vyba29Ce3eCjlNcQuUEBFOUZ/CSAtEYtV8ud6CqFGdKOitXwoxLx/nq61lod9t1V7TAs0dTubbhv7SWGFi0zJ1rd9CDd6Dl1/UlS2grbqvAGYOGor307HPQDonrNmV5XzP6OsfO7M/JONf94ff6k+O8lqL9YKUzkMhQG7P/XOyp87jluHFoKxbRNXPvvfdBC+xQpMuZd+NkWOVeq9Nxx+OPof3dtHfQAsVF5I1MeuZ808stiXbdfs+soOvF5b84H20/N6nu+bMPIwh5jXQHQRAEQRCEPENuAAVBEARBEPKMzeIGEEYTWCaiqp6wD55/0KDBg41g6BfEiz84qCsHuwVx0GgYGuThQS8wGmKNiHRaXLJB0AsQYEAGNHTIANSgQYOMYKgWxPmAYRoQT1AHzZ4zG/XQgw+hnn76aVRtXa3RUJVP0FZbb41qa29H2eE8Qhh4OGTKaaPABW8VvudHU28gLgOuby4fXtgAWrBgAQqGWkGPPPIwatnSpUY8mR9OY50qC14cwHh//i6AqQugPr17oyLRqNGChQtRDz2k6l3phRdeQLW1qbrVYjiMES/8SKfSJtjuvvvsgypVWQFxf9tILWDDAY0GxOhFGCAYZgYdf/yPULzYhvsbiOuXxQsT5syZYzR16lTU8hUrUDU11ajp06cbTfn0KxSfs6s2tqHgS2W1+gwarK6NrJbWFhT3FcbO67RpX6D+e++9qFdeeRXV1tpqlAvcrwYOHIjiBVQg+3y2QuGwUSql2q3S2LFjUTAwjoPjVl0KgtAZ8QAKgiAIgiDkGRvnBhAcIkr8lGs/6WaCSVQ41oEqSCSMAhn1xK2USXegwnG1nRIsUWCZMB46MipHVxjdt4/RVgVFqJraelR5RwuqsKneaFRFJWp8cU8UA5O+WakgiQkH21GBTItRqTouKkaKJNpQBal2I4aD7nKAaRDMfQaxZ4DD2vxs532MRjbGUIlMOyoQTqKaCwqMYmVlqNZeVaiGylJUr5ag0Vn7HI6aUFOBKmusRYVTzUaB+BpUUTyDKtTyhROPzSxonvRBjqpHUCjVkqV0oN0olWlDdaj6BEFJYWlp764trnbmtLHbGO1TXI0qWV2H6hdLoDqcIqNAUTWqpf9AVFOf/qjmshIjWPIBotyo5KfSqEC61VIbqiDRggq3N5JSCSNTBozuD7nA8ZxBsXQK1W8N6bSd9kNNqBlo1KtD1a1S04CeqPo+VahYtNCoPVyAKkkkUaFmVRdKI5asci7dflfUecMGodhrZPe5dDCNSqn+BuI+F0kmjUri7aRYG6oo3oIqjDUZBdMJktoXZLw36nwsEwhZ/YgKtKEymWajULoOFczUo9IBaFdKoTYjA4RoQsFnJW5ISuXqPKC9RvRH3bTnQahtFjcapTtSqIJABLUmWoXqKOtr1F5TjWoqLUW1FQRQK2LNRk++9jQKlnyAoEeBkuGUUTDZjgqpax/IUX2dpPKjVRhPo/g1a6ZtWYJFVKg0tN20M1B9DTp1h52NtiwqRvVsbkYFIxWoULTSqKVnP1RH34GoWE0vVENJmdFasdLD7WjisDGo/iWVRuGWGCqajqAiqTCqQPVfVs8ClU6lrYYMQcHyK1yCZZ3DSBAEA15nBUEQBEEQhPwh9FuF/vy9E1BPZCxYyA8P+XVrKMTBK0vnOaUlpQ4EUeZ5NWH1RBotKHCiEQhaWugcMniUE46EnVFDaPk/EEpCGA5wEah7W3XgRCiET9KF6ok+qvVRQ63To0cPZ3VtLc4NC/WocIqKipyMehqGY4Mmbbk1brPLyC3I8waJgwOpx0ieh5IOkQWHAfD+6mVoYd4Pzy1LVlfhOeD4RernanWMoqJCZ/jw4U44HEbtP4TCKajTIwHLq6jOQDatLHytVVTTwxlQTcoUF+LclylL5uO2HbGYk0gmldJOUlkQhCcBQciPeCzuFJeWOCFVNj875Ghnm/HjUQdvMdoZWlnuvD//a9xn8ZIlmIdArx4mP9FoAdpBDtXBxIkTsQzGllpP+zofKtHawnNGwFmpxFn46LOpTkSV86JwCMunUJUP1HGZeibhOXsQ1BW+O2b8tji3sQgCzap9ubyzgLmXcGAIywGfoxG1fRjVf8hQlb9tVP0sd6oqK526ujrMX3OKwraA4vE4KhFvx7ld8PJ/CLJ82LgtTX2P6NMPzw/tAYip/aAM//f1NFM+QWyv6tzFpSoPqs2GI05xcbGzXVUvzC9ox20oFA8FilHoOVZpU3CqHQfIR/j6MmpTX3wxDW2iDPy/GrUfzJMq6YipjxnnkIMPdioqKpxtJ6j63GYb1IcffIhtbG57g9PR3q7ymKD8xVJOHPJtKZJWeVb6wQ9+gGFM9u49yDnphMOdrbcag/mGVBaoD+qUWcCP0E4zuAU47ei5sq65xcxFfH7OLKzTsjIoF9XnMMCv+p0qD+wbSvsNGIZpHTuCQuYUwOE858K32SnC+vuXly7AYyxfvty0G6emCq8TEVX2EAh8oCpLaF877bSTmSc7VofpMXjOg1B2DIPVdWYLpb7DR+CxQO+uWKrqushpaGjAMmxV7QoszKXktpVMqvJOJPFwMLcyoH6GtjVy5EinZ8+eqAv3O9gZM2aM07e6BkuPPcStsYRJ87OzZ2L+oG9DuwqUqPalrn/wO877Hj0HYTucMH4rPF8ZX1RssD+CVZlW6lBtFuYX91XXql5a7YMHOePVNWHmzJlYvoux7cSzriUx3VdYPdR1BX6/2267UZtWGht1g0ojXM5gtfjaX1as2ofSK8sXq35ahVq8eAmWVaiwBPsgz0dMxzvU99BHU07PHj2x/Zyz5/7Y/ovgFXFqmyhtStjnFQQB0VcCQRAEQRAEIV/YOIGgfYCpPkACXuGmWNhMnkA7eYUdFByXqSqHmSOOU17q3sfyA57rTaHf2c/BLR10zLY2WqWW1E/JHMwVKNNBhyvU0z1gXtBuPUFm9Gd+oK5rp0DKsHKW6QiSp4FfC5bRAVbhiZXpX0T54HewJ8N2aolIpot7dZ2ON+d/hfaDDyjodW3STQe8VgkYXALr/Rxnx512QrvzAAoca7OqleZIwVM9kA65M9Z4lXNEJ7GysgJtiTWpjVNPa7BdUlbhra6lsmrR2eJ6DlkBX8G7Bgyu0t5F3t0+rHvIbOwi1IesbaF8ffLJJ2jn1LpBdsG7AER0VOMBAwag3W0wBdAGSit1AGBdTxkdBHi29WJ8JhQhPyV4KICqmJvonr08wXE1iQwHzlbpWEsg6Ob+biBortNRtdRXTFDu/u6c1SU6OO9jsz5DO3/BArThhFth1TXUJvbXQcLHj6M8R61C5P5EPlgvVuVbxHQ/A5Y01aENRyh4cVj3NXsleXmYfldZpb2cvLt9SndzZFkH9WF7NXMG3JQK8IyhjVG5VlZSQGagKsh+XDpJWp/EPpX7WZ/UdHj3N0tr6fyffvop2skrqHzjCasu9TlKSuhasMeILdBuueVWaIFenBy9bUxfEeE1bEx9LX3H1ykODs9tDCjV162qYqoTmH/ZGY8P3celTuHMHWd5PQXmf/+Lr9FyYHOgMU5BvCsqqFy3HUCB1rcc5+arKAcfgwmAr4v1/Ldepw+K5557Fm1TT7fugMoV1J4AGIUA/nvCKWiZQm4/gF2xgiAg39w7BUEQBEEQhM0KuQEUBEEQBEHIM7rdEDDDAyj24FL2ALA7GmSNIpn38vKQVcbnHpc3pwEnf3gbTkehN4GAThyP0iSCNNwSslKd9Iw98E/24Yr4B71bwpzdpdMQsF1r+vMavT+P6LhvAnY314OP5gzFVkJ4ZItHYTkXNBBMcCq47HiAyR5F4mMHreErIM1j5Qr+RG/xdHFLzj1Ogbc4/IZzvN/Z++jPKZ1IPoc7aOjuzpaHwDxLBQhPetqsquH9uVy4nGiQX8OVwRvrYfW4NQQcDdFQXldDwPwu4BGrqaYv/PmFaE8c2AutDQ24u+Vt1xePPvLyEq7vAtVK01kNzX5itAvcrjWFN38Kbmb8K59Rx85wOdun4gNo265PbVWBKXv+js9l97lCT754CNj+lpYSWPgEeU/pYWYuAXrbb/a5OB1suXbsth/J2gOyTEe088Vn5+LwG9xluOiinj6I8EoaxqcyOG1mZFpjp5K34XR1EfSlS7ivcV857dmn9CfHeWvyW2h5CJj/XNWsdoeif/SjH6G9etsd0LbrBBXZ7UYQhE54rgSCIAiCIAjC5k638QCuDb8HWMZyKHUP/Ery+3wK9Z7fx2ORS3p4rjsT8DlMRh9onerAPk4uzc6abJ/FOpapt4nzz0G7bXnPpb1rTigHX5W9qz62twxteMGJl6ReAAWEdZyTK6e+i/bee+9F2zAQQvYSvBhg6OpmtLwI5LR+fdAiMe0ninjPaXnt9HHcNQ70AX5eW1rXGc5aV/Wey7lyaTe5AMGfNwRdXJ860VXa1yU9fByfw/FAwbeuNz52V2n2bqO9ob5uS+9hrJ8h4D3Qol2BB/z7X/RBsXQpLWJq7UE+dF74NK6B2jxw8cWXoD2yph9arpLu9udBELob0kcEQRAEQRDyjG5/AwgeJiP1UGtL+Aa8BZajwHtgC77ziutkvfE5ZidtILz54cC66LFgwflsgecvF++fF72/95y2vle4osDDhNL5tdHfBbRUIk0eNjj62L7KBb/91kcbA790sNYFv/21Nngb42Ob9mPJ/M7TpsC75xW45UD8c0r9oAV7gpYuXYWqra014pcAgNceBF5vUO/evY361fRFCYKwbli9VhAEQRAEQcgHNq0bQPWwmaXuhjd933cavefmR2tb3m385CWXbXLB7zjrow2FX/msjzZYGmHeIcsfeEsgC+Zm+s3PzIK9NTphsKoXpdLdSWoTWxsUOn330YZCldsGkV8av0l+x9lQeM7FDrwsqfPZMmmw9oMFx7joGJzpIJjvp5SJBo2Wq69Aj02filqaajZqLEyjihIOKtDcgdq53xCjLdSJQDCHFsTJEASha6SfCIIgCIIg5BlyAygIgiAIgpBnyA2gIAiCsN50NeTKo8HzFy1DTV+wGLW0ocnomY8+Rr3++uuowsJCI178wUTCYdT48eON+Pzw3mT73cmCIHSN3AAKgiAIgiDkGd0+ELQg5A0J91VwToRefHjl1PfRciDoVYMHoQX4VXDDORD0hRQI+oy+1qvgOLi0jmjDr3YLyrOfsA74+dU6tSCfvySLwf2n+Md9/0V7y5yZaCsqKtACjQ0taCHcC5AqcA8UDFGU6Mplq9GOGTMa7dNnnosW4GBNEFUG4Ig00sIFoWukjwiCIAiCIOQZcgMoCN0Enu/k55TnAL+2BKFbwhP/lODFbaCmpiZUKpVCdXR0GBUVFaE4QLvdD1LJJIoDQh922GGoiDomi8/hjUctCELXSHcRBEEQBEHIM+QGUMgBE/rVkrChSYZCRkwokEYFnSSqOBnvpMJkEhVVn0FZgDfR8ihCh5dOv3nwffZKbje2cqFDa0XdclSRatqggkDGiF8JF0hnUH3q4p10/d6Hoc7s2R9lw55ADnIOrb2zD10QBC+59mNBEARBEARhM0FuAAVBEARBEPIMuQEUhG5CIBA0YlLplFaalEq64u/0Nr7AYhFZMCJ8H/iMvTbGm1Bp1U5BwWAIlU6ljJhINIoaNmyo0fkXnI86aP/dUDDBwTPJwaB6DorXoAiC0DVyAygIgiAIgpBnSCBoQegmxKxp/AX62eyjpYvRLpg/H21FWSVaADwqQIkO9jx8+HC0/arL0QrCxqZV21UNtWjnLV6ENhB0fXQh7Tbs1YsCmA/v5S7yiGpfHvcMvz9WfCTxZgjCuiF9RhAEQRAEIc8QD6AgdBMS2tq0acteDnpZFsGzp0q05Z/dIDKCsHHh9uvFbqPctrn9QkgXhv845dKmxZshCOuG9BlBEARBEIQ8QzyAgtAd4V65NgvozxntQgmwm4RdKoLQ3Uhxo7UaMgSDRqsbbpZbghuzNGpB2NCIB1AQBEEQBCHPkBtAQRAEQRCEPEOGgAWhu2D3RNMtPUNf9gtf+VfexzgZLRO6K3b7NXi+tNoz/3nKmPkNa0e8GYKwbkifEQRBEARByDPEAygI3RDX8/HN7ryg8aDwtuICFDYdvE5B8UoIwveD9DVBEARBEIQ8Q24ABaEbEggEUF4y1n8MeAvJY8gSBEEQhK6RG0BBEARBEIQ8Q+YACoIgCN8N3r8uMj1VELoN4gEUBEEQBEHIM+QGUBAEQRAEIc+QG0BB6Ma4CzzWTiZNEgRBEIRckRtAQRAEQRCEPEMWgQiCIAiCIOQZ4gEUBEEQBEHIM+QGUBAEQRAEIc+QG0BBEARBEIQ8Q24ABUEQBEEQ8gy5ARQEQRAEQcgz5AZQEARBEAQhz5AbQEEQBEEQhDxDbgAFQRAEQRDyDLkBFARBEARByDPkBlAQBEEQBCHPkBtAQRAEQRCEPENuAAVBEARBEPIMuQEUBEEQBEHIM+QGUBAEQRAEIc+QG0BBEARBEIQ8Q24ABUEQBEEQ8gy5ARQEQRAEQcgz5AZQEARBEAQhz5AbQEEQBEEQhDxDbgAFQRAEQRDyDLkBFARBEARByDPkBlAQBEEQBCHPkBtAQRAEQRCEPENuAAVBEARBEPIMuQEUBEEQBEHIM+QGUBAEQRAEIc+QG0BBEARBEIQ8Q24ABUEQBEEQ8gy5ARQEQRAEQcgz5AZQEARBEAQhz5AbQEEQBEEQhDxDbgAFQRAEQRDyDLkBFARBEARByDPkBlAQBEEQBCHPkBtAQRAEQRCEPCOQUejP3R9vSgNx/cEl46T0JyKQiOoPAbJA2HPf61cCgbT+QGT/5E9ud9Odt/Ie2/c42dnyJ6Qt45svbYUNhl/b6O5PVv5pzqkldqLTXn4H97S7lE87zKVpfnPv8aO718aGZD3qMKfrxPqVc6fU+J2Lv0vz1tZeIX3MQD7V4XqQ0mVm/pxbfwx00aU9RWj/SeHqDndqDLn0yu+S9UmPXyP7lvnQh4zpw4TJIBn9y4A+R0C336DVH/g2i22Q02Pfl+SSRG/WctmnC6RXCYIgCIIg5BmbtgcwEyMbtO9j+cmHb421TbjPO5kQbWMeKv1KoLt5AJPadnUS7+9886WtsMHwaxu5tYWNh3+ac2qJa4X3Nl4eu/3xofR3Sd0O7eaYS9PsnCK/nHjp7rWxIVmPOszpOrF+5dwpNX7n8n6XT9X1bTGdTls/9N+OtO22UvjVqHgA14I+5Ir2DrRBy3NXkEmQLShAG9X3F7YHsBNpfUDxAAqCIAiCIAjfJ5uWB5DRKa7Xd78tZJAZ6Sa0sRh5BwdECtH2DZehBfppm9LHCfmUQMpza8zj+l2Ry9102mcrM2dKp6Pdmr6hZzA6K7Vt1pZyRfDmA7Q1+NXst3xiEDrj1zLW68nKp77SnvrKrY19M+uVvrXAvnU+ppmaa5+EP2ubSxpzab6dvZZ+bMjcevAk0ltfgPfsG6y9bCByK8H1K2fvXuZaZ5XTfP35xQ+noK0IFaEFdps4Ee0g/DcPsAuM/zSzl8in73CJf6zt3IXz0G41oDdaoFeoBG0V/uuyMdvchsXvSvFN+HRURh+uQ23Cf1ubOsiNetozd6BdtGgRWuD4PqPRnnHiKWjL8V/HSVi3VndNfxdtIknewnO22gtt1PpbH+GK1bulrd8xG7rONp82IAiCIAiCIOSE3AAKgiAIgiDkGd12CJiTlUq5izdCevF1QE9mfWfFYrSPPPIIWuCz5lq0ySS5bPvojXfeeWe0wMX7H6o/aXgs2JqQ+b0OAXtCvGQs169e5uL8/cWn0X719VdoMy1uCJyDDj4Y7VFbj0eb1uEUgn6hE7rwfAvrh1/LWK8nK5+euCkNAXNSuzy2TlxSb2Rnz9s0/S5M3m1kCPjbk1sJrl85e/cyi0Cscnq1gSa4/Pa3v0VbkHB/eeVvrkS7Z98+aM0BN2aBbUD471zAXgywNnzyHovTlxc99F+0r7zyCtpJO2yDFrjogovQDtUDmn41uWkXp9+V4pvoorz14ewh4IZWWvxx4B1/QDtnzhy0wI+HUln/8hcXo+Wh9plzaTgeOO4v1I5LS0rR3n/e79COGuQO1ZuK0eeXIWBBEARBEARhg9NtPIDepxJ+Ukwn3eTFInTXPnPJCrQ/uu9WtM3NvDTCcZIZ8owZD2IB7ZNI0ORL4Oe7/gDt6QceiXYYn8L2xHVaMu/33JRNLnfTfh7AVm2LtX3efOM4t99zO9oXFtCk02iUloWUrViNFjj77LPR/m7cDmhTccpIKOLzCJHDg+bmQMrnqZADdXZF5706E+KmwFXp8eAinqLP7ambY/0AlFbunV17CDxH+uammltj9cOvgDxJe7WdvPB2vxxeVIm2Xxk9H/eI6QMF3Z3TEbImaX7nyngyZ/bvouYyOWS2q+JlfNOjbVd4j+13Lm+d5VI/uZzbbUBkFZ28yt72DHjadDpkt01//JOcfSHl6BdWtTtnTnkGLY/knLPjgWiBC078EdqB3rwG1qfggfXdz0On9GjrC29sVzLt0KJLrSlJSxm/qKO+A0QiVHa7VNPyPi5J3U2QFQ0NaHf/z5/QNjY2oh3e1o4W+MMfyGu1V1FPtF3idef74aloO1ec09C6FZAPa6snv+OsbVub3M/P+YE7CS7rel2e+9/7D7Rz585FCxw/lEbeLvvpuWhH8K2GdcqjHqO/41PeeQftGQcdjvbsSYehBYbkdA3IaaOc+XZ7C4IgCIIgCJsc3d4DaN9Fr9H2D3+hu/A7VtBdeEkJ+84cZ5uJW6MdNGgg2qdffQEtPxkBo5rpMefSSy5Fe1TfoWi7YkN7AO1tKXCN43zwyYdor3ztKbTA6tXk6VvdoxfaSISeSapq3fyceiotP//1qAlo0wkqvGDY56kn9wehTQpvM0510ayDOnC4XQdcu111Bn7lT5iDivMcy6TlLgnr53RP2dutxz5vFjqgKKKPndRzYDl/kbD9/M94jmifjF+vxZ4zTrP3dYi54ldAOqt8inPuuwXtO1PoaRc4dLtd0P7sbHpK7sNptNLqDVTLKczwa64UAZMPfdJQDg16A3sA0ynXG+Zep/Q5soLSa7zH9jsXz0PWcJKzPL/sPtOk09Q2AtZcX7N9Fx7jtXoA7T7DH/U501HayLzCSpH2NAb/UqZK5fbL6atvoDlVwKQHyHu1eDHN6b75rMvQAnsMp2tzDx4J4vr28wByWzflZKXItBf+nacQssj+nd+fSDOaYOrNJz2mPfPx3Hac0p9T2sf07JRX0d5wH83lAyoryVv+j/P+D+3wgRQMxz2Ke+Qz3n4e7SuvvIz2xK3cOYBnHHMa2jH4r4V9IG82+MB23k0ZkmHsnPMhQ1kHV3jfQwd4v9LtOQvjKvZaG5+yN+jfcaM3/YOMH5xy8AByVhs9HkB7DuAJw+nv7mXn/BTtcJ6ezzHcFH9d/jXam268Ee1WvfqjveLyX6MFduMG462DLDzlupZelyvfbm9BEARBEARhk6P7rAL2pIIf5oLW08aDLavQXn/99WhXB+jVK2PHjEULvHoyPe3wbv+cMQvtHXdQAEdgmY4zyiuDnzyI5gJmwU8j9mSVb+Sb76fNYa183b3wM7R/++tf0S6JVKAFysspgHVRZTXaNWvID1rYzP5Q8ABSnn89lp760tqRZJ/DsBnc8vt5Y1M6Y5xlXj3tBzc1u3j4Yd181/kU5omsVVvex24h/AxbxCfx611rqQP7lHwc/o5auvs9wHl0/d+Euz7cncPC37HvikLDdo1fERhvkUW7zg9n64dP3IP2zTffRAucNH5HtL88/Ry0psdaGeJVb1xkPIvJric7/wDnw/KdOtpZ5eJX3n6Z8+KpwyZd4bYP1nt14ADtdjpN+vVx2BlhJ4tPxcfjn7UzH2nSv+QwyZwOu62XeSMa8AHZ+sAzNe18cdvmfHD7s6dgBtj9qf+EpHzOYebL6gt6THvI35nmelCOfuCPaEeOGoX26RNp1SpQEaVSKuTj+OSHf8X54LTawfK53XO+uoK35fqxs8XVwWXO53Bnbbv706xXi4y39TpObYBax5PvvY/2vGcfRAtUV9E1/6lTzke7Ra8atKW2p0xf5Ll/1+nRraoyt9fwpwjvpjPk95e/RW/M1xT7WsLlbNqCtpGs1s6l5dfpCN6Pj8fps9sxb8NOtDZtS+002xWj4OPZ1wJOK+/PqbLbRieHnT5HXB2f08YewAPuptGNObPd9nv4OLqaXXbmBWjH8MmsDvW5/nz1n36P9oPlC9FedBF5d4GL+o1Em9QZWd9BmnXheziFIAiCIAiC0J2QG0BBEARBEIQ8o9sOAXOqrPnNzhXvv4720UcfRdsYpaCKp516KlrghtHj9CeC3sDnONfd9Bf9yXGmNi5D27s3BWH84PRfoC0qcd3mrkN5Xfjm+2nvXHxgin6b8bV/uAbttBbXpf7zn/8c7bJaWu7/3//SJOGe1iTok08+GW0+DgHzpPTGGH3X1kqDMcmQPaDF0DYcKNsMTylKS6ktVUV5fIRM1jCD/vzpclqYM3/BfLTJpDt4MWjQYLQ7Dfa8vdQel9BJi8dpsKilheo/aVVYWRmlJ6QnvU/5gBYIVda40wO2HEHvoLTmGiPTl1OYJIAnK8eDdK6BeiL5ToOGoe0Kq3gMfkPArbpN1TXRtITjn3sI7dSPp6IFjt+C3ul65ulnod2hnsqssMwdwOYwMFzkvExgll4cAHwxnwKhczik7QfSsMnw/n3RAqZrsPVr836Z88Lb6HFDfuf4F7MpDcDsxUvRFhXTwOzOgyk9A/v2QJuFPh7Ph+dFRUBzC+WW22ZYL/YpL3Zrd1pLPdovvvgcbUgvjNh6a1r4BmxRqc9rXnRuN2B/vmqlZWgzZ85ECyTaKD19+1K57jhkONpIVmgpfY5choD1Nu0h2v/2h9yFbpd98BjaQw45BO09+xyDFuDh1KyhP4U96MhZnNlM5TNrFk37aW/k5XVuv9xttDtdCMge0ibLXbWphcbyUlYoMqaqkiYfLNLhuN6ZOx0tUFhIA4w/HEP1UsaLFNOcG4Ueop+jh4CffeU1tL9590W0QEkxneP+I2mKz9AhQ9AOTroLaEIFdK7Ver4E/znPpNzB24oyGgg1w+hsfcbDp62sQzt79my0sbR7nP79aeHCLsOpLXB1h0wtAVSIKf1bvh63xt0yLCyg9FTqtt2mQ0K99iUNgwMcQmrMYLpOjR46Aq3f1BXODndzeyj5q7l0/Zu2YjnakJ6CsFVfWiQKDB1EYXbMlUgnFYaAuYga1mcI2GKJPvjfn6RQR3e//hLaI49yp5/duudBaNeh635r/C6NgiAIgiAIwmbMRvEAWg9dBq9nIa5vTe2HlOOefQDt21OmoO0XKEf7q1/+Ei1wdLn2kMToqWR5AR3hD7dQIEbgtiX0tFZdTcvsn/nRGWjH9qMnHKCQX0Gnn9RyWcWe0/00l7bP3f3b02gxSCjp/nKXCRRk8poZn6K9/fbb0IYLeSq445yiPaBXjaYnzs3dA+j31H7Vx+Qhe/xx8iZ06AnTAL8WsCWtvU76Cb2swV1IM3HidmjvPehotAz5+Ij7nqNQC//8mJ5UG/WCnKCJBQKLdqhN/mSn3dEev/8ktFu4D+0qAWRe6KBQPjfq0ACzrKf2o48+Cm1QT/i+/XZqv9cecAJa4MwD90dL/mzHeej5Z9H+6zP3SbqtjR5HQzE6NnuqjplAizKAkw+nPG+P/yq6aKNJncZwyPVM/Xf+l2hvvvlmtHN70mu7OIQNENUT4NnDNSlCFXf5ZZejBYY55PWs1bud+yzV5ccff4wWaGwjjwsHye2tRwEO1t4j4Prt9kDL2Sh2k+Hi7Qc+26zRF5+6GHWoi154HO2nn1JfBOoy1KY4X30Kaer/4UdQoFfgqnE6PBP+66hcUnvsSLiN4oj77kQ7Y8YMtLvtSXW7yy67ogW4fFtayRe5Jk7elUGDXG/zI8fTIpthvan9l9jtTrNQt7/XPiNP4tWvP4d25SpaZAcEdJ/hEFtHjqLr0BknnogWoLDzbr4C2veSFXCd3br6z8zsEBX87/7xd7TAlK+noT3/fFrscPFoOhfAzjeOqsR/rhbyIhfFU2/T34M/Tqb239REnr+09UeFX8E1aQgd+8yTaNSEWgrB15VG3TYeeIFeq/bLKRRKDBg2jMLSHL7XAWgf1sGr5+jX2QEF2sO1bRkt4jjvvPPQHldC1wagXq8amXQnjUxxuK81Ba6HP6jzODhE5bpmDV0vbjvtdLTADqNoxOvEB+5G+7n2Du/avx9a4NILLkE7nl2b2i5wne/Ok2+/gfYPk+ka19pGCQxYMYM4X/sPp3OefTL93dwL/9XoYzfran/4VQpL87t3KMwNUFNN5XLmsdSWXnqJvGGvfP4BWqBYez+rM3T+H51AAcGv2YJbndtldVE6C1dRHVz6LuUB+HgqXTva+W+i/qNYqq8fwO57UCu4ZT8Kysy/gW7Cl4nGNvJI/uBu+vtrh4E5cuxWaC87i8LAjNGv51N/eMgqWrS38/kPaFTk7Ef/jXab8W64nudOoL4b1WmM8AXMxq2ODYL3MigIgiAIgiBs5nRbD2BC35raiTv0Qbpr/vyLL9AOK6RX2/zS8gAeHNULv7UHsF57AP/+EHkTgBunU4Ba9gQ9eQx50HYYRXOqgAL9RM98lx5AnjLADjs7z/ph3fnttI/Q3n03hdgI6acxIN88gElrTk5YuwYuf/dttPfcQ0/Csd7uHCx+6kvoRyqeP1a4iua7ADvtRB6xh48izwAX018n03GB+++/H+3c3uQ5Hq7nwmSs8A4czLannid45plnor1wW+NfMzzfTvM6r77marTzrfracsst0S5bROEClixZgvbGw36MFjh1H/Iy/ustenp/4AHykC/sT0/YQEUFeaSKdYPjMEJlq+ncwMEHHYz2jweQ7coDyHkN6LlLwD3zqD/efDPNj2EPYCLhPgEX683T+nJzgO6Xv/q/X6EFBurZjH++6160f5r5CVr2BgCVvcht0dFBrq3EKvKKsJcXuPUQmjP1wz3JW+ANf4F488bd3eofq/Q2/7j1P2hvmUueKp6bBRT1p2tQm/aYxFaR98m+rN515Elo996ePIERHw/gQXfSay157lX/QTSXMJ5wvcIpnUcuw+YUzUtq1XNIgV+NodBW555K3pUSvrhY3p5nlpLP+I9/JM/zjGryCvft586jrCyhPLKno8cKai+TJpFHG/jTYa6Xk3DTakhpf4oOkP2+blzXXkPznYEFbXTsa66l744Ik7cO4KoL6jxzIOm7vyCvM3DrLXpeVk9qP6VlFDqrwJo/2dhA7aR8ORXIrruRZ/Xu412PJrcJ7hl3PkGvqPvVO+68vN69KCB/mfZscl0kyt3r8ZpG3cdW0pzEsWNpjtgTPyUPJ9Di8QCu0t7X1mK37zL9MlS/3Obv+DF53oDth1LonCP/S56pLz7XHsABNK8N+OUvyMu+DTc37Z27W48qAabv9qGGwiMZhWH+C6TKRb9MoXQ15W/XXXdDe8+xdM20adZlef+L5D294nXyzgJV2gPYr4SuTez9DPR2vZ/19VQLRe2U6CodFPvVcy5GC1TrEGnsAfzPA3R9vuQd8mgDA3Q59OlPntsVK8lLmLBeU8nletfh1BYm7UJB66FG+aqyZn08gNYIyJoiKvQZy+j8R916HdoqHeoHeP1MCn/Us4zKPsgBzS1vt981+duwGdwOCIIgCIIgCOtCt/cAJqzv97vrX2j57nusnmNxxa9cL8IP2I+m5zw1FtBT4J1Pu/MCfvsxrSbmp8mHDqM7/30nuOPxUfYy6UDQuXkAvxnfvPODAkd9tV8jph+gr51JXpbbbiNvRDTKMxUc55RTyAP4my3Iw+DwiquIz+PCBn6C6C7MrqWnZPbAdURcl0eR9vT+fRk98U5+ezLaPrWuB/CII45Ae+0eNLfnaz1J57A73LlKdXX0RH/WAHriO/dcegUft1XgX/8i79Xfl9FcD/YSfnD8z9ACvPD1Zb2q89prr0X7ZbnrseC2uV+C0r7ffvuh3XWMOz+qqIg8N3v/5ya0DQ10vH0tDwqvIq/UT/I8j+zRZvIoAuzRevpUmqs0sjd5OfBb7oB67pbbUd1Mr9aXEH66/vkb5DH55BPy4AGTRpBH88c/Jg/mhHrylPXu487VvKuR9uc5ke3aC7/lOHdl/71Hk/djyRJafXvc0+QRZy8CML6G5j/97mKa+0TP8wr3gbyTu50d/rbX/D+rqC396c9/Rtuul+Vtu+22aIE7DiPv3vz55Kk9+znywnJZAFtXk5fwt5dcgXYn/FddoiwP6Z56deGChQvQFurr1267k5cF+NvBx6FduICOfeIz5O22875XBV0Tr7qEron8+q8O68JzwIMUFP/LL8mLdmQ5zX2+8MIL0QJDi+j68t9HabXu5Z/SfDj2KAPPn0Zta3gvyl8pDz3YHgv2AGrzUAt5djiYP1Chr3c3XH0D2l3si5S+DrfobdpSNB9u39vIEwMsWUpteW+9RvTCn1M++vcgDxFw5z0UPeHmxbTSOaXn1j53jOtN22EsjQDRGRzn9seeRHvJ1LfQAsW6zx0UoGNfdBF5bcqtEZl//5u8ufespFeV8p/Ye075CVpgx5Hk4WVv4/Mv0Dy466eQNx/geYv/OZTqffBgWsk8sFA3WkVhhM6776N3oeX5qQf0dFe5XnYh9QO6aqm/iXp0bN973WvbokWL0O4Wof549k8orVtrjydw553U1/66UK9C117dh350NlpgJx3Mm7vRAy+QB/CyD9x8hfXrTHdupUbJ16gBvWnkALjjDrqO3qKv2VyGz59Ir5IEthtOZcglv7Kern//eoj6ILDP3nuj3XUkXUOWL6MSP+YV95V7c+aQ1/340dqTdxrlndZcEy3N1B/3vJeun7YH8Gj9IorLzqbr56gO3a+tyeptRXRtX9VMfWTff5AHkCNAAG/+nF5NO0xffws44LfVn9J2+BBF9k/rzrfdXxAEQRAEQdjEkBtAQRAEQRCEPKPb3wDC0IyrNArcwaBAMECy/ssFmLgL4uOk1DFBWajvUd8nMGQLgsmfLE0wGEQJ/gzoUYrabcJY0paDjUaP6I1avHgRqr2tHTVixAijA/Y4AMXM/vprFAz7siCECuiggw5G9VTVAYKBGdZee+2FCgVDKBieA61YscKIyaj6BYVCalslbo8gbusnnHAC6rhddkWNqC41gpAhoPr6OhSz7777Go0uK0cNLYqifnjggShYCMOqb6hHQQgJEIzWuRMM1gb0F1JxIIAa0acPCoZ4QLAIhFWsyg00KBpBwdCvPfwLzJo5CxWPx1FchoceeqhRZaGD2nJEfxQMkdrDpEBdXR1q9orlKAN0J6800LW83WvGjJkorhMuLwhYzKpSBQXaduRg1Hbbb4/i+gPBBH/QorplKAYWJ7FgyB+USqZQFRUVqMMPPcKoRqUPNG5Yb9SwocNQXF6g1rY2VFxlDgSDbaDFi5dYWozic8L0AtDYorARDHSC9t57b1RlVRUKwoOwYGESCK66uV15KSwRKBaLGUGoGVBUHQXkBwzzgebOnYvifgXifrTjDjuitulRhoKBada+Kn8gCGUCSqo2CZqp2hsLqh/E+eHysQkEgihuj6NKClCDVRtgTZp0ACqi+gCIgWFDFgOTFUA11TWoRCJhxMALC0DDyqKo4kiBUSKt+pcdYFpjX0u4qaukoRYtWoiqq1fXNS3eltvvhF69ULCUjrXPPvugYPEkKKnaKQimerD4XFyGTFBd31ipVBJ14EEHobbp3QcFA8CsHXbYHsXpioRVWSqtXLHSiK9AMFAK6lFdjbro3PON9h47DgVrzkBDBlWhtpmwjVE8nkDVqWsoCKYAgOxwY3wt8msTnYBpY3rqGMNpjaprH6hHTQ0qlVL9Xau1tQXlLbvvEs8lTxAEQRAEQdjc6fY3gHCzzUqr5KLUExhI3Y+j+I4ZZIDJkvC0Bh+VQuq5hBXJBFBhLYjja8XyJdSTO4ofadYTvvNn+cKPnlrpYMqIyahnHFDnIyoFtAz8TJQ/FMVJ0TYSPD+z/vvUM6ivPpuGqowWoX6922FG4EMCwRRh0KyVC1GNwaBRurIKNbcwgXo1nkI9qtoH67NwO6qkvAzVHutALWutNWKSgTAqHYygQq1Jo60Gj0IdNnwkqlxVLwie9VkL589FOR3qxErFwWLU7v0GGvHTOywBAU3s2QtVUVxqFA2EUHNXrUZBsAcK+KBg1xj0ARCshvKIvTPsYYiofgOKqh1YpW1pFHuWTBO1MvT5ooWoBvXoDRpeVYnaqrynkXk810AYDFDvSKHR6lg76osF81C+cH4YfaFIqjSxZi1bjmpIqvQojSqqQo2LVhgF25MktTto28HDUTXqSsOC5USgr5cuQxng3WmsjCo5pbT6DBpb1gM1QpUei9PM5V0ULkQVBKJGzckYak2mA8V94OvVi41WtsRQobJq1OLqYtTT6lrCejHehJqabEAVFBajOmIJo/n1q1EQWIWjzSD2RdtDS2sMlVTthlVeWobiNupkVGNgBVTqlSBQB2juyqWodlUfrGBBMWrHkSNQsAABxMfDdl/dA9W3ohfKaVedSenzZYuNwDcPglSj1PUXBAtyWL2KClFjKspR3J7Z0woaW1OFKi8vRSVUfYCWrlhkxPUC68FQqr2CUqG4UVIr2hFDcRtLqkbAMl96CKlyNYKflbjLzVm2FNXY0m4UKixB7Tp4MAqWEoG4rYG269sXNbhHf1SwI4VaXtdoxG2Bk8V/o1vaWo2C4TBqQo/eKD4+LHlhVarKBkWCYVSsvQOVUNciFrcJLsyQKg4Q/CVkvbNqDerWeQtR//hqLmrB4pVGocIyVHNrO2qN2hPU1ggXJiKQVPcZoHQGxfcMdN/gqQT4DqTvQUDcNkpUNwcVFZShAumwUWs8huLds3PC2rBYqRYEQRAEQRDygW5/AxhSjy4seP0TCJafg3i+TEhlg2XwPIFCQFUWzysIhoKoUDiE8kVth/oe4XkmICadSqOEtcAPSPqRfG5Ti9G7776LCofCqK3Hb43afvwoo5jaF8S0tKqnVSV77kpHezvqhhtuQF122aWoSy91dccdd6BgeT+ora0d1a72YzHwqicQz2HiOgb1qOmBYncEzEex56QAPIcqpPIEgnA3IHt+H8PeubKyMlRJaYkR94eW5mYUPPfisy+4C/T5c8G7aSadNuK5M2YblV+USj+ruakJxfCcS+gFLPcDUVlViSouKjbKqIICJRMJFMNdGbsznx/evM5vX1ckkhmj1tY2VErVB4jn5UGwEZYDL5fXL5gHqqqqUKWlZUY8P4/bFJOVHg3PT+Y5v1l5ZxeOBkKZgPg6BlobdvvjOmHg9ZKgSy692OjSyy5DcVvn+Xb2dZTbSyf8Mqbh+dbc5vA6rPNq4H1BGi4DzoM9v5T/HvDcNMiZp6s4JUVRFASJ5kDRAAQBZkHPBPG57DSyeC4Yn4u3tamuqkBx++W5oFl1oLYDefuMHzzX3e9cXrif2X2P4eYDr8oDcf8A8bUDAkBzEGiA0wcqLAiTilTelXj+KgSXZ0FrAHFaudzs+a6mbes2y9cmG97W5Ef36bD6O81ir5p2splLyR2PP2904x9vRP31r39D/fnPf0bB6yVZENqHw/sAqlfRf1YgZ+6X64RKN8uUo04rt1nOF4jnAhrgfOt6znUE6kgQBEEQBEHII7rPDaC6A7bFT0h8lw+qqCxDBQIZVEesDdXc3mRkgBe4K/G+rY1NRulMChWJqKcIpeqqahQ8K7FMArTgtSwo+Kzl3cbszF4FpSBLfY9Sv/YqF5IqvaAMPDUodQk/bmyu2GWu1VJISqh8g6588xGjdwvWoHZKFaOu2OsQFL65SqughcRfJSIpVDCdMAo5SdS40YNRW4wahNq3r6t9+gxEndBjCOr46oGo3uFiIyYWLMxSKB0wCqszgTh/AfVgCNLTXVCpcAZVmEyjoskUyoEXuGtBM8hSQvUdUEo9XbPSpIzqKCBuxtg4vQfwwaqGLFnJcJKBBAqeb/EZV694T4VCRomCNEmXfWEshMryuHlOEoinUJmOuBFfH1SmSBpIPsus1NMyeWZ3hBK8OhAUD6dRBTFSVno8nTgFT/JKsUTcKKDyBuJkMzSrl+SmlZRSFwuQ+43Ccy64SoJSGVfgF7HFu4Qzqj1pFaj0gaLpJGpc396o7YcPNdp54EDULoMGoY6qGoI6dcCWRmNUeweBnxl9zVye6n8jk3iiuDCKCqtEsVpjHShu1+4VHxqjqgiQRpUkSdUvC2oPFFf5B3Eb43SB0iq/oEAbqTAVQSUK1Dm1YGopiOspE1R1pmS30aS69oIiBSUo3pa95qC4+gfEq2SZcCBoxPXCaU2p70D23xcWtwU+flidkRVSeQJ597HhquBz6hLMKsNMKokKJ9IonjsZUokzUoUDSieSqEBalaVSOKTqU4vhas+o9gDi+Xm2eE6/+oiyr22JkLoOgFR9gtKhMCqgrnMsGLMDzVX/gK5+4SHUr997zOidynbUsdvujvrNj85C7TBuvFGoXV3bQfq/QCaISkKhaXiqLrc1f1E5mw8q3Swuj4QqR1A8FkPZdRYNR1BmdywbVWOqXRhtYDb8EQVBEARBEIRujdwACoIgCIIg5Bnd9gaQXaaQQFZVVTUqkUyi2jvaURxoFWTQk7PhTXug2tpao2AwgOLgktU11Sg+J8isPIF3UIJgaANkuXUN9ncgeGeoVxsInjAqEJkUiYfk3v74c9Tnn7li9t5nb9QWlSUoM+Zjj/t4SKdSRjxB+ryfno/63U9/jrriovONrtS64oILUL+59DLUNtuMM2J4grMfvDDEpGst6QN4kjjvw8f1O7YdgJfFE655scO3pasJ06Z/aULRsJF34QpPIIdcsNwPRHtbG4onUNuTqHn/XOBrTEj1VRYH8uWy5PKyZg64O2rscmVx/fAwJMOLgEBeeB/ObuctcsPsr/MA8l5Djj32WNQ1P7nA6DcX/Qp11YWXo66+8Geoyy3tttP2KBeflHq+gvdXg8xCACUOXm3gfUCqDED8o1/b4gn1XJa8rQ0HH+Y6Ybjt44ID9TMIWpDbilQ70v2KpMpOiRdPcLe01drajkqn1XVDiRdpcdrt9HN/4IUifph6U5/dPYl1+XvgLRd7sSGXS2trK8rvXAyXM+eFF4WAOKRLV/uvDd7H3s9cA3QZ2GUIw7+gxnQ76sMPPkBxsG/QIYccjLrktCNQJ+61DWq7iRONeBEQt0c+F9wjrBeqnaCgXliaeDyJ6mhX51Sy4YVFXE+cju8S69IlCIIgCIIg5APd5wbQ3PaSChMk++ud+g1E9U9mUIuKAqgXF840Mk8QhWHUW621qA/bVxmVpYpQI3oORQ0vLUEVqz1ZtZEAaoE6MWhqMoZapJ4KWCZh8FlpdYg0K+kYfRprQy1RJQ3yhY+jlQmopzothgNQhgMhlD3BHrZyt3S/9x4X1c2Bae/e/9wcktQzofkvoKoZ9LL6DejKN59DBTrU77TGDh6NOmPfvVEQBAIDQfAHpUx5ClWhfgSNrOyNKoqEjdbU1qJSC1ahBqntQP0t9UyR6uNtKH4VlV8VFGfaUYXpNlR2KFTt04Q2Y8me2D6k3wBUWzSCqk0mUF+sWm3EQZ3rtWZ2tKFWNseM2tTRQCN69EBx8GhMbFplBsTlb2dEi5/E+cE3kEpoJY3iBerpV4knsquqI1l526qyJ6pHRwr1eesy1GdOi1Ea1gXA+gB97i/WrEQtUOXI6h2MoLbo2QdlsBZn2edFaezyHVxTiirNdKBmt9ehZqbajUw5aD5aMQ+1siBlVBgKooYOGIBieFeQmRAfIBUn0ij2bIPcwtME4p0USEdRTkp1CiXOXt+qXkaRaAbV3rEG1TF/NYpfSwYaqNVbq6UjgbJf18XthIOUQ88kwWeSA8HsrYD2PUJhVHUwZFSXSaCWqT1A2QWj/lHiNjaofz9UVZFjlOloQE1fNBvFxbTG0szWFtQSeIWdUkdxEWpsWS8jzjuXGV9zU9ECo9rWdtQXK5ehOMi3PZiwuL0dVddUiwqqdg8a2rO3Efdy3icRTKMy4ZBRSiUClITFJ0ocpsZNYdCJZApQoXRIK4xKBjKu1JYgLsMRQwajIkXFRk0qvaCPm+pQ8AJF0Bq1A2tGvB01t60W1VIaRFVXlhpxYGuuvmAGFqjAIpaEpSQqojKHUtuBbDKBBEolH8ULJVJJta8Wl8KClatRTck0amiq2OjQLXZE8aUevJOg+lVLjZykKlUlXpDF7RgWbzK8cKVDdSuvOsGjh6ofs3hxS11bM2pNi/pbolSmGjCrV3Epyq88GLpKuPq2QPkJgiAIgiAIeUT3vQHkRwiL8SPHofjl2DxG/vHUj42mTpuJqmuNoZ566ikUz3GwNWHCNigXPmnAWd7cgvrjDX9EcWDUyV9+YeRlzuoG1HXXXWd0zdXXoD6fNxvF8JyPtc378MJ5XZd5TZsrXBYg5vX33kLxi+5tdth+exSX3fKGNaiVK5cb8fxQZszoMSj7XBzQ98UXX0TVqe1Attfo1VdfR1155ZWox9+fglIPlK488PE5fbYM0FOV7MOMGaPSqMSBTJOpJOqtyW8Z8avtwAcDeuP1N1DJVMqIA6xvM34bVBaQBjsdPrC3RzvCzfybaCRqtHLlShR7ZPz697hxW6J4/7bWNtQrr75ipIvBWaMep0GTJ09G2fXEAZu3GLMFyhQYJxDkwTg6LcaNG4fiuYl1dXWo119/3YhpbE2jPvzwIxTPLwbx3OVRg0aiGIgQwuJ5VYw3EDzCmc8BbzYHDxli1KdPHxTzxhuqTSh93Z4yAscG6NNPZ6B++ctfou548mmjjvY0ih0dqsXif1lAnqx89ayoQvUAT7MWByZe3rwclYWOqcIelLFjx6Ds/fl6/u4776KWJhIoqE7W5LdUO1FqalbnUuLg/2NV/2Gx5wVSaxUdzgVj8by+l19+GbVa/R7E6QO99NJLqNa2VhS3n+HDhxtx+XLTLChUbV6J54GB+FwrVqxAcWgW0+G6+NNh9wduNrzL0CFDUVXVVUacxrffnoxalIqj2GMGeuGFF1BcX3zdGL/NNkZchlzujD3f0Ms3ZAXhvPhRXFyMMvMzk+o6qLVgwQIU09bcgZo6daoRlze/KCAX7PJlTLvhayb8bdfiOqhvaEA1tzSjevbsacRB+r1l913SuTYEQRAEQRCEzZpAJsvNsDHxPgN0vjfFVXeKx1+fjPac5+9HC3fvTEY9aQPwNAO0N8LMJ7Vvgvd2nMNL+qL91WWXox2ThhkSiqB79/+Hrz5D+89//hNtWwnOwnGGDRuKFnjnjAvRFoTQOD9/BWahOc7TTz+NFmgtpHv5nXbaCe3TR52KVp8RCXtqQD276E+wAJnSdMM0Ws0KrxkDMlF3p1NOPQXtb8bpFXkJvb96OtvUoDl/2XhbAgbH1MATN7D/PVRP06dPR+tUwcw7orQUZts4TmU7lQe8Pgtpo7YBbLvttmhvO/QYtOw9Oeu+e+iD4r333kO7uj+9KmnwYJgB6DhFZTVogdmzycsbnb0E7XbbUZ08edZZaG1ea6bXgl13/fVo5yTc12rttddeaO85+Ei0vF6syG4rOo0XPUft7nn1dA7U9nKDTQ/SaSzRXWTe3LloK1e4qy532WUXtP859gS05qFWWb48rO3pG8BAxgpaR+k4Fz/zEtpnn30WLbCqfy+0QwYPRnt8CaXxpKOPRgvAHB3g93+iurx9DT252/170OixaJv1K8hWzp2HFlbxMb/fZRLaU444CG0J17eVh7THExHk3a3JN4t1v77uhj+jfbievFPw+jxm0PjRaBsaYKal49Tp8rXT87ddDkZ7wuEHoAVvChCHyV+anR/8O9pZs2ahPbQ/XWd+dcElaIGtuGvopB/95CNo4TWHzLAope3aa65Bu5ePx+W6d+n6+fBDD6NdVkl10a8fzGIlagbT5zlz5qCtm/cV2kGDqP6Aj875NdqyIi40+6rGZJ9/hf75un/ciha4bw71q3POOQft78fujBZI6jyH9NU/EKTr+tWTX0ML3HfffWhbesFsRTeN0X6VaIGvvvoabdHClWjBsws8fuq5aIGCAmofLbqZ3Pr442iveG8KWgA8NUCoiSJODB1K9dRR7bYJPldZI1UwjFYBb55+EVqgpIJaAXfnqdOp3Rz+zF1ogaS+jveroHz07091cuOuh6AFhvWh3x15751ov5z2Jdode8EMTuKXF/8C7QQ+mc7f796h6wbw+OOPoV1USde2fn1hNqQqrwL3WrJ0CV3TChpopITL8LkT3DLkPpaAyBmKB/U16eeTn0ELFBXTMR89nv5+jh9J82LdXu44kz/T/eCp29Dy6v479jkKLXDEXrujXayb3RVXXIX2dZz1TAzW15t9d9oVLf99mG2NEiUS9FdknP57ecWvrkA7tDHt9Kmkeqpvo4a45z3/QDtvHl13gBNGUzlceubZaEdyv7YiKjQUU7t/XPfVSx+mvyt8nQf+d8SP0HKPyeXa+23pfHUQBEEQBEEQNmvkBlAQBEEQBCHP6L5DwBjHRGHNZOY3/fKW579JbuVXX30VLbBKv3sxFKJ722J42aSiVy8aggL+ffTpaMf0ponQ/RJ6uCbiOqFvryN39x/+8Ae0dTodkybR8BJw7z40tMMDIDfOmIH23//+N1qguYDcy0froa5/7bAPWj0ohcDychu/IeCbpk9De+utNHSS4XEkxamn0rDylVvtgBbDXACh7851/F3R5RAwxBgBE9Rjc4qEzuqke29GO306DYEky6rQAuzir2ij/WDyN2INAe+8Ew073XvcyWh183HeIYP889+3oH1uyUy0MPEcSPE4tCKqhwf36T0M7QXnn4/2QPw3m9dbaBj2mmuuRTsn4b7Leu99qJ3wEDCPKhTaxaPTSAN6qs3e8wDaR2Z8gBbg4YNAis4Fk7aB/QdsgRa44FxK4574r4LbY47NxzsE/Fgt5ePGG29EC3ypO0lbKw17H11IDfhPv/89WoAGyhxnQT1tc+oz/0XLw6JAi27bpn/r68TOO7vDhncdfixa7s3lSd2fuFIVnYaArTpk6nSaZyyhYcMLn6chQR7mB5rN4DxRFaEhyr333hstcMf+h6Gl31CYDMCaleLs/CANLX32GU094SHg315Mw6zA1kldMXp47agnaAgXFsEwY0qp3V9z9dVo/YaAOTT6bY8+hPaBz6eiTcTdBLXqEFRczkOraWjwvPPOQwv8vJCm0vDVKtzVELDuu7W67z76+ttogUsfp+vl/vvtj/axw+l6lkVGV5Buz5/jEgri1kdoCPihD7Pz0aaH3QBYVARsX0ZDuD//+c/RHhUpQgvwkDy8Fxi49Ykn0F42+Q20wLDhw9Huuy31n2eeob9BS3X/AgqL6RrQL0UHOuecn6C9pD/ta8PNrkk3o0OfvJ0+KHi4MhKnrZqaaNrDOxdfhxbYejgNnx56Fw2VcvvZTbcf4JeXXox2IvdrXU0fW9Md7nmKrh23fUjD8Wk9fAnvxGX4WjKxH/XUn+h8nRzFoFGEbqM8BPzA88+jvfTDV9ACQd0mHz+JhsS3HE5D2/YQ8Nuf0jX2kCf/g5bPfde+7pSRH+5OU1f4b+kLH1DeL3qW2gPAU0XCHbQVLMABdt7H7Z//+9//0E4so6lCV15xJdqhTWmnVzkVUm0zFdpe99L0FHsI+KSxW6G95Aya5jPS6tfMUt35/6j/ft8/i9J62o9PQwvcNJ6mifG0B33r8p3yPZxCEARBEARB6E5sUotAzCb6V3zn//4MupsGPllEnrvWVnoiG1xDTyvbb78dWmCEXtBhHr8i3nPDpHs6yeczaPLz8pU06XfX3XZDC/SM0FNJWruhYvrn997/BC3QHqfQnXvsQZNQeaK7/XoYjKFgwR4VgL0qC+voOLykPVDg7tNfT94eXk1PMPwUxp6CTYvOddEZN++89RdzaOJ1SzO8+E+VT8h9sucmng643yFB91GNJ3eP7Q1hoBVmYRD7bVRzaaVjPzGdfCjzF8xH6yRddyxP1D5sIi3+KCvV+/vUd4Oe2DxDe44h+ChTVUWenC0H0GRu3juY5TtmyKuS0N6xRz8lTwgwXz+pchkMHEjHO2Zr9xVeRZxGPjQ3m+xm2QVcjrRDWntn5iymvgg8N528eOydmaCf+rcfNx4tUMnZ1+dfqjMNoT2YLxYtQhuN0pP5jkPJ07rTdhPQAuSrUunQ+bEcxmvHLXoXLnS9/0Lt5Hn7bXdRwKwGmkzOHqY9B1F6dpvohtMxxejJn9UizHWrsZEmsPfR3ohhQ4egBYp0k9SDAs7HyyHAj+OsroVAJES1dhuMHTsCrbne2M45vT8PFLw0na6fs2bRtQ5o1p7V6mpaVHfIBBpdGFDDpasOw8fU+UmF7JMQIX0cbn8JHWbjiwXuJPxjbv8jWl6s9cgFNAkf6FNC31Wxq5//XEXtxknfPfHlp2i/1J6zOO+j4H55+ATyGvWqpGtB0E6yHj1qLaQK//eTtJjvt2+6C07696fFEQ+dSwsYOOTUxx99iBbgtrDfeOpjW42mhVgF9rm4Teqy47axXC82AN5//320i9tppKJYL5w6UF9bgJpyquEvl1A6IEwRUFHs1tPokdQmK02Lo5NRcBKCw/c8+yn97WKve9zymvfpSx7fw8dPRNuzXJ+jw/V+8rUtWUD+vMUryHs+r4XHMNR5ITSKYuIAKpcy7am1HJJOfQO5RD9eRv0CXtEGbNWXxwkcpwe8zlMR5GzppL65kP4WAHxtDVModbPgbYBeLAXMnEnXSN3lnOHDqbwKVX0F+NKu627ygqVo+f4CGFpBxxo2hNpG1GcE7hmHtr9ae+Yd7VG84gq3rR9eqUet9LnSrpPb4NbGhmFDH08QBEEQBEHo5myaHkB9Y92uret/0UFmFezM0Df1xtkHlPEPfIMe9p7b9QDa8xIA9zlGnZdLTh+Hf2enhzG/sz1BjMcD6LOFeYDnpyR7G/a/FLHnj9lMPYD2k+u6PMF4j+zX8EPm8Uu3IJ6LCuin0GYdLoibkX1c9jHy8yX/Dl6H5CWm6519jHZt8bG9zqsgeyYBPS81rbfisuA+AGTPUHPbs/ZzEl7PH5Nz4eoWyF4e/dhsP9Gzj4oPyfPgyK9NVOsKyej0tOgnYPs45PNyy4VnH1k+CKdY75+T54/xawz8nbat+nh2sZC/xU0P+UjcPglETSMg4/kR4XLg7/gaYtdfoSeNHK7E9VG7n831huvWRieWHRVxfRz72kazMN32zO3FTk+J59i+HkCTaTpZs64Uu3yOvfMvaL+YRvOc/3bUj9ECR+xGoT6K4rrUdB9MWufiOWVr9Ln42HZquDx5ZjD3Lx2li0jQD115APv2oxp+6Kc0h3BkGZWQXXbcFtj76nsuhitc10WCf1bwcbg/c93a/YHzyF3X7+8Dp60srVPCZYj/ZtOuz8pNzc4XH5t9i7x/1J7MqunQc2G53Lk9AXxsvgZwsdjh0HjqP425uPmzx3B4vwh/0Bs1WGXodaLxKVz/n1vODOcr67ZAH5PTYx+Xr6lcCn4ewOu+IG/u7bfTHM+dxtGI5KU/odBHwAT7fIq0lQ/G56tvxYY+niAIgiAIgtDN6UYewNzhJPPKoIwVcDGQce+6Ef7RzqY1rwHx7ILozeHVMgC8kJo+WBt7V9l69rEJ6Kcu33PlAp+f86GfqBFO0ya56jeb3F5w7fPcwk9dXTbnHI4d9pl44YWXaXG5w1vKGd0WM/AycEWXQTx1Hfp1QbOftQp+bXQqQ171CnC74+PoeU6cPsCbRjs9XaafWUuR2/0g0GkjfX778N5qNV5Ya19vWvUBTP8COiXZr9592tA3sQ7psQl4rzd+eNovX8a6zJdPesx+un7TPunhI5rrKJ/bPheXGdchu1Pt/HY+dCe8JR/g1aVWmfz5C5rjecsttEJy6xEUWBe4/P8uQ2tmvXFWs86tz5LUX/J10Pa6c7nqPJp2bSdQ95uWKF0D/qM9gJdPcVew9tMewMk6gPTAGgrEHIBX1nlI6/mYfK6c+hLXqR9cz36vK+Pfcd+1r0lrvYbY9a1J6ALxSyunja+RXIQ+m/KR3Tbmky9vPvyS6S2PgHvdWit2/+Ty4IrmstCr3AGTRvZxct5906OtOa7CU1bsxV3Z6gakPvYOiiAxbz7NN7ztGAoafeAu7nzOEP9d0W1UPICCIAiCIAjCBkduAAVBEARBEPKMTfIGEFzp6E4HL6wSDCew0MXr5/IGtyprHYAhGByGYcF5WWuB97G1weBzwzFZ+jtwZdvDd3mFX7l4Be3Dlt82ucDb8jlt9LFNG+0Kvb9ve9G/ywVINcgA+7MYaBcgT/r80tjV79aFrOOwGPjoOXyn9sv76DSjPJjy+j7gMrXTY+dNya7DdUobHwO2z3Vf3sdKj7kO8sWxC0zd6HNmwe2Ff8fn+pb45WuXrXdBQZBeEIRyYtU3NaA6A8NlLA1f+/2yrtNv8uyHzjMfFRaXgALqmKxgMIRi4EidjuY5V5fn9MJ5sAX7grie/eBtuL7s/dcFPoffvjD0C4Kv13JYbjad4OPa8gAj9iwD54fz1xWcLpgCwOL9+Zx8HEumTfJ3XaE2Q9nngF2s3fjHxsYGI3hpAGjY0GGoidtNRMHiL5ZJ6/fI93s2QRAEQRAEYaOzSS4CYewHhc0JuSvvmg1V71LOguBPLn0sl/7jPY7fPrx8YtFSCmZcWOgG3+pXQwHavzPsBOoFL4168cYdTz6G9trX6XVmQF8dDPmFM+mVeIN60s8Be+GV9m51et2gtkL+saqegvmsWUN25GAKgp3FRmgg0iYFQRAEQRDyDPEAdkPkrrxrNlS9SzkLgj+59LFc+o/3OH77cKBkO8Axw/t/L31Vh8Opg3ldiodefA7tXz54Cy3Ar4x85LhT0Q6s6YWWQ8gg4gHMa3Jqs353XdY8wu8LaZOCIAiCIAh5xibtARQEQRA2DuvjJexqnzQH3bdWnwa0W2RDeSq85+/quE0t9AKzVc3NaIFIhPyU/Svp5XhhEzje/jPKn8W/Imi44fHtlt/qbPEACoIgCIIgCN81cgMoCIIgCIKQZ8gQsCAIgrDObOghYN7Wb5sN7angc+RyXDs9/Mey8xtpv49UC5sNfnddMgQsCIIgCIIgfNeIB1AQBEHYeHj/An0PnpB18QD6u2v4O07sRnDfCMK3RDyAgiAIgiAIeYbcAAqCIAh5AXj+/GbrrTvg8ROvn7BpIzeAgiAIgiAIeYbcAAqCIAgbD3amiVNNELoGpp7a+pbIDaAgCIIgCEKeITeAgiAIgiAIeYbcAAqCIAiCIOQZcgMoCIIgCIKQZ0ggaEEQNm/8rnCy2GATw1uJUoGC8G0RD6AgCIIgCEKeITeAgiAIgiAIeYbcAAqCIAiCIOQZMgdQEARBEAQhzxAPoCAIgiAIQp4hN4CCIAiCIAh5htwACoIgCIIg5BlyAygIgiAIgpBnyCIQQRD88bkypH3j76a1JYI57Bf07JON3jgTImsj8X+Fb0Muf+2kjQl5gngABUEQBEEQ8gy5ARQE4Xsjo/9j+Gf8DgYjUGmSD/yrdIokCIIgrB9yAygIgiAIgpBnyBxAQRDWQlJbCz/HXMozaSrkM4kqkP2syXMC7W87tGUKtU1a5wxzkviyxeeyD+Q9vU9yhM0Pdgh3Vd2dPR5+DdrTVrW16XwcQdj0kHYsCIIgCIKQZ8gNoCAIgiAIQp4hQ8CCIKyFHIeAg2H9QZPSg3EBazDOMwTM43T1jU30QfHOoq/RptN0kl0GjEJb06MSLdDpidVvIYh3IxkCzgv4Dxk30ZRPW41o6zbHbx7g/eYtBGHTRNqxIAiCIAhCnrHZewDl6U0weFt6N/MMbbC26tejc8hr2pOCoPbEIfoy0RwiH0oC/yU+blyOtmdlT7TbONojaKeDD6VjO/+zdh7a/957L1pgUUsz2vr6OrT3HHYe2mP22g4t8F5rG1r2Ek4sK0VrU5rQJwvp0tvIHT67VHNDrlHfgI/nt1a3rSfffBPtHTM+QgtUVpIX+W8/PBrtwKoqtEV2LCHtsU57vNVSF8LmirRtQRAEQRCEPEM8gEL+IB7ALunSA6hp0vP9Hnj8MbTA7a88g3bcuHFo/33GL9AWFnnmBiqaGtrR7nvXDWhXr16NFkiWkzevoKAA7W0HnoW2proGLXDxn65BG4/F0P761JPR7jVhAlogktQFENSZ3sgdXjyA3wG2B1BXc6MutFsfexTtjZNfQgtU11Sjffxsapuj+vRBW5C05rlqj7F4AIV8Qdq2IAiCIAhCnrFpeQDX51HaD89trz2fifG+ht7vTtmbHLmb3ojk0Iq98Yr9nGKd6tD3uJ6a9zlQKofWEPIeO5cVrT6H9bZfb9v1I+izwLdTPuxz6d/N1CuDr7r6SrTAy21L0IYjND/w5RMuRbvt2NFogbi2r7z7GdrjXrsLbTjM6zId57djd0N7yCGHoO0Xopw8/uIbaIHzX/sf2lCQEnfBlrugvfDkE9ACxV5Ppk+hhVKewrdXLK8Nv01y2G29rls5ncvnwJnsvHLAbRvfuvfiXditrU3Ie3q/vhLimu+CdFR/0PgeR1vG3kbnsZ6Mc9sTT6K99v2X0QIVlRVoXzzz/9CO7NkDbYFdFlxWnjJL+/S5oDeNvq8u9JRa0K9neupLW5ug98tOX/jhk+hOR/fbRsgnpAUIgiAIgiDkGXIDKAiCIAiCkGfIDaCw2QOTHFCe/74LYEYF6js8xwYHkukr+EejvytzwqhtJ25rBIs2QKNGjkT1798fBQNgLBhVAy1fthyVSCRQhUWFRnvsvgeqdyiEggEz0JZbbmnUp3dvVFlZGWrChAkoG7f06T8hv+A+mLbEZNLqd0oGWDDEgq+tXwnC5o7cAAqCIAiCIOQZ3WYRSOd5rp2T1aHDOvD8ZJ5Sa2/Jc3E5BmxXdDWV1nt2v+m7wkbCr8V65lvHrEnsXHe8WII3tee583dF2vrBc8N526ROSNqaNc7H5ObHU+CLc5m37R7GON+a9YHcpRIufEhvmoN+LZtnsusDt4Y6p5n3Ylui5C0znq5vJdX5ciWFcuGJ9oMK9FZWMjgf9740Ge0Vrz6Ctm+fvmiBh37yc7RDSikcTDnXs3WyxfVr0MZ0GJgRfXuhzSY7/wldG3aauV74u0Jt7QU1UU+b6rzqQZHDogteZ+DNjn1N8ZY9H5X3ATxLJUwe7BTwZz6O3cYZ7zk4m/a5snMFP3eujIT+LqC/49/Y+3oXKJk8WEXJUXvCukAoUBDBZcTtn8syYoco0guCvItA/jCF2hpQWUFt84mzqY2N60OBoa2jmHOZ/qBP5i0LxFMcKWsj/tvDaeXj2utNzHVBf2kiz/ieLBu7fDh0U0TvyLvb9e6tb0FgpE0IgiAIgiDkGd3eA5hMuM+QHWG6X00k6LEpoB8dOXAsUBShbRYtriW7fCnaokJ+xnecrbeg8BQR/ZjkPTfgLRT7aV3YyHTVYvUT+eoO93l78eLFaJc3N6KtqqKn/3GDB6MFSrQXgZ+cOUpIa0crfVAkdbsrLAffGHjeaOvPly5ACyxbRq9FG9CLXos2bPAwtKV2LAlOPzcq3QCTlseJo6PMWtOElvMQsDzjffuR92xcDzdQMmG3aCqQTFz3mSgdmF6oRsxfQh68RavoFWzcn0oScWfEiBH4ubqUEstn10WBtOpCi+vT9tH9MmOFxlheQPvf8wgFjb5pKoXo6NXL9eDdc9pP0fbrQSE6+ulz2NEz1njCt0TTHWiLom7/NqnkstIHaE266Zm2mOqspaUFbVmA8jxsGNUX0LNYVwLXS0B/4ADTgMcDGNenbGsjDyUQ098VFdM5ynV+5i1ln5XjzFm+EG2F9lRtPWwo2gLLU5t9JteL1NTi1mYkRD62oG7Ppfp6aMc25iJsa6WyS+nwPQErFI7Zz3xFZdfW7vaHlgTlMaL3rymitNc3kZcW+HzBXP2J2H7wKLSlFZ1f4dfaRgn7dOEitEB7O+Vt2xEj0daU68aWFcCZCrReJ/b2p55Ce4PtAaykV789ey6FgamsJL/5zI9nogUKC+m7HUYPQWsiFFnXEvY2mgLltmmVb0xXzPSFlPfmZnrFYVWN209HDh6I1njvuWlax2Fa2qie4nE6cLLUrafycBnapauXoeXA6hNHU1B2IBLiq5ogZOPT3ARBEARBEITNmW7jAfTOFYnwF/wUpngvTt6QW265Be37+ucfHnAAWqBfDb3i57bbbkPbkKAZE4WWB/CIUfRy+TOPPQ7tNvivwp7z453v43nSR9wHMWFjob08Tdor8/kiehL+5Us0xwxYuJC8Pc1B8liEtet3txp6CgcOPfRQtKcOGIO2Xbe/855+kD4ovp49G+22e+yPlr0Ktz9AQY0BWNkK1BSSa2C33Sm48c37HYbWpogdC9qLsMBqT8++/zHav3zwPNr6OvLO2c2yqJj8B+fvuA/aY/aldA1LedquIq4nJrVqx9S5bzxBHxSffvop2nkd1J9CetuxtXHzGrbTT/8x2kmDyDty2+OULuB/C6airarW5XHqT9B2dLizlc6960609Q3k9VoRIW+Y7SUcqPt6eXk52jt/fCHaunrXo3Tqg39Cm0pRZ71uD6q3H0zcES3AgY75TXSvOORBuePuO9ACL67+Gm1Se5J6tlKe+/Xrhxb416Gnoh09gL4rSutGYQeNTuvK0566KdpjdfPNN6MFvszQOQ466EC0vUqpTO+4w03P4ojrMQSOHbkF2nOOPREtMJHbi87XyzEql9v+Q9c6YGk7bbTTTjuh/eMee6G1WwT5GlXbuv3faN9dsxItrLJm/jPpSLTsoaJQ36puH3pIf3Kc+xdMQ8uvAPzhTrujvf/+B9AC0+vII87sVjMc7eUXXoAWWNFKXth//5vSM6WNRm1stiui6/q5556L9rgi14PITWiNvkTf/iS17d++73oAe/Ykj/wJR1C+XnvtNbSfL5mHFgjrSYg/qCHP+tlnUzueFC5Gi+i/EY06inuJ/iNwfyv1T+DBh+ia8dn8+WjjCfLcFRa7szi3Hr812psPoL9B1frvU7H115gdzee9SK+2++jDj9CO3HYHtMDee1Pf/9c//4a2pJhGJ57T82mB8iidN+r9S281YyE/8bmrEQRBEARBEDZn5AZQEARBEAQhz9ikhoBfbaThhN///vdop2uf9sCB7lBeax0NY7W20mTlTAkNNaWtsAEDGmm/M888k+xo/c5SGQLeNLBDBOlxkq9iNPR14x//iPapNe5E8hq9qKC0Hw1R8kTp9AwaogFOPZWG+67dg4bpWnT7O+JWGnIEZn31Fdr+o2n4hid3N8bdifE8fFqQpOFP3ubmA+n4wEH77YyWR/2C1ESdu6fR8YF//vMfaGdWUTvkocmINZu/tpYWOg1YQec455xz0J49YSJaRK/WSOlh71vvouGpX3/+JlqgpJiGuNqqyHZ00JApDAHz5eGXv/wl2v369kf7u5tpSBe4d9bbaDmky3O//C1aHu4FjrvxBrR8vNYaGpJLp91OF9YT2YuKKB0vXflntMuW0vfAEf+hYydTlK+/H3gS2iP3pKEwIGw1D+C0/9Jw7Icf0RAasLI/nSMcpnIpr6cKLylxhxafOvcKtAOraXFDLkPAb6yhhUa//S2lE5iphwtHjaLrTPNKKheeLgDU6pUhPNG/zwqq2wvOd4dKzxulJ/brS9PLCRoCvuqqq9ACi1to/wP0tJj/HExD5Dx6DPAQ8G9upOvoS4vnoLUDaj/94/PR6tFmp0HbX990k/7kOI8spQUUQ4fSwpmqAA01LlvqDuG2ldHQJgdjrlpBbWvPPfZACyxcRn117jxaNFE7mKYAAPE4lVGvVdRZtt12W7SPnHgaWoC7BJW849z5zNNor3rXbeNVVdT3S/TGTc30dyJRbpZhOCndpvouo+HcLbagYfhHdFkgEarnmG4Cy3QbP+72f6EFli6j/Bf07o22qpIWna2qX4EW4GvQz4fRBKTLL/gZ2iLrz05U5+tI3X7fffddtEO3dvs3h7d583Ua0p64Hf3uhZ/Q9AmgUC9cKfD0C/n7Jbh/TQRBEARBEIS8oNt4ADuF9uB4CgXuY8pzrfTUdsMfyZswp4yeT9vaXA/M70bvivaIIw5He88nU9A+/TQ9FQILdITXffbZF+3DexyE1o4wEQrYz8zw0N35Xtmb5JDcT383eAtaP6kj2oPzh1lfouXFP2VF7qIfnjh+Vj8K+zJzET19T/3kPbTAEYeTp4T3atfn3PdumpgOLFxIvpMeCZroP2YsLRj5y8HkhQLmL6AFJ2e+8Rja5maa4L5bgRvu5DeXXYJ2PP7rOPXkwHP2euDv9EExX08gP70HneO882hCepH11H7rv+9Ge9ci8mxxyJbnz3Sf/ku1x+L2Wgojc9OfyIPTGnRdDUN16JNr9z8YbX09+XsqYqqotYduz53Ja8mLAf52z/36k+P85+v30fbvR97Bt06n88Pr3Zhpy2ihwSuvvIL25jlfoGXPDPCX3fZGyxP2xw6lBQNfzXEn6v/gYfK0JHXMnNv3oUn0B+9O6QN4OcWbH9PillNfoHKyw5ycUkNhVo466ii0oVmUM/Y+AjttR55ejh4T5jKzPdApfUwdNuWlNmob1113HVpgunb18ijEpVuSl+boo49GC9z5OS36eeJxWsBQp918u+1G1zPgCb0wg/vDszqYz/XWueY1U9/Y/wc/QHvvvnSNs0c35min5ZW6LTyn28aWW7mLQN48jhb9BHWIlRXaXfTbv/4FLfCAXvjAIWdOiVJdnn322WiBaS3kyeRFMdN0KBz2dALHh6hv/PSnFAZoTYi8hADvNyVJnraq6mq0bxx/HlpgQA/ysPFSoTufpGv9bz+laz8Q1jFddkjRIolzzqFzVemFVABfO55sp7bKHsHnjz0dLbDLWApjw76825+gkDM3vfcSWoBDGz257wloJ0ygfa568x20wFM6VE1A/3275OKL0Z7Qg9o+out5nyfvQfvJJ5+g7V3tXkva22mk4cRe1Pd21v30wLFmaaOJXBP0Xkfd7iDkKXLHIgiCIAiCkGdsUjeA8ARvP8VDkFDQsKHDjI497ghU32gAtfdOu6Mg+C8Lnj5BDfX1KAYOzRI2LRoaGlBct2VlZUZj+g1GQbWCBg/qifrR4YcagV8CBH4XEPjFSfRieRAfOxqNosCDAxpcWWq01zZborbbbnsUhEIBLVu2zGjJ6joUp2fevIWopUuXGpWWlqIOPvgg1LAiBzWg0NUeu++OYlatWoVavmKFEZ9j2pfTUPAKNRAEe2ZxPrYfNBK17zY7oPbZcQdnj513RoG/BsTl5IddViDwtbB27tcb1bs3icvSBuaggbYfOhwFs/G84YK952CBn4rFdfj555+j0qk0CsLLsA468CDUhJ4DUHvvvhMKvH4sGBEAgQeFvSgIzDtlwZxPfvfXWoB5bCCYqwzi8h4QLDDac8IuqBJV5yDwFoLAg8wyGdOVCiF0QLwtexiBoLqIgQx6H5QHPk4mrcqSpcu1K2AOIwjCp4DAmwoaU1ZitGPfwahRo0aiwGMF4j4EOuSQQ1BjaopQ4yqrjMZvPR7F7ZbbDR8HxNmC1KJ80s77/2D/H6B26FOFGlteaDRp0iQUw2WxYOFCI25j8FcDNGPGDBR4GFnbbbcdCjx/7P0D9t9rVyNuh60tLag5c+agbCALIP67x/2Vr3WgLbcch7r0zJ+i9hq3DYrbbFa7FQQP0jwEQRAEQRDyjO5zA2ge31jqmQ5kEUiHUKFMBFVWF0dtVd7fqG/KQUXaSbD+E9TPKTRiWtvaUJ1OreTFbxt+8mQJ3xHegoYV2SzNwMoSVE00gJqTbjL615RnUe+0J1Cr1PYguy5hQaa1KNMJqC9BJcmQUbQ9jRpf0xe1fWEPFM6vYmm2HToKVeVEUQ0FGaOPl85FMR8t/BoViyWMiopKUPU9i1AwWxEEM41Y03pmUMlelaiVoSRqcXu7EcwQAn3ZuBy1KppCjYqUG21b0Q9VnMygymNJVJsTV2WTQhWof0FMKJAyiqaDqHDaQQVTAZRdZTATEpSJq2MqhdWxQAWhoFFbYyMKqsGqCicQTxiFVVpAoUwSxeeCGV4smJkG+qp+OapI/R40qLqX0d7Vw1AV6kQgfF8biF2dSrCwFwStjFoaf7IEReIWi6LzNoXxGGp0376okcECFMw+Y8GMRFQ8igqqNIGSrXGjtDoPiIFABSj1HSvgJFFORu0M8oHrJKjqDBRw0qigJQZqkWqSgEW0rGhHHNWzoBi1beUAVETtzuL8DQoWo0rbMqi+oVKjXfoOQ8FMPpBdLkMiBShOczKmykKpQ/URVmcg/WmV/YRRZWkJav8Bg1AwkxAEM+5YP+jbB9W/rAJVmEihpi9fZgSz0EHzl61CrWxYg4qofLCqK/uhZqjtQO+p9IIWq/phZXr1QdWXRFFftzehKOWklCpjUFT9zQOl2hKoHpmw0TF7/QAFsy9BZa0pFMz3M1IHs6b8uqjfdZKQV6jmJQiCIAiCIOQTcgMoCIIgCIKQZ2xSN4A8GdY7yTcSCRuZsQItnrTL+9j7hUMhlLCJAZPbWZqtx45H8UT7NY1rjJ597lnUNVdfjbr7yWdR9Q3NRsURB5ULECwYpJsY/WN+IHiSN090h+DKrLbWVhRTX1+HCoXCRrzt3/76V9Rlv/kN6pJrXEHYChBPhufFAk1Na4wgAAlKT4LnPmAvkilRPQTkhFUGQHqML6AuD/Sv6nP6v67wLjzgUSUQXGhAgaDqw0qmP+qJ9qD1gY/Dxwe1qzOCuAzhXayg4qJio5LSIMqs4eBFHRBVSMsejsMRNM5MF/A1yg94H7n9TnJ4hy0L9rD34uNEwuq6puUdAmZ4W/u8XC4GzgRoPfCmD+BzcL7C4SDKXoDA119uG5zOYDBk5L0O8z64nzoIh5kB4B3QoLQqNNbaSMN2WiF1DFBRcTGKj89VCiouLkEVqbyAUskkCsKMsbgIm1uaUVwG9qKqV199FfV/V/wadcUVV6CuvvoPRrzYq0P1WxAEhgbZ6WH4HCx7AU1NeTWKCURCqCz8Kk8QFG7PEgRBEARBEPKC7nMDyE8pXTytpJwEKhNKoVLBNCppybgB9FM8e0Di6qGIlVbHt8VPXPx0B/ICSfJK+J6wH4uV0uGAES1RyDh7qOd50K3HnYq6cOwuRnvHS1EfhltRf37vRdQZd/3VaLITR3GYk2Aqg+pQbcgrmjIPXjFKkh+RRAAVTQZRYbU9iyfsMxnVbkHGC6XE7bAgEkZVlJei+kULjAYUFKN+WNqXVEKqDEaMVHJRwdY0qtQpRBWqNBmp37t+KYV2i8HeEdWZQBDkHMTdK63Kxkj9BpTKkHghgd1XeI0M54snqNvbmEnr8FmJyajCYjkZlRuQzlkmmCTBdloRdTQQl3dhKoQqCUSNGL4G6MNlJcikR8v8zga+B2n8rkmBtEqFUsiJopiAKgiWC5WQ1+sD8pJRO4LUldD6j/pDRrUhkIHTrkRnUKhrKMosqHIVUD+Dsr9VUvlgRVPpLPHCHBv4CWTKGbx5KPWDViat6k+JAf8Vi3oaFJKqHKVMIISydjdwVWQy4GFWe6nfsbhcgio1INgNZOctkEyh1D9Z4joF8TnSEXV8pUQojSqIuSpJBVCRgiJUVU1P1HB1Ftb40grU/kU9UDvEwiiTByWmQG0PiqikgaoDBUYVKhcgA2fMT15y2UbYrIF2LwiCIAiCIOQR3fcGkB/LugBeMM4vGf8mTLBT0LeYcyR0LwL6P/Zq9O/bD/Wz0041ghfzg/bbdz8Uz/VZvHix0WuTX0Uxfl4X/q69vQMFPgvXb5FNKplC8T72nCeeK8RwIF149RSruLgIdemll6B+f8llqN9d9muj6664CnXlxZegrrvyStQO225pxPB8P277HFAXZDxCPnh/xz8HYI6g1oZmfZwS7DUBcTgYLu9QOIxKJJNGjJkD6D1prif2wPXthzdYsylM66tvC58/mUigDHw9VeKPfP3keXa21qVuu8rztyhKxDuvlPGbA+g9F6fLThvPCfQjmUiSVL8FcfnY8/u4uvhnntNoB6bmwNZ/vvIK1G9+eSnquqtcXfOrC1E33XAt6scnH4/iPKwtH6CQarAsdlwbvDsLQhfk1sMFQRAEQRCEzYbucwNoP/qA+DHVotOcnKxHaJZG7w/PeqBkSD3ZaYUC6ilKiecq8Z5wSJbQjbArxlM56pkY/4OQxRS2mOq7T9LVdmWlqKv2OhC1X8UQ1NJgyujLxlqUaS/hACqTdhUMhlGr2tpQ8Mp4UFq1MxYzfcViVG0mgSoNFxj1q+6JYob36IkKRUNGHYkYqnx1MwpeKAXazhK89h3EgWzHapWoMmLx69T6FFehSlMR1OfxOqNP000o7gc8VxY8C2Y+lipHULH6DCpUn1nhZADFAWtD6TTJ2l93R9P3TLBgVdisUAbmkaWNV4Orm+e6gcLJECqSDKNoVnAK4jYb1WgNKilGdYSCqLkrlhvNiKdRDWo7UJeA1w49d37KhoP3ptQ1jJUJBFE8d9QPbnfpsLoeKaUCAa2gUVCdDsSUBAOoYlWeLJ6rFneSKMZOz3z1M2hxph0VV+0cpSqKlVHpBMFASdZgSSZq5L0eJ8IxlA3klnKsywvm+ilRSZBikQwKUgviskDp/KgaRwUzqg8qmbmfSgy3NQ6QnShwVRdvRn3Z3IBao7YDNVv6un0NalV7EypTUoAaVVpjxC8WqCksQHH/6gh1GK1uq0WNUN+DxqtGCeL+CeqjcgrivstBsKGoWUw6lCGFSdFU0oi93S56b/tALK4Mlt82Ql5h/ckSBEEQBEEQ8gG5ARQEQRAEQcgzuu8NILupLTiILMPBPXkiLmhtBGEIRcudwN71PkL3hCfTg0KqkYBak22oN6e+g+IRJ5SGf0ymUigbXojBw0jeidcgDr66Yvly1DvvvYOCTsRqaG5BTf34YxRTUlJsNGDAABQzetQoVEG0wKi1tQX12muvoniYiod8QG+99wnq8iuuQD37wQeotMoai+FzBkOqDyjZi0Cef/45VIfaDqX2A6XaHWfh7CUoLjzOJ/dFkupLSl3h050Rv3LuCt7GbQMpkvodi8tnxIgRKF5Y09jYaPTKK6+gYJkEqLm5GbVgwQIjk2i4RnyL60Q6DenNdL7emOO7aedt7PJwBflXG2kKAqqtKBUWFhnx/suXLUO1qnoEmeFRpdfefx3FwYfNIiRVnizvufww9a/PuS7wtZuu36Su4HN4F6nY+0FyQe627sKrhGrnoDfffBPFbd0ulw9U3wFxv4hEIqiRI0ca8Tn6VfdA9enbB2UHZ/7wgw9Ryxc1oyDqEGhB42qj635/PeqWh+9HNaRiKKtJmHOZOmFhWyAJwreh614nCIIgCIIgbHYE1FNE93yMYO8FPJppno03or3hhhvQzm2n12ntt+++aIH/7nuY/gTP044zQ9/jXvunP6AF3qhdjHbrrbZC+9wJ56ClPYiwNYGa+OZ7ZfVsqj8J641fa+yqheoiv+C5R9G+/PLLaIfuuwtaYMI2E9B+/dU8tO+//z7agcva0AJnn3022tMnUJtoa6fWsPf9t6MF5s6di7a4JNvbseuuu+pPjrN06TK00+YtRNvS0oL28jFbowV+dvqZaM0yEN3wjn/YPRensa1PBdpx48ah7dULpqATH374Adrmrxag3XbbbdG+fNpFaJEQpXWG04726qt/h/a5RBNagF9P1n84pRFCJQFb1Dc6dXX1+PlXV/wK7fgQLAFxnD/cfSda4J9fk6ezX//+aN8+4Ty0vaoo7QAdxXHuf/45tFe+RfXUp3cftMALJ/0Y7ZBe9B1fAqZ+PUN/cpyD7/8vWg7l8s/9D0J71F57owVKtF21fDXa/e76J9pWXRdAbRWF4Rk6ZCja6Oo6tPar2h479WdoS0LUyIozOqyK7e1K6QuULudX26mcr7v+erTA9FZYbuA4Bx1Iab1rv0lo7UvMlzqWx+9u+j3a1+oo7Vtu5YbyefWo09BGo5Seep2MP/7tb/RBcdOaRWiLi4rQ7tOf2jN4npmPPvscLYQxARpblqMdPXoMWuD546k/hHW6VupzXXfzXfRBcf/CT9AOHjwE7ZTT6DpaWsw14DiUGse59aF70P75k8/QDho8CC3w9ilUzr3LqCztZSSPv/wi2nPffh0t18/jJ52EFpg4GJZHqb6G/6p0PUdt7LKPp6AFeL+SGPX5UaNon1B1GVpg2hfT0BY2wlIi1T97Ug99+SQqd6CyGpYXAVQgL015B+3JLzyGFgiFKR89+g1Eu8UWW6D9cs5MtMDChXR92Hr5CrTX6/ayV41bLrz6ZtJjVOZTp36EdsfiXmiBq666Cu2O+kLIf87X1SMr5CdyxyIIgiAIgpBnbFIewMeaIeiG49z4xxvRftVMT9YHHHAAWuDBA47Sn8iLMV3f4155PXk+gFeWkyeIPSav/fjnaPmUgHgANxK5eACtYk4n6Jc/f5mewCdPfhvtrBh5i20iYfKKsOfjhBET0QI/+fEpaNnfEtfOnj3/ext9UMyaNQvtttvREz3MLQJgThEDwZuBZAF5QXr1oqf1x046HS0wtJq8eBU67cEIPa0/i7OSiH/e+i+0768k715HB/0uHne3gflJwITe5Gm44ALypJwYZi+FC3vg3l9AXogzHnY9eO362C0Jek0ZBLAGxtY3Go/CT39K3p3TtoXAM47z29v/jRb41+xP0XJePzjtF2j71FShBTjUyl1PPoH2l689j7Zv335ogclnnYt2cM/eaLkHfvTVdP3JcX5wF3lJ2QP47x+Sx//YffdDCxR6yvWa2V+ivffee9ECC0Lk5UkkqaIrW8hzx20D+N8p56PdUXtwojl4AF9pIw/T737nXm9mtpNvatIk8vw9cNChaP08gL+67rdoX61dhZavUcDbJ5LnmE/frO2UT8mrBhz27H1o2QNUvZrqMhZz/WpH/+hHaOfMmYP2w08mo50wgTzlwKsnX4A2Qk3CqdXnuuIvt9IHxT1zySM1fPhwtB+eTe2vrAQCoxDk53Kcv95N7eWv2gM4eMhgtMD7Z1yMtncFFYLtAXz0BfLmnf7KC2i5fz17xhloge2GkueSe8Ztj9G14NLJ5GUG+gwjT+8+25CX+7nnnkXbhDNAieIS6rM1CepXPzn7J2h/NQiCuRBJ3f/S0ayXJzonv/qM/uQ4b7zxBtqWBJV9ggNyF7p/zIq0h/bPk+hv10E77oO2L/6bzf4P0zXoww+pvHcocvs3t7NdQlRR4gEU1gW5YxEEQRAEQcgzuo8H0JsK/tm6RV0ep6f2z/UclpYUPULz3CNgl0HWHApFY4K2+eQTmq8CrNIejz59yNOwx+jRaO0kwOvts5F75e+FXFpjwK4betJt0/aTWbPRTp5BXimgsZH8TxCcGBit6/uo7fZECxQXWa5mRSxGCfnBva7HY/p08kQdOR7CMDvOmafR3KB3n3Tn/yxcQD6Pvj1oHtv++++PdrveZsafk9TJD/NDOnfBoPvUXtdMbfSxD8k7M28eea3T2mMF8BylE/ahc/Tn+Ulpy4eivZQpXT60ztlxPl7CvhnHeXsKeU0XdpAXjD2A1R1xMwdtt912R9snRN6Rz2Z+hRb4upnKl70ak8bSPlE9Fwpg7/rsheTR/GQxzcMt0V4XYL8xECJXfaePw9TW0/w84NXZX6PlVzlO1P19eH93VTUEAbaBwMzAh1aaX/liKtr6Bkp7WSGdk+eLAodvQ9437vnpTtcE9Ts+uM5qXZzS9fHHdHygIUV1xiu/dx1CabaPxjMy3/2IvDxrknScigp3HuWBut2aUZHOyXEe/oTmhX72GXsFKX1bb+XOQf3hjjui/fwL8mivridvI7wqkNljS9q+qIBOBivQgU+mkTcVWNRM9cJpnKQ9peGAdmcqYvr802fTuaYtr0VbXe16h/cfSfkqKaD9LMeo85X2Un66lOYpFhaR522vcbosFFUl5WhNG9N98DPdxoBS7ZXcZjy1zQ8++BDth5+5fxfCETr/QdvTnN6dt6H5k25uAF3oad1XdZ91Z5c6zltTaP7u1CXUZ5uaqHbLCt15mDvqOvgh12kXvPkVtdsVK2gErNLyUu+www5oq61rhyDkCl/bBEEQBEEQhDxBbgAFQRAEQRDyjO4/BGzRpm9XaRCKArgC7PoHeBCDsxXXk2Fdp7k7WZiHGrIHnAgZAt5I5NIas4aAiWZdP3rOOr4TlqFgQW4b4Jp0B7wc875THpZt141r/3tuoQ+KaV/S8NdhW26D9ldnnoXWHXyEoWiCp4hz2yy38sXzs+l91i5xaxSHh524rfIQk51zTj8PonKeo1m5J+gNu1C8dNKYGUd0ywzeDwvwQBUM0nGZ8RG579nDYt600YBcdlq5r/F+NNjsnx9v7do9j4ciGW/egUI+gL4GtOgFGnY/50UpXL58bqsKfPLhTZlKGw8B67qM6QxymQKcV75e2e2O4TLkdsOD+HYTKefTc4F4f1bQsji3PLiW7Xzxd5xG3t2+jnJZ8Sk4ffZ11FuHFT7l066Pzu2G+4d9rmptOa/2Ubi98Pl5G7suvftx/rhuAf4dt0NvOQN8HHgnL8C/K/bJlyk1vVObVcB8bE4zW780V+gP/FfY7lf8ZbNuv1yGbs9125Q7uCwIuWNdOgRBEARBEIR8oPt6AP3wbuP3YJb1CKXgfex9PcdJ249UmmCng8u9cvfGU19Jq774Izd1/UTtBx+lVYcSOfCem9ECX2oP4PFjaBHIxedQKAoKgpENvKYM4HAMmYCn0SFrb1PsqQvpxQCODs7shKwGrt2WfGwT+sEvBIT3K/s9cez+5MwHdbrA8u8YPo592Uhll30mTPtnhaLgzXk/cy5rG+9Edm+aAb3wi0nphSYBa2MuO/6OPa3wGi1GXfjog7FcvtbFgF8zZsqVTBZ6d4P3ZwUfmg/HTkObEO/HNrtICe91yi89dr0qMhmfjQLZZRhIey+aaj/dR0z7zdBx7T8XAY8LG17M2Bm9v25HoXTnzFtrRjphys7TxrL6MNePTo7Zhz/YcBsz+bCOwwT1fnpbn6OonpudD78/o+b83J9seHvdKExSfa4TgVR2xjLW8Uwfk0Ugwnrg0zIFQRAEQRCEzZlN+wYQHnq8Wht+27KEzQ+7fuEBGgRPyyB4kFbSJkvupt/8gns+vNkJBDFelNyX1n/zcfwA7xV6sOBpHwSePxB4QljgRVAy52Dlgr09vOoMxD/r46L3jz93BXjNLHVKjy2TH885QbnA+2mZcrLw+w7gdGHaGE4PvPOM33vGrEu6GNjcs0tAFQvI73ed4G38lAvgCbIUUHn7JpkysOQtJ/6Z2zW2bc9/fvDvzD66LGx1BTjI0EnmqXesFxYDH+ErPq53H3s/lRYSfF6L1gEuH1vqHxL3IVsacOr5OSqz4ONASCcl33MIwnqgeoAgCIIgCIKQT3TfG0B4SPIKHnRs4VOeR9+0DwhybcnzI8rvG6H7klZ1ZAve0OUVTD+yZcMP5vA1/gq8X0owzcmrdCCNUh9RWW1LexpgxpSt9QXmi9lKR1T+PIJpXjjVi5UD6YDa16tIKEs4zwrm84HU/6AMS/3OFfzsyhc7fSDYzivvNj540+yHTqqROZ7l3UmHVR5Bqq5QQa0QfEfKSgsoF7z7KEHMYFt+eLeBecle5UJK5ThL6lhewYrwLKlC6qpvAOCk8sp7LnXoTvLin55s+dEpfWq/b5K374BUMrPkPS4e27uRn7jza/mlP6Xa5zepE9yZbUHUA0tZv9b/CcL64NMCBUEQBEEQhM0ZuQEUBEEQBEHIM+QGUNjsWZ9hEnuitVddAr/+hk02NJwuCEXxnUV1gnzr83yT1D8kQchDvEPB3yWmzwnCeiA3gIIgCIIgCHnGxgkEvaHOKA8+wnfM4hUr9CfHaWulF1kVFdFLnQb064s26ylqbW1b2qogCILQjRAPoCAIgiAIQp4hHkBBWE84vItvhA5vG5e2KgiCIHQjxAMoCIIgCIKQZ2wcD6AgbCrol9hnoV8TxV3HdxVeLr1KvIKCIAjCRkI8gIIgCIIgCHmG3AAKgiAIgiDkGTIELAhd4dc7vEO3flFfcxnelSFgQRAEYSMhHkBBEARBEIQ8QzyAgrCO5PKaJ3myEgRBELoz8ndKEARBEAQhz5AbQEEQBEEQhDxDbgAFQRAEQRDyDJkDKAiCIAiCkGeIB1AQBEEQBCHPkBtAQRAEQRCEPENuAAVBEARBEPIMuQEUBEEQBEHIM2QRiMIvsG93vzPeFNMsCIIgCEL3QO4ZBEEQBEEQ8gy5ARQEQRAEQcgz5AZQEARBEAQhz+g+cwAz3lltPrPcMp771YD+OUAG4dzwd365s7dfGxuqVHI5Vy540+NzXG+Jyd29IAiCIAh+yD2CIAiCIAhCniE3gIIgCIIgCHnG5nEDCMOjLMb7syAIgiAIgoCIB1AQBEEQBCHP6EaLQJL6g8YvVbwIJKBXQCS1DZFBcskNb9/VAg3vcXI5rt/xujoH4z12LvtYcBUGuFwEQRAEQRC6QDyAgiAIgiAIecam6QHkJCe1K6+QjC98HPt4fNvL3/k5zrzn9/7sx0b2AHo9geIRFARBEATBD/EACoIgCIIg5BndxwPoDWPsEwfaCWbfrzZqa2/aoS37E2u0tfcs0jatc57TXXAupbQOHkC72APevIY678SbmLT6lQ/Du2+2DsCuMr8uyPPPd4nfpeXbe6XXp+6/w3reQFfP9Abqq99dTjdUn9vYSJ8XBEZ6gyAIgiAIQp4hN4CCIAiCIAh5RvcdAs7oMZG09X3IjvfiOLPb29G+9NJLaIGPPv8UbXFJMdohVb3Qbrfd9miBfcdvqT9pcimBXLbxG8ZZy9BOrkPA076Yjnby+++g3W3X3dCOH7sFWiCVTKENhXX58O5rOfemz4YajpLnn02P9an777CeZQh4E0P6vCAw0hsEQRAEQRDyjG4UBkZbJqFt3H3ybCul+9UFLc1of/zgzWgXLFyIFljTQV7BSDiCNhiifYqKyCMI/OaA49Duv92OaEd5ItAg63NrnMNTPD/p+x2+gxx5Trvl6Hzg+TfQ/uF//0V70kknof39vvuiBfRuJr51XNuotvkBtxOuBC4Vl3QnL0ZYW5eA9jzzYoWUj+cjZJYYdUEm+9iJQOcapxZq4edk4ZVKvHgi2wmOcFdhIn7H4WLRpDw/Az5fdSLoc7XgY/GVZKZ2adtlVxkjW1VA5VLBv7KO1+HJW2Fa58xeOOI5f8K3n2Z/2amcAQ4pxfjkq1N9+BUQ79dV4eVSsN7z++zjzWuE98na15PojDcTCs9iOsenbXaC26H15yIdyj52sHOX65wPv1N58+6Ht746DZsovMfx5hPJIa+CkCdIbxAEQRAEQcgzur8H0HrQa9ABn2+57160f535LtqCggK0wMARw9HWVFMAmM+/+AJth54vCIxrp+0vu+xStAdU9UCb5dhZn1vjHJ70/TyAS1c36U9ETc9y/clx/vvKFLTXPngn2rPOPgvtb3baGS2wpIEevYNpOk6/miq0NlzNm29waG4onD/bHUHfpT1ewaDlG0rrBhjUNcPllQ507h7GA+jXdbh8u/AAcgo7+R+T1vGCfBwyfK6M5SXjuuRmy5tmeQDXEusoxce36PxNZ4wH0Mo7H0tPRXV+9/gDaD/68EO0wH5b0RzcM045Ea3ucVnV1MkD6A0OD6R05nTeEz4hkzI6JwFtv1MPIGPKRVt7Wz4VWz6ufU7v+Xl/6zhxvT9/ZfKVdRx9cK4fPw8gz6XmbYI+bmUvnnIH0h6XX5DbL7c5gOuH9/MUO2KnH7D7lelPekf+nZ3klE4H9zGzjd3D+Jh+CRCE/ER6gyAIgiAIQp7RfTyA2Q+TruPCeoh7LFGL9rprr0VbH6edBg8ahBa4+5RL0A4tQeNcNPl1tE8++SRaYE2EJiT98IcHor1vr8PQZpHQCViXJ9ccbqdj+nD2c/lht16PdumypWh3OuAotEBtLeX5w/emop04cSLann0q0QJvTyEv4Q76iff6S65COwT/JTZ3DyA7jDl3dtXwZ64eLnvbiWBKRa86D/L8IXuCnd6oVbdJ9sDYx+HNI/qs7IXyNG+Ez8npUp1Rf1Kfc6gnPibnh/e2z8Vp5G388s6YOWVMV0lIuRu3ay8Pb37o/25F++abb6IFTttmD7SXn3Uu2mG8u12+nkmrrs/ehc/BeeT82XmO6pIIdZmBbNjBpacMd4nt4GrXp+Cks8/S9l2WcR71fgm9sV0HfFo+dMCvwfhVmgezv7a+8Ea6vaV9vMHevwo+jlYTdJ/R0zyzPNv6MmzaXZALxjoee7U5y3YVmP20ZYL8C0B/5n7JSS/VVhAEf3K43AmCIAiCIAibE3IDKAiCIAiCkGdsUkPA13w+Ge0DD9Ak80AJLZY47LDD0QK/Hr8LWr6zfVkf+Krf0rAosDRWj3b48GFoJ5/6f2ijEWtcwsys1wnxGwPxllwOt9NxfZjGthb6oPjZc/eh/eijj9DWpfRqF0V5OeUxHKBxo5Se8NzQtBotUFhE2x89lBbAnH3W2Wi3cdzj5MsQMDcje4SIyaTptwE9WbzAKouUniwf1b9LJOiIkUjnJQTLEjT4tXTpMrSBBAfecacj9Cxwww4B7hZuM+ERPU5rMsaDaCodUapvrq8lS5agDRe5C5561fREy82Qj7e8w11UtHLFSrQZPczXowctvxhY7E4hMMPW3vbs11SsoV9mje4b/JsTnrgD7XvvvYcWOHbUdmgvOvMctKM5q9Y5MjqsSMAzDrsiRmGfgIWraEoEt+etBgxGW2ItZEjplKzLEDAvYLHXQ8T0GCePkPKaAju6CIfAqW2hUpxXS9M4evaiugFGFeuBUH1NSevjNLa5rXSZnv5RWEh9dkRfvb+Vnk6NOruYEL5sLV5M7aWpjd6YztcRYGgfPWVGp917WMB76AR3LAseuuV6/3L1CrTt7W1oga2r+qItL9NvYOeTWc0o5jmZXWtmDQkZQ9YQsN6fr6ic1AptBUHwx+cSIgiCIAiCIGzOdFsPIIeEsOeFH/v2Y2hffvkVtP1b6Wn5sssuQwuc1oueOPlxcHEZ2RtuuY0+KO5d+AnaAQMGoH3wVPJKDC2j0DFAGXs62EvkfQTNEe8rnkzkBOv7Rn0bvqKZPB1XfuC+2m7y2+T1bCmyXQEqn1vupD85zqRJk9D+MERenfDmflufsB7/I5TZv8/+AO3Lr1DbaO/phsLhV+UFPW6MSAN5R4Bx48ahvX6/Y9EydoCet2bRawZ/9+bTaGvr6tAWWVGVe/WiVw+evfsBaPceR4t27AU5XD0fN5E36/77yaP9YWYNWmD//fdHGy0id9E//vF3tBftcRBa4PSDKKA5H++ljz5Ge+P7T6AF6mopjTwjvkR7o87Y+Ui0wEHbktd8lKcP+i464FAfYTfPL835Cu1TTz2F9qVCWr7R0OiW74Ai6ohcPvvHyCN0+umnowWKdF9jL9bvp1JdvvXWW2iBOR2uNxCYWEr9/bDD3IVcJwwZi5YvbFW2u8ng6Zg+vFVPZffAg1Q/C/+/vfMAsKq4+vi8tn3ZpSy9d0UUFbFgBey9gbG3qDGa+CUmdmOPURNbbFGjUaOoiC0WVEClN+m997qVra9+c86Zc+/s5bE+EBR456d/ztu3t0zfO2fKNSsYDj+cNpAHMhpR/rzzzjtoS0yi2VtT3XQkLTa74Jj+aIfNIM/oZ59/jhZYGCd3Y8Bs0XL5fnTs5eeciRboZixnE5UepX5YQekPPDaeNo5fvGQJ2kDIGkIxHN2pE9qLhlD5OctH7YbtVOMUGzmNRiUeHzcSbX6+aVA1Qy6lujJuPL2m8r2x36C1Rxnax+n4q666Cu31bSgW7HUGnh1LYZ4+neqXr8C9x3nnUzk9N5fa5oSJfIlVNv/7yadov11Dr81s0aIF2gfOpk3zgXzzYgB3TEQQhH39UUEQBEEQBEHwsMd6ACOmh2d/PWDos2hnzJiBtk8uzWW544470QJn8sYQZv7OOuP5eHHoMPqg+eds2p6iUT7Ni3nlwsvQHtWFPAdATtT0h3nCz487DJKyXQ+g1d0uM0HmQy/+5D/mE8R1JtqaPOrJl5eTl+iKXu5G0P83+Eq0vfHfNCDMPiJNBqXLHWPI+/TvV2n+WbRNS7RArXk9YF6QvDLZOTQ/z7+ZfSg6748iL9hLF9+ElmfwDTNeP+CFF15AO6sxFU6eV2V7ADdt2oS2i9nr43e/+z3aizu7ZYuZsGU92vvvvx/t3Gw3Xof2Jc/hmnX0msOZs6gcPHERbQQOXHcSeUe+mEGbnb/4Im2/MqfQ3aAjaDxAkQzyuUQidI+Wxa5v/brrrkf7u4P6oWUXXCKQqOfNQfjVjBlu3/GD6eR5fPLJJ9HO7kreV9sLll9H520ppjQ/O0BzER97/HG0QJHxfr3zJXnGHhhDnh0OM1BZSB5MnmfWspyaL54zCTx77c1o+/XsiTbfzP2s/2qwH6/QIzfT/EnOnzVmh+2uXbuiBTaUUR7ydk3+ZuR9qrPmc/aJUTkZOHAQ2qGfvYs2yhsYazYXUoljD2DrNRS/W/7v/9ACl/Yk7xk32N9voXl+jzxM20gBE4N0TS6bdVHK97jZ3gjIryC/9pFHUhvy1kWU/3bqcMiGmry449P30RYVuXMbO3Unv/Zks+F3ZQHlQU62me+nydlMs1+bNaX8Hvbbu9G2LnDLxrOTyYP4yiuvoI1Y81yvvIratj/3oREP9gAuirqzajl/xm9ajJbr8itX34IW4Nx2QyYIgngABUEQBEEQ0ow91gMYNR5AdjgAx7z+NNr58+ejPSKf5v/cfTf1KoEBvIzPXG+T+fHlT8lDBPx9EvU4g0Hyjrx17kVoBx10IFqA3zXODpBkL8/3Ym7VMCa1uScLbDHTdP7zP9qs+rkv30ML7Lf//mivOIPmAvEK6B9WufN+Lr/8crQPH0EeIfY9uP3ofQv77Vb89qdxK1agnT17NtpYjjsHkIv4iAh5dGaZYxptdldSn3IKzdm7a+BZaCtM/lz0LnmdgfnzF6A9O5/y5JprrkHrC7k5/9xzz6H9dDPlT1+zcffIS65FC/DRX1dWoXU8gM1cL1Z2DvkqupbQnLf9TTn4zQk0nwzoYFb0nvAihXHZ8mVo+wbdFZ889ypklkS+/C+aC7sw6t6LV55+/Ovfom3dhNzmhVBY2XPkbBa8bZ9x8VbyVi03efDAZJq7N3cuzckCBpp5eTxXr1ctXbd3D9eb9nEFrSJ9+KGH0a4yS0A7dqSVvsDfzyCP0Nq1tGr2oe/IS8jzMYGB7WmO2+03kiewD5cXq9zEg95mj+5lx254NV3z0Uf/hnZ5iNLM9jb+vmt3tAMGDED77Pc0v2/cONqcHahpSolfWUkTk2/qSKv1h5g5eMAbxov7ySc0v7TWbKfM3ixg6DlnmE8E+f+U+ucr/zSflMqppnudcTodGymgvB3+Ac2fBl5aRR479hKO+jV5GTub12cCVDKV+mAkzeu7fhx5Am2v7v7F5Gn+1cUXo+3VgUZk3n2XPJzAsHVUJpnPhvwO7VG9aAcGYHQ13e2vj/wV7cQI7dIA8Pzm9wfU36z/7RLyjANPPf0U2vJaSt9LL6W5f/f0Pg4twFO6k23mIAjpingABUEQBEEQ0gx5ABQEQRAEQUgz9vhFIPaOH8e9QUNd8+bNQ9s3myYk/+Uv7ibP3iHgjebHN0Z8QR80fxtLi0AiZoL0B7+irSgGHHgAWsDvSZVdPQRsz0GnwSyl/v0eDe+++wNtiwDceCO9O3VI+4PRDp8zBu3f/0MT/oETTjgB7T9OoyHJoLn4tlsY73vwcHCl6cpwnN1lEDqfjb30Y0rfKVPpvcqHFLhbxf7+97RY4+QQbYkxYhoNyV3x8b/QAkEzQf/FIbeiHdizHVq7qHw6kyai3/QmDUsVFtL1vrroN2iBHl1p+6GvKmjI6sGHHkQ73dq5lqvlA2eci/bMPjRhn84kvp1JC0Muf++/aPmcW6xh4qtPpLLBYRw2czzaxz5wtxriBRXPnkzDhkMG0dAZpGUiRgswnM2ZY8ZahZ034OV7DHn/NbRjrWHQIYceg/a+y2gItw3+6+YNcN93VEfff58WHGzJo4URf/gDbdQO3NKchne5Wfjtt1+h5S1ogO4+Gj790630XvAhrU2quWtJUhoC/rCmFO0TZqHKVDOE260bb8ii1Oe/pmFmjs9wk16PPvooWmBxDQ3j8/Ykn/+Wzunkd2so1Wql7vgrnbdqM937IGtayqeXXYKW17LQEWDd0t7YbCLftH4zqGaWu5E/6/l70PJClf+e+Su0Aw89DC1AJULnxTc0nH+DGQK2/1zc3Ie2qrnlnAvR8rt3P5tHi/SAW957Ay0vQnnlmAvQnnPi0WgB2rBGqcdfpukJ7y6ibbqAA3pTmzzyHFqokmO23Xl6EdVh4IUXqC3051B63n3XXWgvznFriwwBC8K22O2dIAiCIAiCkAbssQ+A0F9E6R4bK+GL1xOu1IDPiZgjB+hxakGHjzp9zhX1tUgx8x//7B4BPV0SXwA+un1fgq/Nss9neQFPIgj64yyYyg+6ZfDFqDeuu8vRJe0PRsH0bNCl3Y5AvXrN7Y4eOOVyVEiHArSvUy+NdXRB+XWkLP0lCDaJYA0fNw01buIEVCQWQ/2m9yBHJ4UKUVCCQCuXL0XVhusc5TbKR4VaN0Ut0seBwIPBihRkoHJy8lA1NXWoykjEERPWBQqUCIRQwaqIoy7NWqOu7nQ4CpZKgCB3WZtWbEFFda6DsvObok5u284RLIUBge8JdH6L/VGZzfIdhTN9qDnlG1DgkWavNHj+6r2aDT6CuEJowbIAELzJDeSPxFGZKuAoW0cUBBvy0KY8BPhsWFMr1qM2FWagDstpgTquWQdHefpkUCN9X1D/rj1Q7UJZjjaFwqipG5agmFjAlY6VR8kaQ/o2nvChYLsf0P7tOzuCZQ+ggK7IoBb+IKpZPMNRoLYO1adrd1Q3fwiViNY5Al8VqHNGEFWhSyEIPNuscCSBYsDJB+qkshxV6y9AM2tJH0drUWNKljvKDmagwlU1qOqqKhTWJyOKOVyf/gtFddui1SiU4+isjn1QXLbA9wjqHCh0lBXKQMWjUVSVP4YC3yMLNpMBDWy3HyrLH3C0ec161A+RchQsFwHNXr3aUWkijuqZ3wzVLacJyo5QQFdqkPUVShDSGajjgiAIgiAIQhqxVz0AxuJxFBPQPUSQz+9z5MU4KVQ4HHbEwPYXoITuPYIagr0ufD23H75z8PVA7HWCzSVAB3bu6Ii/Y7IzQ6jDevZ2lO3XPXqtqA4VaFeEb28B5vTgvB5295lEhe2YWaNHj0b5dVkBwWvfQAMG9HfEgH8OtHXrVhRs+cGqqalBPf3006h7H30Cdfdjjzt67bV/o2KxGArmWYH4eiBme2UWaN26NSo/349ijzR7fUDVVdUovkcoFETl5eU6ghlTIJMsKic3h5Sd7SgWjaJKS0tRnAbkI+EzPXCA0E1OwJZJIH/Aj7LhusueJQb2eGZxPOLxGConR4cP5Pc7ci5gXDj5efmoYCjkyK+PA1VVVqJ+KtFIBAVzQEEZIV0ejBxMuGDPaRDMlfPKSzAQdJQKXF5gj3oQzLkDLVq3wdGzr76DeuCBh1B33XUX6qWX/uWI0xk2+Sb5UZy0IIZ/l4jrOGg1BJfLeCzuSscbxCRLC75nly5dUFlZ2Y5gE3fQmjVrUPByQdCKFSsccfnt2KkjqkjloBw3Hwhu2XDwBSHtsOu6IAiCIAiCkAbsOQ+APt1Ns2VgDw+oUPd+Qbm6iw1S4aptxaC3wO94M0rrah2pgO4KavmDuterFczUvXAtuCvLCUaUxHN84E1LLOeXRvCueK88hzj+FNuTk6ODA8rU9wPB6+JYsB0wiDuwECRQSPeuWXn6F6AsfWWQ12u418ORNkqWvtX5pIROXNDfx37taGxkM+rg2izU7/qeiGocUo4ydbEA8Ry1kkgNKhHU1zOK+eOosupS1Ibi9ahwaZmjrGgc1U/log6NZaOSkfDXouL+alSGLqmsooIclC6eKI6XDqKjzeEyVCBWh8rRZRrVqIkjTjY+x5+TgVJB/a1RXCckqK6mBuUQtW4Mq39B+iOIvwaZrxxPTmUwgarS6cryxRMoPoYLtE/nHasyFkbV6UoByg9loWC7Yla9iqOVk5GJ4vmHIJ6zV6fzAaS/QvH8W9A2mPAkA17ZBvL5gqhAIOSIietIgbitsucXBhJRlD8eRjFxn98V/KwFKQTy6UINUgndehnFEgkUvIUP9E1NMeqPb77o6NVZo1CzsytRh/fojTqyp6tQfi4qoq+B0g0dCJo0lv4a5dPhBgXiOh5aQR1JVkw3iCAOuyMdfxbspmDLmb9twffq1LolqkvHto4qK0pQMytJPO920+ZSR6FMHR+tY9v1QsHrAfAVAXaEIG9BgiA4QL0TBEEQBEEQ0gh5ABQEQRAEQUgz9tgHQPbY2yM+LVu2QgWDIVRVdRVq/br1jphIOIaK6s+gsrJSRzwxmSeZt23bFsXDxSAnADyu4TNqiGSBZvHvDM5wCf5kMPfw6+NZsDYFpX8F4nN4e456W3SkIyZhYDAONH3pOtSYMWMd8eKfgw48CHVUj04op3CADDAdH8QLJCKRiCN4DyrojjvuQD3z+N9R8C5f1j333ou6++57UI899hjq0EMPdMTwYgXGnZTv22ayPOe/DS9O4cUfXK55MQfIszZGbd0aQfGCFlAoFEIVFBSiOC0xIfjGfAGDHVYvvFjB1jaY6wWzXHH6MrxYASZ2sLzUVFejbKp1nEC5uTkoSGEQR8WbjqmyvfgCfI9k+PU5IJ/Oa1AyTHI4OOdY8paJMWPGoJYvX+aoXft2qFtvvRX1wNVXoq658nJHuTk6XbRgc2aQ36fLISz00Nf0pg8vAgkEAqiG8J6bDL4exxfEbW5Rrg/VsVMnRyHdzoNWrlyFWrF5HapK5zkrJzcXxe140nA0lEGCkKZIlRAEQRAEQUgzfpEHQPZi2VJ+/a+lrHgCxQsaQH1bdUC1jAVRqwr8qNFbljvizUVj2QHUFBVFTVy/3pGvOopqXdgc1Tm3EMUb2oLqQqSwvjFog+78gjZZiujkA8UVLCAJqq36eFCJ7taySo0q9Pcgji/3UrGnqn9fTxa6s4ziSdTwBisQXwelzwGlDVBqWTpNQQu0Af3zm49QtaUVjlo3bob67Ylno3jjWVjjwIrpTAeZy6mWzVug2OsCcjyJvsaovvo40DGJoKNjQyFU2+wgqre+GChflxcWw4soOP/sDc0TiSiKCcVIkM2slq2KUJGMOtTGynWoVZVVjrg+wGvDQCtrq1BltSWOIoEwqkt2Y1RLuLYWAgUUxPDPsCWIEXsZ63SgQLyQIaoLJysR1N9pOWXWnG7TPdQYVVhSh1pQvhm1IlrnyJnUb1hdUYaq0nnIahTMRLUqaIpiAtGEo23gRLXwevx4w/iEbp9YXjh+nLd2/vLvmEDU50gHG+WLZ6D88Rgp5orTkPN0YUkZqtgXcHR2qz6oc7OboQp1VEFN19U6qqirQUWDPpRT/vQ1WRweXowGRRGLY72VNPVjxO10ZszvyL0SFPyAisTiKPDZsnjzdubgNl0cFenWGDRnazFq5OK5KF9lxFHPNp1QB7Rqi+INqeuNwHAwBEFwkCohCIIgCIKQZuyxD4C8GazNfvvvj+K5QrFoDDV12jRHyzZUoLjD9/Wor1HwwntWIBhEde/eA+XtJIJKInHUM6+/ifrL3/6Kmrd6hSPYOhX+43ljayvKUE+/+Lyjh595GrVky2YUH2v3toUdhB0Pltdg1MTxqLlz56J4XhzoxEGDUN1b56Aq9PEgcO6weDNiBl74D8rOznHEc44+/ugjlIPlOv5h/ELUQ/94GvXF/EUo2L+ctT1isagj73wvxi43Xbt2ReXk5KKiui6Apk+f7oiPzTGaMXMmKqIjy+K5hN30tUA7C3tPmYDf74g3wWZvIUwL9E4N7Ny5M4o3d2aP6zRdr1lOWpsLTZkyGRXVacZq1KgRiq/HBIM+R6mwvTyw5+X9nHBZZThteU40iOercr430seDFixY6KiktATF8+uSbYQPt7FuVS/OPxb3ho7hea/cDoK8dblTp46OCgsLUZs2bUJNnjIFZbfnPPcvSxc+EDh40clrN+iCIGyDVA1BEARBEIQ0w6d7uNt2cX8RPK6R6La9x0rTc39xOHlf7p/0FVpYAcYUtihC26QJvAJfqdXLVqOtqACfD3G8rzna2267De2RZmKW/TT8+IKpaJ944gm0kUbw0iWlDj30ULTAZ5f8Bi3MewHu+v5jtO+99x5aoCKHrnriiSeifevEy9FazibqBQspYxdY/nzu28+jBe8fUN44Hy0Ar5cCCqrBbaTz2U95Et9cjBbofSCtzn3i+LPQcnE8/9Wn6YNm9uxZaGtbU9k6uv/RaHMbufeaNGkS2hUzKByH9YVZgkqNvPj/0CI4QUmpr6vo/g8//BDa2XG3jA4aROXl3UEXoeXakazHdsF/X0HL91bNqawCxxxzLNqcAvoOVkUD1as2owU6dOyAdtTVVB8y7H2r+cZcHZM4frxhu+S9/6Ada+4FVLYF/6NSBx1E6XxtQTe0g46k8AEc+wceehjt0Lo1aIuKqE4Dpx1Ox5eXl6MdO2E82njMHS24ruvBaG+4/Aq0re3KxngqHTeDttfq4xrKnwcffBDtWhPDU089FS3w72Mon5gxJhgPP/IIfdBMrViLdsDAgWjfO+U8tHawlhr7l388h/bLtTCjVamDD6a4AMN/dRXaQthpWnPDZx+g/fLLL9ECoXYt0J573rloW4Yo3z8YNgwtsCJGryPkNvH1Uy5Ae+bRA9ACnArDvvoG7c3ffYEWXp3JvHEulc2jDuiNlr2/0+YuN5+UGjz8JbTV1bRS+9FBZ6M926QF0AwmNALmpou5QdU88U9KjzdLVqGF1epAxw1uXbn66qvR/v6gPmi5QMLcXobbCWrpXZLVJ0FIF6T8C4IgCIIgpBnyACgIgiAIgpBm7LlDwLiFAFj3+zJ4ASZY/FepK96loa8ZM2egBWoTNAYDG+ICGWasByaFM4+dTkMpxxxEw1BtYjQYEwq440LPrpiD9plnnkFbAS9k1RxxxBFogQ/OuxItn/Xo9FFoX3vtNbRASQaF/5RTTkH75qDL0NqxlafwHcMusDzwd8ZrT6KdN28+2rJCd1oAbCYM5FXQe27jZsK7v5SGEYHjjz8e7QdX3oKWM+W9rRvog+b552mYeWY5fQfvhwXsvISNdYEOjWj7kT/eeivaX2c4G6s41/6qagvae+69B609BHyaGWYcdvKlaPkedtx5OOuDBG2R/OSTlAbzt9DQKcCT+7k6MR3y3GHVG2+8Ee0NBW3Q1oNvzGOC7gipQ9RkQtAE6Pm1NKD54AMPoAUqWtPQYbUZur0w2Brti4/9Ay3AI3+jFixEe8XHVL+rq9wtoLOqqK7CQhkgZDaO7tSpE1rgzat/j7ZFBv2uGY+12mH3jAUmGwL+sIqGyf/yl7+gXW3iecaZZ9IHzZsD3OFggIeAYVNwZmIpDV+efPLJaD84YzBaewgY3m8L3PMo5eHna6gcH3LIIWiBz6+8AW2uyct3Kjahffyxx9ACq8KVaGOmHGZW0rSHASecgBaYb+I1Z/p0tO8PuQatPQTMvP8lTbO5/iua3pKd484PePtCKpvHmKFXzr8pc5aZT0qdM/RZtJVbadj5qTNo2HjIiYPQAvnwkmrAFO5iawrCG9+MRHvbGBqC5o3CD651C/Tdd9+N9iST31xm4T3HXmQIWBBcpPwLgiAIgiCkGXuQB/DH8fbS19NL29SXI9xJ0BOXk/eAe8CdCmnBx4ABbg/4yJY06d2cruJm9rL9NFwSp1+OGDEC7aYNG9FyLx7o2bqt+USsj1JX9n+f/Q8twN6n0087DW2nPFpAYOONFztdbORJPTnscfti6gS0xSUlaOMZbl+fvcEJ2FFbw+lcEyaPINCuXTu0Z+1PizbYs2hXjqXraTL/sEmj0S5bRp4O+3VurVq1Qnv5MeTx7dKavGo+csQQxlVSVkmerVGjyHO82e8e1L0beadP6OG+Og6xCwd/Ni5ovt6/Rrnlb+lS8sYFYxST1iY8vzqewgd0bE3eST+7pDg6qRY6Doc53txKjfyG0gn4avlMtJxfh3TtifbkQW59amL8M5xzUzeuRPvF5+T9AeaWrUML29YAR7Uz17HqZadMWpRjqne9rWl2hNXV5JEdP34c2ooaWsjQswfdEzimey/zidiYoDycMIHKI7C5Arbgpm1ugIHdPXmq4Zz/buwYtMu3kne4WdNmaIEzDjsGrVkD4jB7IS0YAT4a/x1a2HIH6NSe2rrTTPsDLJlNoxtr1pCn+Kg+tLCtZwfYHp3gcr9oxQq0UxfQOXZZP/rQfmhbmjDySMiGzRR2YPQPU9ByvvftuT/anpbH1nGFmpvCBvzMlAW0oOScoTSqkjDXOb95E7TAnTf9AW1H8zsdSLJcLm1SLdOCkAZIdRAEQRAEQUgz9ioPoBeeC2jP6+DNLdiD4/afXRpzj9OcCK9B8sI7E/C8Fk4kvi6QYU/i0VSaLjCfA3AnlM/LjJBfgrczAMQD+NNhDwpnpe1wY7zpamc7H19oLOc3T08COMd48xjOfvu6nPe0GYdbjrLtssIX97im7DDzZ9o8xcp/T5kDoqbcsQfG3dxGKZ49x7fiTTxsPzTHMYsLKSdMqoXOk7Bxc559OvnP3ajzjFz20gG8mQ6/qS1iwmFHeb25gt8Esj3+W79eclz5/pwuOwr5+9zzuZ2xw+xuikLQDLz6bQCHn88rMNbG663ke3N6ATw1jrOHr2sXI/J/u9fjDYHsLDIz5ZzzkrU33iLA4bDDw5/5XpxOfK6N3UYDdhqGTADiNXTFSK57hUlzl6B1PICmrfzzUeR9BH592jlom/GfMp7HmSxiqZZpQUgDpDoIgiAIgiCkGXu1B9Dp4fHcDyBgnmm5E8kTkqxoJswkGnvF3zbYLgUba1WyMquSk/Y0Gb6tuX8syWuoEvX61RD0bY/x9qDTmZiVXpxWfnYbcT4nyxNPssaTvMzfzyvBk12Hv+Myxt0nu6xwRnF4GoKv53gsrAv5zYW4vHBwti0a2/bikngJnXDVGN9LRhK/mPfdbNtceMewmxanTPMt6kw4rJX3TlyZsIkIpwXgPSZiMsh+lVnIEzfPKQ1Sr0jUzx9ePW63G76E5+ImzaJRNxMCgfq11znHPtVbXMx1GkxDDmvcOpnDxseETTrbIw4x+s4XNN+lks+czhYJkxecHuFtIqEvbZaIB4NJypuBvYGcSuwtBl744nO0L42hebI89/O182k1MdCvN82pbBQ1fnOOV5LwpBZZQUgPpDYIgiAIgiCkGfIAKAiCIAiCkGbsG0PANvZwCOAd1gJSeez1DgGnMprAP9vh8pwXqz8alDI7edo+SdIhYG9ZSDaE780vO1G53HB54VvY+ec9hn+2y5x3CkIytldGGzrHsMNDwFy9+ZZ8LzvuPE3CW1e2ufCOkXT4kvEkAeK9X7L67W2uvEOeyUjlXox9T74m39ObPoA3jKmkGZ9jX84bxmTX8R6TLF6cl0yyssXXNuFI+OicBqfEJMsLTxh5KNfGGYw1aZjsHpWmvC5bRlvOTHeWTik1dOhQtNNqaEse3q7pvctp82qgKI+WDzWK85SBhjIhlQwShPRAaoMgCIIgCEKasVd7AJNt9eGdarzTT7jeHm+SzrHXG+NPlpKeY5I5plJBPIC7F64GCY+HIpXKkaRobMPOVrKdyvddVaNTiViKpOIo83qQ3GULLt76kyyI21w7hXrJJHN0McnC3NDxjPe8nTkHSCV9Urm2l50t497zkidp/RD5TAb62FOu+bqaNu/i1+fNK3Rbca6XzVbTZtpXXUWv37yzn/vaOnZ4e9v+ZGmRLF0FIV2R+iAIgiAIgpBm7NUPgNDj9AoiZEsQUgHmJjU4B0oQhJ9MIhFH2ZSXlaMikQgp6ioYCqLOOuss1Kn9BqBsuO0XBGHHkGckQRAEQRCENGPvXgX8C+OdY7KrnqZl7krD/NLpk+z+Xrzh2dkw764y9rOT2oSxvZ9krWkqcf0F02dnynOqbFN+OZ5W/IrraDb3+nXr0FbXusvYCwvp5YzdW9V/qaftRPTttZVCEH5ZpOoIgiAIgiCkGfIAKAiCIAiCkGbIEPBPYHcNzyUbkpEndZdfOn2S3d+LNzw7G+bdVcZ+dmQIuGHSZQjYWBvezove8ls/KbzJEAvTb/3WO6FlCFgQdg6pOoIgCIIgCGmGeAAFQRCEXw5e89HQXyLeEZ1divYO6fuqN1kQdjPiARQEQRAEQUgzxAMoCIIg/HK4u75sH6+rIpnXTzyBgrBDiAdQEARBEAQhzRAPoCAIgvDL4f0LJJ48QfhZEA+gIAiCIAhCmiEPgIIgCIIgCGmGPAAKgiAIgiCkGfIAKAiCIAiCkGbIIhBBEARBEIQ0QzyAgiAIgiAIaYY8AAqCIAiCIKQZ8gAoCIIgCIKQZsgDoCAIgiAIQpohD4CCIAiCIAhphjwACoIgCIIgpBnyACgIgiAIgpBmyAOgIAiCIAhCmrHHbgQdN9bG7wlp3Gc+7CB71VOvSYiEjyLv85lIJ8u1nUwPQUiVpPXS2H2eJHXO2wallBZSdwVB2AMQD6AgCIIgCEKaIQ+AeyLgZmEZwPPneP+2Azhz5c1+giAIgiD8GPIAKAiCIAiCkGbsXXMAjW0QPjHeQLSCu2nCza6a22Nfh7OHvX8x87MVB87CH/MQCsLuIFld9SI9zR8hWdvxY0h1FwThJyDtsiAIgiAIQpohD4CCIAiCIAhpxr73AAhDvw0N/2r2ysUSMPTLw78eeIHIXhkvQRAEQRB+dsQDKAiCIAiCkGbssYtAUllQkYiaDxbVQbKZZJwJ6jFjgWxjfwmSJbfPE7Ea68cMY/mssLFZxtr4vbPx0+nxfmdK8c85iT6V8O1pk/qTre4wYUxYFcrH5YzDv6fFIwnbVJVk+eP9bnfGy3vtVFbWJAvPbgpjKsERb4Ig7F1InRUEQRAEQUgz9moPYDJmrFmDduasWWgjMfKZ9ejRAy1wTPf9zKc9BM+cxZjfjejcpcvQjp81DW2fgw9Ge0THrmgBnhoY8KaZeAAbZjd5S5KSSvh+zvCkgu32iZsfAqZQ7Wlh3UHEA7hjiAdQEPY9pM4KgiAIgiCkGXuMB9CeowcEknQ5457H1SXGjl0ww3xS6sEvh6ItLS1Fm1FSjfbMM89EC7x60mC0CXMPZw7TL4Q3C7ZYGzoP/fwrtPd/8Draiy++GO3jA89AC/C8wFxj+XKB3emx2NPwluIUXBbxgPnwE0mp+KRSy/a0/II05HCbtNpEpl7y8nxUM/1W5RmbUpx3lN2VRt4GCPCWoWT3TiU8qRzjLUTJwuMl2XV3V1uWQn3aZfdOVm52V74LQhrzCz/6CIIgCIIgCD838gAoCIIgCIKQZuwxQ8BR4/fnLVGcIWDL9R83nxPm2N+//RraiRMnogXWtKJNXvx+erYNbN6K9uSTT0YLvHLihWjjZhsZP49d/YzEeVK9pqysDG1uLg3i+jN5Exul3hozAe09Q19Be9VVV6J9sO8xaIFNEbI5kVq0meb8kDUGzNm8z74v2FuKUxiykiHgHwHSkMNt0uqlLz5FO3bsOLRA3/17o73skkvQNsF/NanEeUfZXWm0s0PAqZDCeQnPMb4Uyq9zXfvc3dWl384m9PXYVXNOkt1qF11aEAQX8QAKgiAIgiCkGXvONjCeUMR89EXA6vpNqlmP9qUXX0I7sqwYbYJXc2gysvLR+s1WKtVb6JhTTj0VLfDKwHPRhs1pGbvqMTiFnivvXW138C995Sm0xcUU1iNPOQstsMZsa/P56FFojzvuOLTdunZEC4wcORLtYRnkQfzjdTeh7YT/GviG+8Ajv512zoIXjwcnYcWTF/lw9nAehOz8Muezl9lvPF72vaLmhxCZ5IuHUkhnbzgY2yG5vdPZUw5w3eCo860zjEcY4cM50AaOpw1vhcKbPNcE3TDx4YM//i/akaOozAHndDwQ7Z3/dwva/exEM3gXcCVbgMXpwQ55jlfMul6WN9xJ4rEz3m7OWzNwgHAy8leeJER4AVZDgwh8PscjmiRYmRxZTvAaY214YMAcU0emHs51+B6edAc4Odly3O12kE/nYzgt7DIaMr/cJi+t6/B5XAz5ejb8O74n/wzw/ZwN8b330vB3XOedNiH17BeEtMSqRoIgCIIgCEI6sMd6AKOmW8dz+YCZMfKQ3X///WhHl5egHXTiiWiBzl1ow+dPPvkEbW0pza876aST0AIvDzgH7c/hAeT5iuyNYC9H2Vaamwhc9zZ5NOfOnYu2NOb6E5o0oRlVkaDd99bnl2w2n6A3TNc+s0MXtH+85Y9oD7D9Etz13gce+TkqgBMddjVwrz+JS2ZFCZWFulrynXTIK0ALZDXyvFzP5KXtKYsY70pm/axokIqtdK/NxlsNNG1KeVqYQ/dM5kVKJZu2lFN8Smpoq6O8PNqApXVeI7T14EQz8bHjxWU0YCaixaP0c3XQp0LmOA7Prz5/F+23336LFji300Fob//NDWipFGpsT2Qy95mmps6tNOtKt6ANhejgokLKn2zblcOHW1/tSpKVrUpzzy1rNqLNy6dRBqBZYQ5azkP2VNnXWbWC4pWRQb9t3bqB/GG4oeALWpSaec0bI2QbNXKv19qUAYbLbMgqs3xpjl8qZW19VRXaiooKtECHRs3QZuVSfsUjlFB+LjQavhd/w9G0yzrNXHaz1g4PFxtvlWOvH8DeQP5KPICCkBqp1H1BEARBEARhH2LPfRWcIeb0C+Fplbp0X02mFYirl9G2tJdeRHP6gM9qqFf80IMPoi2OUs/VXgX88kCaY5dsPsnugnunziunrN7pOmNXr6FPj82cghaYOHES2tpGxtMQJrfKxd1p3hVw7LHHor2ggHrkmdtMlNrHsHr/3IXxOgBHhyvNJ6U++vAjtGM3LkIbidDR7UIt0QIDBw5Ce12vXmiZLKt6ZBkv7psLF6MdM3Ys2tp8158xZPAQtON/GIN29KjRaKtirg+jadOmaO88izYk79WcwtHKronmvluMd5c9KY9NpusB48dTPVhaRZ7AggLymJ3cilblAhefT97u/vivTjpzD+ttgw7e+gClcXEpeZo//ZRW/35cRV6wLVvIqwW0Np7UDh06oD21juaiXnDBBWiBAuPK4Sg+s3oO2q+/oo3OgdUV5CUNBik922UXoj3rLHdO7BXNyb/IU93oiPo4niBjnVckWnGeGaZJdh9+RGVjWl052v79j0YLdOjUGe2rr76KdskmmoPMnlbgon5Ubs49oh/aCcWr0L733ntogRWV9eM1uAsde+lZ7ub0zosdTeDXmTxYVkYb2gPPjvse7fz589GWx8i7nJfHW8ArdVpryoPzzz0f7RGmgvCOB0CFKa6zVlI5fn4KlSN7zuQFp1LZXLFiOdq3vjEjKrXsr1OqZRbtuHDhhbSrwg2tKL04uYH/LqBXWI4bR/dImHNOP/10tMDZha3pgzlxvZVPn474Du3EiqVouYzfdvhAtEDzAioFfs54Pj/pUuqfobEXhL0EqQ2CIAiCIAhphjwACoIgCIIgpBl77BCwO4zjBq/W+Pb5qZUnCNsTit/csgHtU0/T1ipbIjQUeOIgd6HIK4PORvtLDgHzVhtApYkAx+fSz2m4DRg7joYZ401omKOsnIaqru1zBFrg1vNomI8GYNIMk7C8zciKNTRked1rz6IF1q+jofXSZpzCRE6FO8M+FqcMefBsGs46fxBtt2NPPuej/zqShmHffPNNtP6W7mKSfofT8N5Xo79Am5VFCz0SWe5E/Wozof6k1pRjd/7xT2hp+ZLBlJPNZjjr9aG0+OKpKbQdEJBhNvyuzqd71NTQsGbRel6SoMNzGIXnjauuQWvWVySfRG/KJG+BAxMsJqygYcJ777kX7YquNFzN8QKywnTixo00PHxqHU1X+Mc//oEW6JRPQ38jpk1He/P/KO0qK92h+oQ5xh+gAIXKabgxO5u+B54bcj3aw/en1MoxzZc9fGlFDfEnGfeeXkcLZ+65+x6008JUr/r1OxwtsH4jTTFZvnwZWn8h5SFPIQA6xmk4+KKLLkL7/oj30fL2TUCiCR3DQ8BtN9B47G9uvBEtcEXv+lMPppiFPQ+YBW/AKLPojRd9xHOoRMZi7vhuqw10zIlmYdwT51K47B1xKk3+fjGRpin83zv0nnF7aPuoA2nSwIQJtBH9pgDlRa51TEYVhbFlSyoTH1z3W7QtGzlbgatXZtP5z/3zObS1prBdfvnlaIE7jqJhdMZNOR3/h59A+9UaKje9zBSN/15HC92AvAyqB0H3TwVhthIj+PPP0NgLwl6C1AZBEARBEIQ0Y49fBNIg3r0XNG+VUa+dvQ/FpqfPPWLglUFm8jV74bx7DOwsSVKSN7TmV9z5ubNuvVqpPJN+N2zkCLQPD/sALdCpE234POQ8mlD/ztChaOetXYgWuOEG2n7j/oPc18Pt09juK1N85xu31fNvvYX2v7Np8jmQnUMepLuOPgFtq1at0D46hjwgwPLlK9C2ClGf6LbbbkN7cd62ywz+PHEy2uEfUD7FmpLHC4hEyTt059HkQeR7/f0rd+Nk9pTlm21Xbr2VPIAXN972Xs9vXIn2qafIo+2zdrgecMIAtL8/jPKdJ9rfN40mzgM8af/Zc+g1bacfcRjaPGtRgOMB93QHwU+5wWxjM3v2bLSPLqLXLi5ZsgQt0Kd5W7QnnEDpe3QF5c+RR9K9gPHm2g/97RG0s2vJ41ZUVIQWuOuI09DW1dE9//b9cLRlZisn4JhW3dDe8fvfoT04aZ2j+zt1ztndmwwwwZx3333kYZueR/cMm3sDl7egxTQ8evDxDxT3KZPdRVqbG1PZqjYeu7ObUH6fehrFBRi1kdJq5DdUBqqNx/Swfm76fGzyh1lv/JhPvvQkWmBzCeXlOefQoreiLFr09flnn6MF/rWZFtdkZ1OZ/ORX5JXr1aEFWoBCqtTXk2mB2cWjhqHl7XeArhspHThPj+1FaTHsAzoW+LyS2tpojOLzn/MoDicfeDBaYGaMvN0PPfQw2tkx8lIf1teN+wdnXYyWs2ektfP3fffdh3ZZHd3r7HNo9Ob5o9yN/aOmIfd5CnAgWYMsPg9BcJDaIAiCIAiCkGbscx7AN0rIu8IewJIw9XftjaB3uwfQOBwAy1eFOB5A69F7k/n89CsvoB36wwy0wG9voh78r/anbV/emErepyf//Qxa4Pjjj0f79vnXouU5XPssPFkNMJH9spTmPj366KNo51jvhjvyyCPRvnYmeVF504wnN9C2HsBzz9EcpZCZZ8VbWzx+DHlAbLwewOo8N8H7H01zp14cSNtc8Nu7nlrsemxff53mXGXUUgG++qqr0d56QP15YMBlH5HH9xvjPerZrSda4P7f0zwo2gRIKfaTnfYqxQVYuHAB2pv3I4/Lb6+iuVdFdsHkcuspN+Cj42LKM7/O/4q8cl9Z27ecdMAhaP9y5XVoaVvo+jw1dxbaV155Be2aHLrytddSmQXu73QAWg7G78bRPXhTd6BVFVWu22+/He2Qtm3Q2s6enfEATgrRBseFhY3RAu9dQ/fonU1z99hf/ODD5MUE5kbovJwcKlX//c3v0e6f7875pO3dlbrrpcfRLlxC3ubeB7pbOX0ymOZo5mXSvXjzly1xd+Pl2gh56DpmkteR77Cg3C3rp79CnrbiEirHb5xCXrkzj3E9brwF/YhJ5NG8ZDSVY3tu42WdyYv3h0uuQMube3+2lOaEAr99j8qx47E9irZmueQk1zvH258//tqLaIfNn4m2W7fuaIEvL6Y2riCXGvK317r18rHHH0NbblzWv/89pe8tRc7GOY4H0G9KjpvNbiHnP3M+n6eQC0IaYzWJgiAIgiAIQjqw5z4AQofNKy/QmfN06GBalS1YdQuCqXis3QU4GlDw2QgS2FZEd/BBYf0DC2Z+gW65+GrU2zfc5OjX3XqhYGYR6KbefVD/ufQmR8+ceRkKnGEgmF5oTTHc94BVnSzDzMpi1MpgDFVQ63d0XM9DUDBjCpRdR+rfoshRn7xcVHV2Bmr+pnWoZPh0IQLFEzFU02jA0dFdD0A11UEDgecM1C6zkaPGET+qMhpHVel4gGy2VNailq3fiIoEQ6iuHbo5grXHINiqFwTraUFN27V1VBnX99BaEalAwfbNuIWzLqeO4NbW7bnsFsR02CMkcKqBYnW1qEAi7qhJZRgF/hv04YBj012IjMzcsgW1IRBA9czIRx3broujXH0fUFaUdNp+vVEdEwFHm3JiqIkbFqOYsA4/K6AjBfLrSIGSEVc677S4zmTVhVE9WrR01C87iMrW6QBqrs8DFSUSjhS8jk/rgHatUcflNUIV6V+xOulzQAfGc1Bhnw9VGQ474haCsyQUiaG6+xs5apWZjYJZoSDwQ4MWhyscZeZmoWrCNagtUV2OtMCbywIfI8jvD6JydSMEyq71OTqnbUcU+ChBMKMQtL8OHStTnwvy68YGlKjWqa0FTTILtngG9W/bE1UXj6A2l252NLN0Awr8iKA5a1c6qgzqdNLqFWyGOrxxR5RNMOpHufnNojTFdPXpEiHeP0GoB9QOQRAEQRAEIY2QB0BBEARBEIQ0Y69+AIQRGDO3dxtgY1hbexru4IQ7XFKQk4k6/MDejrJDARQPb2VnZqBOOuoIR42zM1HpTHl5OSoej6MyMjIcNW7cGOVgxshb+IKO8vPzULCpLqi4uARVWaccMTChHOT3+1A2+fn5KGcsz8DngOJxkk+fi0pSRmGDZFBZWRkqJycHtXjRIkf3v/oa6q9PP4u6/6mnUQvmz3eUnZWFKi0pRTmjsxw+kCmIPPTL5dIOP3/JYbXjw9/x0KJzAb6Z1voNG1CcPwWFBaRgtiMnPIY8nY6grOwsRwznNwPZwKLhP6th8PwI+H1+FBMJh1GZmZmOHEy4klzGKWOwMTZujm2OtcXnwTYrIE4vWHTB8vt1eLQ4D3J0nQdtrKh09NKnn6Ieffwx1G133IN66OGHHJXrsgLKyAih4N3h/P5whtsbhvMkU7crLC43HHaOTlTXDVZCnwPywtkP4vj07n0gqlmzZqiS0hJHsGk2iI9dvXq1o7DOE1C7du1QRcEgCtd9sHRaohwo1HYZFQRhW9wWUBAEQRAEQUgL9twHQO5y2vLg0x07UD18YZKfFAmSopYczHW559mQnK4wTNY3iqtoPfGCE7sHrKDzbcsAl2Jxj9yZRG/BXpUMHU4QX9cEHQWbQ9gvOQvoL0H7KvYiH8ZXvRUVqK0ixStdxUgOJjHhdFZORggV0z+AIiqGisWjjpiYP44KJ6IoOpKU8EVRXmoDfkfVOgNBsEk4SJdKlE2dzmVQOFPfR6suI4ZaXb3R0ZSlM1Djli9ATVi5GFWwer2jTtV1qM5VCVTr2ijKLtscZ8b5XocxrgsWiGHvFXusQDGfkf49iAutnU910QqULxRGFcT9KNg8heVUIHN+VFcKkD870xEvRolH4ii+p7MAS8utJUZOwFxiOr1J9J8/GkJlB3IdOZjLwDbMoDpdSVk+nZ+gWELnpRY3DzacntFEAOWPkQLxoCPYrQrEoYYXqIH+8O7bjp4c/TlqdMk6VKhRBqptl3aOskJZqKAvhOL8giCxODkS8QAqpDMaBZ+N4v4gCkqlrYgv6IhDm9CJDooFwij7Xtw2dS1qhOreviMqvLXa0djyzSjY/Aq0av1qR1GfziWtw1u1RbXXvwe5d0gmwqfPY7kxEASBgRosCIIgCIIgpBHyAPgjcI/ccRUlATZvoA0cDMk6pR7XgP0rYcdgrwaI8f4ML95nBYIBlBfwBbOqq6pR8ForVJSU7F4Mf++3tD1i8bijRILE8BwsG/faNFeNj+nbt6+jRx95FPW3v/0N9cgjj6Duf+B+Rw/cT7ru+utRmZlBlA0Eu4Gg14PnPXJ4vOG28YVc5ebmoPz+AKq6Wqe3lu1d8sLz4zhvMH9MvvDcO/ae7ypSmTfG+UeiY3k+J8PV3fYGcv5zWYnHdPoZcbyYCVMmo2bNmuWoUaNGqBtvvBH1zB33oO68+RZHjZs0QUV1uoG47EMwWIxTxgI6T7RsYnHwfseccyBmoEDA78inyyWI4euxxxPE3sbcQBDVuk0bVFCHicVzAFfXlaO2bNniKDs7G9W9e3eU0x5D/rAEQdgp3NorCIIgCIIgpAX73AMgzFsCRXW/FdRQbx6+BcHaO6/YMwSvMgfBi5VAZbqXz/KrIEoldO9Zq053kUHwtipWRQapOtOHCuluMShDd4tZ3EtmCT+CWcWLMrTMyUc1UgFUuYo42lBTgWJ4M254TRVrS6QKlRXwoxplZ6Fy9LVYTER/BIX9CRT4SVjuPDQP4B0y8npHuNTZNFZZqMK8HFQiXIdqWRpxdILKRp0RykOdld0IdXpOoaMz85ui9mvbApWvgwCy4fBACEA8zw6qDRxa73Dj1uL5t6AafxTFG/k6F7Ront8YlakTB7QqXodaqtOc5aSRYU0kjIJXJbLydGhAbQoaoxz4niAdpnriiNWDDk4kdK6B/AFULOFz5EW3JPgfe75AdbqsgMJ+Ek9jtLLbBeai4Xy0bUno9AMx8yo2o9YHoo7Oa9MbdWW77qge+jhQB510rMpIBBUNBFAcHii9XgWjCVQ0HkPFEnFH7M1jOGmjunFlcbvnw7mGIRXR8QdxuQZl65NAcCXQkZ16oFr5shwtqK5AfTF3Jsqnw81qUtQM1alRIQp81/X91xoIpxVWh7g+0itBEBy2aRYFQRAEQRCEfRt5ABQEQRAEQUgz9rkHwIaGfLeLM1ubByp8qiqqUEM/+Bj1z1dfQy3dsNmRgzmtNJpAvfr2UEfPvvwqanVpOcoZjrLGSfiuQorwkI817NOtW1cUbzAcjUQdjR0zFsXw1hRzlsxxtHVrJYon8/fp0wcVzFKOfgpcLu2y6Uyaj8dQNkUtslE8aZ6HHBctWuiqqgrllCnD6x9+7OiNTz5FVdVFUVzWeEgPtDPwRsOgyq1bUVykveEBenTvjsrNyUFt1ceDpkye7MjLd999h4pGdT4aFRQUojp26ohikg65MpDkO9gkJEPnFv6XbBHIjuAdXgV4Sx2mtKwUxYsxQEyGEVwBtHTpSkclxcUo3nTaWayjj2NxcngXrvACHZA3XnyuP6DDacTwsd5zEA6koW3btqimTZs4qqioQE2dOhVVsVX/bNSqZStUy+aFKKeM2cA9vfcVBOFH8TTTgiAIgiAIwr5O4D6N+bzXgb1Z3bv0WY+x8+tKVVD3b6dMGI9WRSIqQ/cO9+vcGS3otM696GDoSupDfLonj11i3fPlLuuby6epeeXr1RNvv6LGLZ+rxpSuUlM2r1ArfFVqzOoFqCH7HaqPdXls+jg1ZeNq9e+vP1eT169CfbtxhZq4eY1an+1XY9YuU+d23R+PDevb8IKVIMRBfwfRkCfyVNCpBJkOgnzTKgpmqbaBLLVx2TrVqaBIfb1uvqqJhVHVkVq1qWyLmpIoUcNXzlHj64rVV8Ur1Xsjv1DTls1Hrdq6RZWqOtW3Lke1jgfVLYMvVQc1a63ahLadOD5yw3IV8MXVogVzVdCfUAV+nwrp0gg69sjD0R6YlW+OJmZuLdb5HENNnTxOnx9TEX9U+f1x1afPAWgHtmhrjnaJJzJUryat1eKxk1UTXWiW5sFiiChq2pplatTc6Wp9s8bq+4pi9e8fJqmPVixW/57wjRqtwwj6aMEM9cXy+ergpm3U8vXrVY927j2opNOCACh37B2CRSxQrwL6B3AQwTHMd8sXqzx/UK1ZtERlxhOoTYVKbfbXqZWJSjVe14uMiohauHmjKmreQtXoc0BdCpqpXlpLvp+i2vqy1LzYVlxAs754s1q6ZiUpx69GbFipPl21WH2u68pXE75TqzauVeW1lao2EUGd06Kb6pDTSF16/EDVOTtfNTKBhvCzYFNriAcEHNsH+AEiAb80rEzAEq+E+n7M9wqcccWRaszTzp3aqoA/hrqg2wF0sGGDbjD8+pzx4793NlvfEKnUeZpQ7Vq30OkYUxfv16d+gmnghXXw1cQfpuv09KvFJRv0sXHVrHEjPBf0q9798NjcLMgNpSbr9Guck6dWLFiosvQ5oIWqQi2o2qRq2jVXk8s2qjVRXa6qq9Qzn7yrRus8Bm2tq8Q2zqfbvZC2gzr2wHv36tIJLQiSAZJk8doNmD7fLJ2lQjoMIR3/oA4X6NyuB+kwBlSXtq3weEhmYGMJLIWDsxPqw3lTdBpEVVynXVDb4zt00vFLqD7dYGkKkQ3rWuBksLq9zQ6FVAtfSK1Ztkq1bdQE9W3pWlUTj6qqaFjndbVqVhnTcfChTj5hoGrTrLk6rnUbCntdQumsUfFgXIc9gcIAauv1qmJs4SuvBEFArCZREARBEARBSAf2uQdAnvdVV1eH4rlG1TXVjhif7myDkhHXvWcQz3cJBHR/WIuvC/ISi8ZQNbW1jphwJIxigjrlWeiA5C628OPYvfmYTjgt8kkodfbZZ6N69uzpqLKqCjVq1CjUq6++ilq6dJkj5oILLkC1zs5CObsUgwyRaARVq/MXVFZa5igS1r/zvHwfcDaY1qqprkHx+cnmAKLXRKtf9x6ok046CcXHghYtWoR65pmnUZ9//hmqslLH16h//6NRhxxyCIo9crpoOzK3ctLQSV74h7809OrVC2WHo6y8HPXRRx+h3nzzTdSWWNhRI30uaPDgwaiCggLU+g0bHA19913UsGHDUFyHWrZq5ej8885HOa+P48BaQLi3cQZ54Lzwtg+cf8nyEGbSwX9V1VWOON/r6sIob3oBHERuNyorK0lVrrzz5w7v1w/FGzuDSktKUS//62XU/fffj7I35W7VujWqrEyHSytq5k7acHgi+ntQla4bIE4LOz04OqxgKOSoplaXY1ANieMHTSrLuZnZtilTfwR16tjRkRfe/BnUs0cPlAO4pGHuos7gZHMpBUFIHfEACoIgCIIgpBk+3euEjt1eCfvTYEUcswDnqCg1avQotPC6KQC8Fsyph5i5e+D2QIz3BecAEmvDW9F+MPwDtMtLt6A97/zz0QLHNO9kPhFLInTBt956Cy0Qr6L7DxkyBG2vIrN5resMVHE7Ahp5Kk8dLr4+mFQJgHtBs6KU8g8Y/uFwtN+WLEUbMx6R9rlN0AInn3wy2jO690bL/jhzuXp8vmAB2kmTJqHNs3Ls1NNORXtAUTO0zLjSDeaTUl9//TXabOMgPvLII9Ee260rWsSUTZiPh9b8/NZEdzXzmO+/R7tR0YWysmipcr823dAC4A0FemRSIQub2g7zTr1sU+6c+qExx5cZ+81Yql/A8DmUDpEIpesRzbugvXjIxWgBTg2+7YRl5HX98ssv0QI/VFAawev7gKOakneI8wY4pHUL86kBvC0ax8OK4IY68IMq9dnnn6NdWwXbgSvV3fI2XdTvOPOJKI5Rpf3CCvOicmoXupq8u/ywY9Ha8FjBN2NHo527ch1a8IAyl558BlqecpphEmrS7MX0QfPG5O/Qbt5MOxB0bVyEFjzWzNKldPycOXPQntq3P9pDD+yOFuBWbtGKNWg/mULlKIE7IRBnHno02m5dO6DlpFtXUmo+KfXmGEoH8GYDJ/agOZNHH0LzGQE/Rz5K107kUsSmL1qJFjjxwxfQ8qjKqSGKF3DnHXeiPZgrpHHMRrM8HnONz4kZwWXNRtpWQXCR+iAIgiAIgpBmyAOgIAiCIAhCmrFXDwFvO01bmcEw5bwvkgcF7GNx8rhN3AwnWBOKq2GLEQ1/U2msPaxQf5CP3ikL2E/VfH+2uTwkYo9WmMAmGakSfgRnCJjHSs1897g1dsuDRdNM6YiZb9pZJSHbWN68hfMi06odcTNEVgb7f2h45N7eI5rLX0G98VOlVlu5ysfnGcuzAdwBQQ3f1y5wGhpwJPhe60ykfebgDlbh4rvmmSG4TDP2a0VLf6afAt6bJRkCrjA2hwyy0NioOaGDuat9NT6eRxlhqxaA6xWwyKSE35x5AG7XXb8+5NkB13C228C7bxH+HcfDik+tqXOcFxwOe2CxwKQZU2XSzg4P5wFX65bG2glca8LBRZLPsZOX04fvz9a+11pj+fxWxtrX4c98L7b2MRw0/h2/JbteOhvLUwY4LbldBXgrfL5OobG1VuSz4eXoQC21wIkCytNpC1egBU755CW0sBk0cEOXw9ACf77ySrRtrSkzQBReom7gcl8/BvXLH1P/CEFIb6Q+CIIgCIIgpBl7tQcwKXYXfnvY3jcgWQp4v0vSneSePeNZy7HTyFP5TuDNL9vl4U1Qzje7rPBn28WhiaeQGX77XkwqmcjnJXNVMA3Vzr25oMC2IIC9jYc3PnyMjfG+/mSsBQ8I54X1arR6ZQgx59hNpucyiRCdX297Eu91+N72MdwmmWOTlbttvtomfBo+yBOueqTU5HvS2fMjEItQpQmETOCTXDZswsPVikdJXrMWET3yBS3SCgbpOi8MogVzwKnHHIU2j92ehliSRSDeht3bzAuCUJ8kzYwgCIIgCIKwL7PvegCT9FgdvI+9yVLA+12S64kHcA/Cm1+2d4SLuNdjYnt7GE/ip+QBTFZ+Gip/TLLzvDR0DP/Oe6+9oQAl815548Hx2x3xSeaFA+z03qa8GGvj9WR6PMgIX4fP55/te3mCsdOeZ28aJiOVJh/eEQdwOPi69qn8mY/hn60w8NS9VatWoZ2TRQfbW2WNLKXZjS1b0BY/w351E1qgbVOaWVjg8QDGs9zI8xxW8QAKwo6RQjMjCIIgCIIg7Evsex5Ab2xS6REnI4XreGeh7OytvMhT+W4ilbKRQm3gFazM7vQ0eJ089q05qHtDefHGI1mYUzlmV+Gtu0nzMIWy4HjT2AO4I42AfX3Pecmce1522vPsIdmfAGdl7Y5cjwNtZdy4OG0c/eCDD6KdlkXrpe05ku1X00bSp55yCtoHT78QLWD2FjfrwV3ilqd1u6vYBUFoEHnWEARBEARBSDPkAVAQBEEQBCHN2PcfAGF0wCtB2IXAyJdXqZDKOd6iC0OXLP5O+AWBoUzvQpIfYw/LOBiO9QpHU0ENFU4vfI5FeXk5qrKyClVTW4sKh8OO+h12GOr80y9A2WBQ+LrWtWHYl/+D4Wr4TxCEHUM8gIIgCIIgCGnGPrcIJJXO6u576v1l7y7sDpLlqeThXk8qrd4ucip5S1A6lZ4NVbQRzKJFi9CWR6rQNmnSBC3Qv2M3+mAWdsSjZuWHxh8wX3ryQmqlIPx0pM4IgiAIgiCkGeIB3KWIB3DfQ3wN+yTiAfxZoE1flMo0ln+2yeS84F2jQ0kyx7Npu9RKQfjpSJ0RBEEQBEFIM/a9jaAFQRB+DG+r90svIt2J8OxWL9jOpE+yvyQRYzmwya7Dmzrz71KIRLK4exHvhiA0jNQRQRAEQRCENEMeAAVBEARBENKMtHwAhFFvW4IgCMJuBF62DIK/OF4x3p8FQditSHUTBEEQBEFIM2QRiCAIvwCpTONPhvRZBUEQdgXSmgqCIAiCIKQZ8gAoCIIgCIKQZsgDoCAIgiAIQpohcwAFQRAEQRDSDPEACoIgCIIgpBnyACgIgiAIgpBmyAOgIAiCIAhCmiEPgIIgCIIgCGmGPAAKgrBnAsvTvBIEQRB2CfIAKAiCIAiCkGbIA6AgCIIgCEKaIQ+AgiAIgiAIaYZsBC0Iwp5BKi2Rz1hB+DGSlScpP4LgIB5AQRAEQRCENEMeAAVBEARBENIMeQAUBEEQBEFIM+QBUBAEQRAEIc2QRSCCICQHWgaeNN9QK8G/42ONtZsWn88z+z5qbNDYJMSNtW8d4C+ZZJP6k323S/DeHJA+9K5nJ9PZnBaPkfXbZStibAaZhDnW53fvxeXV5wugFYR9HWm9BEEQBEEQ0gzxAAqCkJxkLQN71+LWL/3s8iOzsx64TWVVaINBct00ys1Ey5cHHIeN9x4N3NP19pDdeVxvkYv0oXc9P0jZsSUAAD6ZSURBVF86R2Nh80mpgJ88f+IBFNIFab0EQRAEQRDSDPEACoKQHLtlMB62WjL1WKvIi5JpJli1xn/rn+71qXxnJmV98OFwtMC0lbPRVlaSJ/DRs69Ae0LvPmiBzYomePlM37W1CZjrx1Eqy1hm13kAhT2GJH+1SkwZnbtkKdrRGxahBTJCIbRX9TocbZO8fLShKE9G1QSogCTMxd15q1JwfjJJ8ivu8dpLKv/8SJoLgiAIgiCkGfIAKAiCIAiCkGbIELAgCMmBlsEM0yTMSFnUbK0xZvok+qB546v/oe3VqxfaW8+4CK1nhAeJmuHYX7/1CtopkyejBWrzqSmqrq5B+9ylN6E95rAj0AJ/f/VZtDU1dMzvzr8UbadWPPCs8awhkKHffZAkf7UqTIF7dehQtM+P+hgtkJuXh3bYn+9H27WlKS+8ZwxghnxlCHg3kCS/ZAj4l0fSXBAEQRAEIc0QD2CawNns3ZA3WfZvs2nvXogdr70lPkk3v0ihdnp70jsKezwYn/Hd4ZYr/Ctzj9n+arQP/P0BtMDIjavRNmrUCO2IS29D26NjR7QA+1mmLl6C9tS3n0cbyjA782rObtEJ7YATTkB7aCc6f8KECWiBmz9+EW3c5O9dh5yG9tohl6MFmvGKEBPmOM3/r4cvWWJrknkLt1d30pGdrVfedqahc3nRDuAc5j3czj/zeaPxTr/xyUdo/zr5c7RAQUEB2i+uvBVt56IWaDOsbWCUnzI/5qOwBhz/iLuEaVeVhd1dpnY2n3aGn/Neu4PdnRe7kl0dVvEACoIgCIIgpBnyAGgBT9csL9v7fm8HehJe7atx/SXitTekJXj87P+SAl9r8TH5+fmO/H4/CrwsoFAohIJYs8zpatnyZai6ujpUNBJxdOaZZ6KO6dQdVaQyUDB/i5WdnY3y63IKatO6DQq2jGY5NwPHjbX/DGQDCzx9yWTDecf1YkfgcxvK+1SOSYWf8zp2O7Ej2Of92Lnwa1ZKQL5ZecdxiMVijrzApbd3eR1C/C+m4igbb/h/LL0APiYejztKJR12BL4Hi6+/K++xPX7Oe+0snC7JSCXsDZ2/q/Hei3/eHff3NHmCIAiCIAjCvs5ePQcQelKA/fS+M70QToI9uQfTEKlk4d4atx3l58hLvkeye3nvy2UUPGQ/ip2N5toxc5ruo6K1r8K+CT+/lo3vnULU7TLTUFrZ87GAhAnA6uL19EHz2aRpaLt06YL25C77obWdJ5vMVL+3R9O8rLtGfYmW5w0CIy/9E9pOrWi+lqoiz012juvGe3f892irq2ku4gUDT0GbYyVMgO/rjZadvtvJDk90f5TtXKYe3nKSShlN5Zifil0GgFTulazceK9j/+yWe/5u23O4bDs0FAw+rf4tkY3mVq9/SHMAH51Aq9OBJk2aoP30SipjPVsWofXbq4B5DqDn4rzpuA1/EzOH2knHUQs0EI+d2ZzcWxdtGrrOT9kI3b4nx8u8Me+n483DhvI9CdtLj52J567AWw9sdmc9/in8QkklCIIgCIIg/FLIA6AgCIIgCEKasc9vAwMTzQGYlM6kMhzH57HrNsParoLhpNtT3bvJqK2lt7kGg7RnAtt9mah536d3ODZZ3DlP2aZSVvi6AN+Ly9uuKhs1YSqPsPCByQx5yiQPBft37J4cVw67G+aATqP616pWdEyOctOOQuZu9ZJjNo22x1PLTFBfN0PAd387Am1TMzQHjLzkz2i7NstGG6XXBaugtY0LX5pDxfe0p/lne4eGkmQhH+KuD6A0CCUZt+NjOZuDu6HbzBtbc5m026tdgd3M/5ztVV0dxctnymRGyPum5m2xX8/LbFNV7Tw2ebjBJNkbH9MG0I+M/QQt0LRpU7RfXnsn2s7NCtEmwu7brQMBcxNjE84Y5fbTi5M12XBvXYQiEotRYLOs+rrLhlE91NVRpeF3HwO7a0g0GqXIB6z2xnsvHqYNx9xMjZt2KjvDhNGcvrND3A3B6eH+HfcWJJdUhsq5rY9ETOOkyczEpWcpYddDIJW6GA67WxXx+fw88lPr8m4qGoIgCIIgCMKeyh7kAfQ8/ofNs6nl5Jhgunpff/012qU1ZWj7H300WqBxNnkP3nrrLbQ/1G5CC9tVMH/qfwbak7sdgHZK1Wa0w4Z9gBYYUb4WLT/d/6HfyWgHHXwYWqA3B5lTMNnj9E97QHfhDpTpwCwmg3xh0mNR9Va0Bx14ENo2HWmiM/Dmm2+g/WFrCVr2MNx22CC0wEATt9a2O0UTT9Jb3WaD4l0Vz1RI0lMsNmlfYbpxj4z9DC0wZ84ctGXxKrS8+fB5nQ9BC5w08CS0fRP0O+MAVs/NoEUHwLr1tPChTa+eaLt264r272/9By1QvKUYbbsC8jicc865aH/TpBVagD1mjqfMpOUWy+mztLgc7X1mIvvixYvQ2t6tli1bov2/405He3Db9mhb8Q0AU17KTB5y//e1VfPNJ6W++uortAvKK9Dm5OSg7VJaq/bbj+J6yimnou2dTb/736SxaIEpa6keFhaSV+XGAVQfKyor0QJPT6d0nDdvHtqJpZROdu/5wu77o23cuDHaG486Ee3WatdL8/zX5EGMGvfgtftTmT1kv85oEZOu7JhYauL+1VR3Q+k3l9PCleJiCkcwQr3svof1RQs8cigtMCkIUZuSb9Le9hB4vQZ0VZ0+X7qbEC8KU7k7rF8/tF1bdkD7+huvowWWlG5Ey/Xy2n70+rvT+x6FFqDcdqvaHFMRPvz0Q7RApVmls//+lJZXd+2B1maVsZ+MHI12bi21G82aNUML3HVQH7RZWZTfvOTnS2tT7q/LaAPwps2orJ9+2EC0H3/lvoLt+7nT0foDFK5f9eyPdvBJdCzA1/7gS1q88dUGKusAbA8EHG/qz1XnX4X2SKvBYa/MRuOtf/0Tuv9fx3yHFmjRgjZ+vv03v0Y7aRK9yvDr6RQ+gMviBb2p/Tz3OGobD8V/ibgpXPE41ST2Bk8hg4yYMArtO/PpW361YfvsXLRA//6UDnf1dPMXCLqOMsfr+Y+ZFNYVy1egbdHe3WD9qEMOR/vm/6h9LykpRfv6xdehBfKCVH4zPQ1nPMkfrH/OmIF25Uq6V15j92/I8cdSmD8YQeVt9SoqSQ9eeQNaoHGI0vC9lXPRjhz5Ddp55m8TwGWhfx7V83PPozbynFzKI6A2QnU+x9S9SC01ao9MdF8ducW0tV0P6I720J5U5u/9H/3tB5YtW462uZ/+/h9xBNWrh/q6r5fkVMjj5DFFa4m23CSPNxvY/+P7d9Fu3eq2bQcU0Qb2p59B7fCaZfTswGkIHGM2uR90JLVXbfhe1t/RYtNOLSih9vSh7ymdV6xYidamQ3tq6//cnzbC796CWwcdV2M5Xske8PhP+rYlQBAEQRAEQdin2as8gCMqqHfz17/+Fe2c0g1ojzvuOLRAybp1aOcvWIB2a1vaZoLnNwHHBukZefDgwWjf+3g42iVL6CkfWNWGzvObyRrdNlFP9O677kYLXNyqHX1gjxk/Vtu4HdWUSTYXwsfBN+nx7UbyGAAPP/ww2oVV5MEZOJB61+s2uT2QxYvJZ7i1JfXWY2ZOxkHFbrrcd999aI9ranpiZo5H3DMPDNhjPIDmvuuMfem1V9G+OG8iWiBg8rA2i05k71HRWtpKBLjgggvQ/u2MC9FWmSkeg59+hD5o2HvV43DyEkXMdcYtWYgWyM6iOU7Z5vyCAvKKvXEBeR6AvvuRB8jHnjrjBBu/iXq0wNNPP4P2ywR5p/0BioPf8oYxh/lp25Rb/0SvuRrU3O0NKnI+qBh1pNWn35Hn7s//exstwPNZtuZRL5mbhC5ltSpuJsn99rc3oR3S+0C0d79A4QPeHfMD2o7m1W/v3H8X2q1b3V7/gPv+iJbnMFa3a4PWpskaqs98/6//8TLatWupRw1c9Qi9zJ/L7z/OvwLtBaccjxbgqs4elEdG0pYzn3zizgmb35TCwfeKVVJYM3hekmbEdVTXD+hA3sUsU8+TTbthD+DXFdR7v/8BCiewNEYZfczRx6AtW78F7exZs9ACwZY0FzJgvCNtiqmt+/OfaV4kcHZbCgc3N+Oq6Jjbb78dLbCxkjL8tNPIM/DshRehteFW4dZ7/oJ24iZK394mb4FPbrgebShIhZNz4IGnnjSflHp9DtWx3gf2Rtu1RVu03377LVogWkD1IWAyo5NxRV9yySVogfmbKUScP8Wt89ACWVlUcIvWU90443QavfnHKdR2A9vzAD461vXe8xzATk2oXZ87lzxU5dZcOR4ZaFtJ7cIZZ9K9HhtEnmAgmqDCFfTRsTVmjtnNH7peJ3514eomdAzPeQsYzw6QZdqJJ08cgvask2gEImC9mS7btPUXv06vPxz5zUi0vfuSJxno3JnKxPAv3kfLnt+Pf0uvYwSy/ZSHWbzljXGNx+Ku/8cUO3XjO++g/d9nNPLQrZdbJvjaX4z+FG1T4zH+z90PoQU+Mmn/9NeUlzxHrbSAPMlA1LQp7UvJi9beeLPeuOo3aIE2Lal98JsGvtp43M566lm0wMKF9De+/8Bj0YbDlBcfLiCPKZBj2rQmcUpv9sZ++Gv3XkeaeHHa+026g3/z23k0UvL666+hnZtNIzP2vLzcSgojj5bEaim/5893R1kuPIg8tbffRPd1RtmsZ4avVlMte/EFyu8va8jDnpPjeo65/QybEYtj/dRu3HHHHWiBIxvR34M6CkbSKeF8W7cECIIgCIIgCGnBXuUBHFlLPTP2AC7JpMdoOwon5JD34/jjySPw+vTxaJeb+RMA9wp45d1xufTzySfTPD9g6ILZaLmnGDVuucMPd3tfL596PtqQ6XnmJEvJJE/fXjwxTwq+mB8/kPk86s5B+Pvf/452mpnjxr3L08Jur+vEE2k+y/Cl5MWaPYviF/EbV5XmxEF0zIvHUM93R0gWh93Wu3CD7EzSeG7VTLTPv/A82ri12vCss85Ce1l7ms0zw8xzmTHFnf9z1ZU0t6hXG/LYcQdv0FDX07ViJc3FyK+jmPEL5m866jy0wLJly9C+sJa8I+Xl1GM83XiRgDtu+D+0ZrtkVW08VucMp54fMNvMWzwjj+a3nGg8BLGgW8g++pDmiHxTTD3hY40n/POzrkGLmK7elxEqL1x3llaQZxFobuZHXdTjSLQ1ZqV4ni5jEeNOu/pySp+4KdCPvfNftMDr08mT1aoV1b2vf3MjWnt19FszaO7OjJmU9iPWUe/Wnpt7RatuaDk8l5h5YosW86w1pYb852m0sSjV/adPMR6U4ynsAPnBlVq8gUYDLn/lKbS8sh/YL4vyrv9RNAerZhX1vouK3DlPvzmNyg131jNNdGwPYIB/abyNI6rIk/j4Y4+hBRZmUhrGzWrQsxrRfCBuo4APF0xFy/WyOELlhj1ewCvH0WdO1VExqu8PPvQgWmBhFd3rlFPIa/X6ADPHl8OpmWPKxF/+Qd68r7ZSOu23H5dIpcZceCnakI8q2FqT7399keoX8Pp6akt4zmj/avLWcVsDrKymcjd6NM03XFdICRWzysaBlRSgU0+jeaabTLyA776jeXzLo5SrPE/xm8tvQQs0NV529p+/9iF5rx6Y6s4BzMmlMHbeQn9DOIyNm9C5wNdmLuyMKHlWuR39+Gp3jluXFuSt4uT8dBLV8z8NJQ8RkGfK9J+OovLTvQfV4WemkycamDiRzuuqKFx/uZe8sSfmmU3QLU557xW006ZRGWnRhsIAVFVRfLpWUJr1PZTauPvOcz2sIeMCSmXD+MuHD0PLXtxm+9E8Z6CigvKgSzHVI/5b+Ifzz0YLjBxF8XrybZrfeuqp5Inue6DrSZxu5l0+vYQ8dTxScNfh7t/f686htCO/rVKby6kcDXif5joC69ZSuW1n5mNye/yrEwegBfjv93sraJSG/+Zf3dGN1x+uovmSPHeuKkzp9H2GTz30CtURHkHrpahMDBjo3qN9M2r33n+fvLCTs+l8+7nkqpbkHfy/66lt5ntF3EPUOe9Q3Zo6jWYSn9yYzrn44l+hBcJbKb/5Xt/V0HPNwAFueN46nY7nS5vmpz6mvdptf6MFQRAEQRCEPRN5ABQEQRAEQUgz9soh4IfMoocZYZpU26aNO6H8X9f8AW2fXHLVvh02QzJPPIEWqAuTT5Q3U/z3jTTB/eBCdjgrRYMBSj32HA2vLl9Fw399+tAWAcC7Q2hY7GcZAmY3rnHd/i/MA10w3PQ42klm2KhpU5oY+uEVv0cLHFJAS+7/ZwYv7n3wXrTFW92FB7xE/oPzrkS7IySLw27rXVgTpbl83DOFcuzNN99E26w1TUgHHr6dysvJJkSUSvoylms8z6SrWSuRdAh4wQIaRmibTWnJw8Y3tKN34AI8MH/We/9G+8MPtEDikAx3OJ4n7J5mrjN7BQ0/nvgWlTWAJxk/esrVaC88irassUe/Xx9FQ1x/G0ET0Js3p4GF0UNoiBlo2ZaGzP42jaZCvPEfGkKpzXcnv59vFsDceTANIZt1IwqmHteYnPWbtKMaqNSzQ91FJK9OoyEdrodf/JqGVBqZYTeA0+WV0ZRPj3xGk8Vbt3a3x/nkJkqXjhk0JMiD+JMW0FYOwMVv0iRw7xDw2Se422nQAJ5S/3n/PbRPTqXhrGyzRRRwx69o8cgZPWhoiouCPVrCm6Jwteb6bbeYQR4LNMn5ZSXVyycepzoJzExQ7PNyaXHDsJtouG//XFPoNF+bdH7wERrO3VhN9bLfYe6Uk/fPpmFZblK+MUOlf/kLXQ9YZOYTnGoWgbwxiKYO2EPAs80Q8N2m3fimihbf7L8fTYYHeAg4M0ALCNbgv7ouPf9P80nXtU1UHwJmgdITJ9PQ0+B+NOEd4Jx78AU677vN9A1PLQDuOJ6G+64dQEP+tHEX8dRHVM6GT6YFHU2aUJ0ZccnNaIHOrVqjpVjo9nw4LVJ4eIa7VRFz8+E07P7r02m42S2hOq0mUB35+5c0DMpl7KkB7tDk4IGUrrx1zd/MopjhK2kaBnC4aUefM38f+K/T204t0Hl2H+VZwWbKw2uvvRbtjQe72xBxMTvlXVoMNWsWTXOJ+dxywwsonrqc2ok2WTSk7W4U4w4zOn9KuQBZ5Zi/u3QY1Znx4yktoo3dBTk8xPrUxbSgrYvZTNvdPMitPz+soykmXVrTlAoe8gT4b8W5/6NpJOPGjkN7bQfaegi49TfUhphllmpDKbXaA9+j9h1Ytpym2/AQ8J//RAumzi1yQ0RHKHXFv6gdX7uO2tpz8t0N6P/0R3o/9AGmjRs3ixZvfN8+Tz333HP4ucpsaXXJwTTV5I+D3SF2vttbU2hI+w8fD0Ubt1Zz/qYDPTf84TrKJ271Js9xy82FH7yElqeqPHMpPcucub87XM3p+9rnNKXi8e9pKLhNa6oDwMeX0fNM88aUPxkcDDc4MgQsCIIgCIKQruy5D4DQI/F4z6K+BCqmQw0Khkn7dejm6KjcLFSOftoFHRzIR/WKuYLXw4C6deuBOrqwKYrPAYFfANQrkYmKxKKoGv10zopHIyjo/2IfGHpUOyMPsODDK296BPR3rJDPj8qpi6N6NG+L6lfQ2BE88IO665CCevoLUFsDPkebInUo8ACBwNuEHie4v0fer35etk28rIwgKiMYQBXrRGONXjUDBdNlQRyvIp0grGzd6QIx4OUB1foTjmp8MVSn7Mao49p1QYWqdR4YNY6Rzty/L6pNrR+1sbra0ZyVK1Hg4wPNWLUCVV5T5yi3cVNUtwO7o8BPAILlGawOvXqg/Nm5qM0VlahFtVWOOC8nrFiCKssJoXpkNHN09gFHoQp1ooBa6XiAGtUlVAt9I1BRbRwFm2iAssMZjmBDWVuwBQ5KFwwWl7+cijAp5kNlhhOOsjdXocDnRH4nIqTTk1Wp/wFV6W4tKKLbARD0jFnggwNN12kKCus6AWpe1NrRpW17oWD6NqitzntQR30PFszlBoHnDwRbH4G4vter84aEjj8orusjKxiOonp16YI6NCeIytaZzwLvA6h7MBdV5veh1odrHUUSOr6WVyGu2wNQQh/HCocSqGhIp4Xr5HXDaYUV94fQyozr9NfKiMcdZUV0fdLSzS0KLgXKSPgcZdbq87Ra5TRGndWlDwr8RCzw/IB6ZBaiEtV1qBb5hY4u73EYCnxFIPDdsw4JNUJFYyFUbZ0fVVkVdsTR4iYSdn1CxXROGGUHdVnVOr1DDxT4S0DgiWFd2K4bqqBJc1TcH0It2FLuCPxQoFlVW1FzSktQkcyQo04H9EKB7wwEG3aBuumfWJ1atEOtyKpFTa5YhbKBnAY56a3LB6hRdcLR4GNPQh2dVYjqpMsSyKdPZGXoxAF5/4Zw+QExNfpAW4WltY7OP6Q/amCzQlRHfR9Qnr42q9Do6NZFKFgOA5qtY8IC/xqoif67BOJ6VV6r2z4jrsNMvi6LIJ8up6ygL4A6VP+tAw0oaoZqqusxq69uNEFt8hujdOOKKo/p+xhFdJqCmOWb16IWb96siqNRVF12Nurcjgeg7DLKbdyQboegmjZvjorrPGP59R9qkD4MxW34zJXzHVVXVqJaNCtC9ejSGaWT2BG35+0O6Y4KF2ShllUWO1pUvBHFfzOcm1pASOA/N9aCIAiCIAhCWrBXPwDCy7tRwYAjB4iZFqx4BwUDurdgBFsQgOC1SyB4qTVId9YdeYENLUGxWMxRNBZF7XKgR8baDjB1k8Vh8+mAg2DjSNw8kp/8rad/3dFCwfxHkHuuT0XCYVRMHwEySbjnocPqyNCpU2dUTk42qqq6ytHQd4ainnjpX6jvFy9B1WM7kfX7/Y6iuicIgq1LQDCnBufVxLZV86IiFLxeCsRlDgRbw4A4i9etW4fi8gjie3LY//r666iH33nbEWycC4LtKkCcj7BdA4t7jpVbK1FcdnNzc1zp+4GcssLuLdgAHHaI5V1iNRzmZHB5ZOAji5PXp+MEiusvQUnLMRxnyYbThfHeEwDvLgjm0oBicR1nrSZNmjjKyg2gHNhFaeUhFK960rf1akdo2qQpyokYFyAt9l7a6QGKRnSZM0ok4qidAsJqxLf33qsh+Bwnj7T4PNjsHMRl1zlWi4sSt898TjAYcgSbPfOGz4B9fjAYRME8QxDXQdiEncXHeuH2GQTzP0GwjYz9yjvbuwKvMgR566xdnyCVQCXFxajqmhpUdnaOoylTJqMefe0t1GMv/Rv193f/46iyStdHLf6bxNfjsgvyxiuiywAItipide/eA+Vt552A2koBzh94BR+I0wJ00EF9UA6ccPY9TKDHL9uA+ufr76EeeewRR3fddxdq3LixKL4+zHtmcTVsCK4PsMUPiL3Uzgct2MUIFNTlEhQKBVF22fAmT3l5mVG5Uwa4zW+syweI8wYErwMEZWXrsqzl1HMLTleGq2NpSamjkK4LIE6DN954A/Xo6287eujtt1AffvgRiv+Oc1qAuKzyPfSX28qAvxcEQRAEQRDSh1/kAZA7Kw3J6TpaQF8PFNNdb1BcP8mDEiH9BGzkBd52A4r5Io5Cum8BCiSiqIR+jAfZwDMyKGb+q9PdCFCtJb9+2kbp4zAh+aQdFJ/vXIfdAaDtdIWivpijmF/3UrT8sQAq06d7VFr1Luq5l4rrH7SyY35HWfp+tpwsMOfasi+9PW1z3q6CvTUgE4/BjTqinjz1UlSH7AJHobJK1Btr56Iue+1J1J8/edfRXN1LBDFRfW1QJqSnRz7dYwc5ZZUn+4CMRyfsi6NiAV1etRL6S1Y0rnugZuUaUFMXQwV0QWVFqsOoD5f+gHpv/kTU55O/cTR2wWRU4ZZqVNOyMKqm0hXnRViXb1Cd/gwKJoKOnPziNIW6oBXVX3I61IX8JP0rUNiXcORL6Fqp5dcFFqXjRtLXNeKyFNIVDcTdZp7Pa4vTlYtNvd+bus9tQabuzaL0cSw+zx+DOqGljwfV816ZY8L6RqCoDhwopvOOpW9XT0nhiBn8fh1vrURc38PITVjWtkBVB4UDdShfPAOlYvp4I5++FogJ6RiAgroNYuXXBVHZ1QrlwDfQgmKOitWhOJw+HRFWOOBH6R9QPPeoLpjjKBYHL1mm4vl5CX8tyoabLwg2KOLLQIV1+8mqDUVRfKyteCBBCmWjon59P62YLkOOzLGcp4xf1yNWwPyXoQMB4pzQKezKp38P88p0eQAFIrpOgqI6RYxg1TDIiU+M5oaHcrIcLV+zGvXf2eNQ7y+cgpoydoKjquIyVPOqOCp7QzmK4wDSl0dx2Y8kYqg8/TeLVehPoNxCCjUHAm9L/x7kqVl2/dweAd12sbKzM1AMtw2b9X1Z782ZjrrinadRTy8ci5pfUeaopmkhKj/hR2XpNAb5VK0j/dcdxUQCERTnDSqqy75Whk4TEJfreph00Uei4voIUCgRcMRlwS13NAKWU+tXubUBVE4dKaaPByWD25/G0SxUfk3AUUKnP0r/3lZM/8OK+HW7plWlyxPoy/nTUR/PmOho5OTJqJlLlqC6b44axRw103UKBD519KuHdCnyyiQM/CsIgiAIgiCkEfIAKAiCIAiCkGbs1Q+APLHSHtrxAt9s+23q+PU1QcmuzxNEnXvA5MqdEMeDBd852g48Gd6eEL+9NECcQBIcLxuemL/HY6cPxEGL3ffH9e+Puue2ux0NHjwY1aVLFxRP1h4xYoSjb2dNQjE6W1E2Tv54ga9YHpLlCbwjF8Rh5gnutbW1joKBIOrmm29CPfTQQ6j77rvP0b333ov64x//iLrtz39GHXHEoY6YUEYGiuPA4QI5QedhQgt4fS0Iog2CJPEkyw7B92+orHF4HJlzbPn8OuywjUkSaHDDheuJHWcvnpHc1IFLJQlGsntt794Ax9ULlw0QL/JiuP2JmoURIG86OXCiaG3vXlwuQdtL33gs5mh78eHrgzhdve0N/wxqKF34d/AeZX6XMmDHkaMGVwBtE3cNX8dZVKK/215+B3RZAXFa2HCdZQJ+nTda9kKRQYMGou65+x7U7bffjoIN4Fk33XQT6rbbbkNddtllKI6DnRp2XL1y6pGT4DolcNFWsivxz+ZgPgfkqdic/7CZMYsXUzHBLNLK6nJH77//PmrLli2ofv0OQz3w4AOOHrv5T6gBAwagIpEIivMGpGOH/3mx474zcDnw6zxjeZPAOQak0xLknkdtCZcDuywwMV0PQTaJuA4zTFcyOLkD7ZIRk5+Xj+Iycvc9dzu6U5cd0K233oq68cYbUb+7+XeOunXrhuJ4NYR7V0EQBEEQBCEt+EUeAOGmXnm/Sfb0ypNh49AzSdI7TQZvZMqbTYIScf3Ur6USQVRAHwCycZ7uffpJHmSweyBZOpwgnkQaDfpQCUv2RsugeEL3nrV098JRnb43iHsZNRmutoYUyttldSZHa/EiEHbgxKCHYvUobPgYnnDKaWGnh46wkYF/tJUKO3NOKlhpx0D2gSAXQWepbEcPH3w86snzr0cdGW+M2pDndzRm3VIU49PpCfJDVhll+kOoLVvLULwprNN1tHrQy2pKUesTNahGsYCjDgXNUDxpuFVBIUoldJ4Z8WKCCzPao64PNUNdU9B+G13ZqgPqitYdUe0ylKN8nRigglAGKi8QRC2vLXW0WkVQHCBYewCC15xl6nNBWfrXIM5Knw88UiSGvRF+CL8WF1kQn+cmVBKZBT1QcusLviM5dTWmA6MV1VcluWWb1+MUBLJRdfkZqFVVJY7gtWGgan0DEGyYC7LDzHAIk6KDgjJweLgOgjj0vGghGTqpUVwF/TqOoFg84ojbByah2yWQCugzjer0caBwIopKFnheyFMTi6EydOsFCsKEeJY+FcRwWc1OhBwFdfqDMnTIQcF4HMV5DXLyMOZDBWMJVCDqKhiIopxjLfGyFA4jL5Jy2mWrbXbuqysriP9egKrCtaiVdaUoeLEXiBe3gNbHqlCba7ai6kK6bdZqnpntiBcaNM7MQeUFQqhoZZ2jFoVFqOubtEb9tnkH1K9bu7q+TUfUhe17oo7Lb4Hi64M4PomALj9aEV0eQDoZHcV1eQA5cHnU9XAb8coVSD+Q/t8RXEIrof82gfQBqISuFF45hdWUrR+q1jqaXr0etX+oCer6gWejhvhyHMGL8kC+YBYqqnMYVKXbEha8XoFesUD445koBe2NEW+0zpgo1Md8yXWHPZv2Ii2Ojk4hFG9rlNWkiYrCljFaW6MRVHldJYo3cgbV6ZNB1fEYal1pCapO5xmLN/HmtoXPzWlc4Cis6z2IXzhwWrNuqIubNnd0ZYtWqKtbtUENbt8Z9asu3R01z8tF8b0awk09QRAEQRAEIS3YYx8AoVNjd2wA7zg6Y3vltgd7J3C+hMH7s43TMTI9B76+05PQ2t75oyaMcfSP159Hzd2wFOUPBlEJ3VNm1cXqUF9N+Bb10vtvOFpevAbFva1keOPO4dtngaiyTA8vaLR+40ZUvR1eDZ3yMlG8USdvFAwKR8IohtOQyxyIN65dt349at6KZSh0/7IMM2bMQPFmowHdC2S1bdMWxT3PDh07onizWlBJaSlqzJixKNjRw97VA1i/RMdV66k33kStrapGORcGmfTp3Lkziuddba2sdDR79iwUo4skCssb7EgLMvHzRBNJpbyZYDhwOGy833EW28RicRTPh+M5OXaRYG8Vz/lk1m/Y4OiHH2ai4HXp+Mp0U+GjNRFHDLcFqcBpweEjpV4fvXXZxvu7UCCIysvPd8Qb3ZaVlaGcdoMzTmvOyqUonrMW0O0RKCmmHPFlbNibkgpuumybFly/4Fuvtpce9rU4bN5znBcFaFVWVqHGjR+HytDHgXirDNC0qdNQXPd4k90ePXo64mRs37w5qnHjJig+FjR+3HhUeS283swN11ZLL7zzP9So2fNR/H0yks1F3C5cCXYSTlNnfrtVjnnOnJvQJDsvGN542XkpgUVCVy3Q7DlzUM58PLiHUbLyBvA8RHsuYip4yxGXXbv88j3btWtHat/OydOa2lrUlClTUZwEoEydJKBp06aivPO4QZyH3rakU6eOjnJyclBbNm9GfffdGBRnqRt6pZbOKka9OPQT1Pz15Y742FTarVTbNUEQBEEQBGEfIXAfLCfcA4CZHPaTLuxf6TzGGpYntqqgL6omjPtWBbQNR6oVzCDYr1M7tKAzu/QyRxMrfXUq5oup8RO/1xfVvQat1eESfd2IatehpfIFIuqi7n30k7x+lnc7A0r3nfHHMZPG63Ak1IKKDbpnElEtigrx3qDBBx+tYsGQyg1QIMcVr1ZrairUY/96QU2YPwf10abFavKm1WrO1i1q5NJ56pweR6i6aFxlZQScHsi76+arBZUl6rH/vqZGL9LnrJijvl+zBLUwUqFGLp+nLul1hNvl0CzVPSCYUQCaOmmqTpegKq7TvQ4dlC66NwH2gi496WCLTeb8cZPH6XvH1aLIRhUPRlFNWhSiveKAfjrpdQ/abxI/SVcMppDY+WUl3e4HbsiYGz+3QPfMtqxTTwx7R30ya6paku1X325ciapq3UIt1mVj5LIFak7pJjVy+ni1MVyhCsorVaGOCOj4Aw9RLULZ6vjOPfB64Yi+cNyn/j3nBxXVPVLQptJS3IQ4qvO+WqfdiuKNaubShSrRqrmavrUUNWzmVDVq1VL18ayJam3JJlWrdG815FcnNu6oWuY1Qg0ZdKxqmZ2JnicIfqOcpqplYVM1euE01TwnG1Wne4BZkYiaGS9Rk8p0uSrIVN9uXq0WZtapyXUlqMe/G64+XjdHvT/hOzV27RI1o2Kj+mz+D+qsA45QYZ1GIF3MkEAoR3UraKYWj5+iilRIp09UVYUSqHlrV6jpyxaqBVlx9dmG5Wr48rnq0zWL1PzZC9Rn0yerb+bNVM0POkBt9CdUgY4/hHnczGn6X3IP/lC6UtejmGpUmI32ikOOxLmpwWzd89XlBATJCcxeskCXu4T6fu0CfDl6Tm6G/pnmbF1x6DH6O6UKcjLxHtDHh6xev6XUKfv/XThd113YjNWnEr6AOrPT/njMfh3b6X8J9gCqOl3HmzRRn8+fobL08Rn6giFd90CjwqvVVxsXqRn5CfWJDv/oH6aqEcvmqQ8XTFOfLZ2NOqVnHwyDqQU4xxQByzLhQmlW1FXi5vITx+o2KhFBVUSqVFB/17NLR53yMXWmKWN4vmGLPh/uM3bSGN22+NTyumKdJhHVqlUTFdBpCrpk/766KiZUyNTLmI5lgdasSZNVgV9/1vohs1qFc5TaHClX66q3qOKsgPpG14HZiTo1cWsx6qUP31cTFs5VxTpslRm6BYnUYfhaNi3E8IEu7NMX587BJCLIP5jrCs3Ad9MmY3sKmlWl2w79+8KiJmgv6X2ESviDKpsLnQbaUUjDSXNm6uvE1aTS1bghbqOm+c5ruq466DidfCF9nuvJhSuAFi9ZhXMSv1g7TydQVAUzErqMRdX5Bx6lYgEdUq2iJgX49wOyAM6ZM38pbvA7essiPBaUkeXHc+fpNvqHkjWqpE1T9X3pOvVdeJMaXbkB9fK4L9WY4hUqXFajMnSb3yQ3F1+R+OdjTlWtChqjigpy0AMIHsPGWlWbt6ouTVuorzbM1+lFc7EraipViW4L5sW3qv+tmqeK2zdX0+LV6qXxX6vPVy1EvTzuczV60yK1aPJUNU7XsR6H9FGbqraqrrmN9FXr8+786VgmNq5fp9t5n2qal+dMFz66/9E6vRKqq27/nXII+QZzTb3SYXMmS+NcQqhD9Q/5cNkMXb0Sas2albrM6boInmGd16DjTzgGbTd/hrbmPlrLKipVVjyImj52kspOBNXanICq0GV2azCuZq1eqgIduqmF+nDQG7Mnq1Gb16oR0yaozRVluM95QpeZlhnZujWJo446sj+WG67V5dGgigaC6p25E/XfJfjblFAV5aX6b3JC9ShqiuWv/6F9sRw0suIDUx7BfjB/ks63sNq8fgXaVrqNSei4gI7qr9srfTf9VxPzNleHo7lup2vy8tXs2ZNUYVZQVWxap+tJjZrir1ATqzeq1c3z1dcla1FLqxNqUkWF+ufXX6pRa1erDbVVKpqAOqLT2xTkg5u00PcKqr46n6EetdaCDcWLQgWqQ34z1Gf671bjgE7brdUqVwd8WnSTmlC6XK0ozFLfbFmDmhaKqDF1Zeqx8R+qDzfPUe+O+UKNWjlHLY6XqZErZqGG7Kf/fsOtdd7oqOsEgH/qA85a+B1koSAIgiAIgpBGyAOgIAiCIAhCmuFL2DMjf0HcKddECPy/ALhQDV9EitE+8MCDaJeVbEF7yimnoAX+c+al5hMxETc8UOree+9BC3y3cQXa008/A+3wsy5Ha7PY2HsfewDt0CVz0B58yCFogW+uuw1tEzOR9IuVC9A++rdH0QIL8igiRUVFaL+59n60LRvnowX+tXQK2meefhrtxgw3S/bbbz+0Iy+7Gy2/7vjTOtyABHn0Ubrf7JIStIMGDUI7/IwL0drMoaCq+x+jcz7bNBctsN9++6Mde+mtaLMzYTMCDeeFBbjcbX6xnkSEtoG4+M3n0cIEXcBnTTyGibUALOMHqqtpOcX+jXH6P3LnnXeiHZjRBG2lWQ9y4jsv0QfNvHnz0HZv2RxtNEYJs36Om4YFBQVoVxfhWxhxcjvw3wt+jxY4Zn9amJBrsjnb5Mkza7jUKfXyy/9CWxyGzSp0eptJzz5rVQtMlgZyfVQorrjySrR39YBNFogak3dbTH599N13aB/+7hO0AGx0CiRqKV1iJl7di+MqHKb73XzTTWjPPrQv2nteehkt8OK8cWhh4jQw4RpKy2aNKQ0ALq2vfTwc7Z2jyLZo0QIt8N31VDfaNoVNXNw2Yfp8d3ueY//zd7S80epbp16GdvDAY9ACVONdfv3lB2hHjRqJFqhrCoM92tbR0Y1XU93JyspCC3xwA7UZB/fqjhZ2VQFMshNcVU36jqgoRXvvX+5FCyyPUB6ecQa1N/8+5Xy0OBZkmGOuedejd6H9cvNKtAcedBBaYOzlf0JraiUOrwLDxrrx+u3XFNdcU/4bl1Sh3brVXWJw4OFHouW4L5hDbdsBB/RGC3x25S1oc0x7s4aMeuCfVM+A1xdTXYPFRcDEX9+OtkkOpS3A5z3x8iton549Fm379u3RAlNuoLRqlkfnwfYYzDuffoH2N99ReckwDeD/rvgjWuDwnnR/Li8vDKU0uH2CW8ZbdeiAtlszqt+w2AMI5XNqQttK145UUmacd+55aF85itpTALb7AKpNfpeZmw5+m9pugNuJHM9fVh+sUjMkYIxOc9l+h6P97eXXoO2K/xrM+ae+9yLaCRMmoO1aQH9LgIfvfwjtycqUW1NGaezPAwwBW8B0Fi/nfUj5NHLUKLTd8t17PfLII2hPVaZtNWkx0/pb8PRrVD4+nEdlKhSi9G0ScOsV06Q31auZM2agPTLPvdf9d1KZ6I//6vZ0E5WKE998Ei2wciX9HR/ck8rt/TdSG9XOSnd+ujnjHUrDqVOpzB5e5LY7f7nzL2j74rIg928ZpPZnS2fi53+9TO1dbRb9lttFoICqvOralXKvPJ/SZ/myZWiB67vR1LRbrqE2uqXJigwrCx5dQX9HXnmF8mBLhOquvbgGtv4BYGEK0MSE9vIr3GeYuzvTCwB4nQzP5KqHuU6yXwmCIAiCIAj7MHuMB9A8rDoEOFRWT2YmLN7QDBs2DO3WEuoD9zmoD1rgymNOMp+I9XHqog0fTj1IYPWGzWgP7E09h4uPPQ6t3SMvN72aTz4ZgXbWBnqab90apm8SN5xwNtps0yGi53Wlhr77kfmk1FeLqKd58skno72639Fo7XvBhrTA2++8jXbmCpgqSwwZPBjtaaYHwcDEW+aDD6jHW15FPfoDD6R4DT6aevqIedTnrUTef/9jtLO3LEcLcK/8N6echRaW/gNBmG3s4Rf1ANodWXPjubXk4Rg5krwho3GRAlFdA9u8Kt1Hpt4o5+EfTz8XLdCxfVu07LvgDt6A/7oewNmzZ6MdfCj12gcMGIj2k/9QvgFlZeTrapRDPd5TTjkV7VX9XM+xgynj/IariJWmU2fPR/v8mC/Rbt5M3u4E7GRuyM0lz+YV/U9Ee9LhFC7ynxF87QDXI2NfGkeeGIA9C6tKycPOvfamNXWqvfGcXHD+BWj7Go/dsBHfoAVGG+84ewB/d8LpaLOz3V5/1CTs2InUAx8+m167V2h5YW8bRJ6xvML63oK1ayhcwFOfUd3ibTEu6E/eziNNmQe4eHCZ3Gjs+x+59fL9BXT/qPEK5/npnvAKJea246l8tCqiifmwMfY2cLqamy2oo1bgQ6u9qa4j70WvXlSHLzrsKLT25OxNMNFe897w99AuKqf8bt/B9ZT97mhK14wM18MG1BgvOPDQsKFo584lb8JW2G9D092K1zXnX4J26lQaeVg0l8pap06d0AJXmHIL21sA7O/44IvPzSelxi+lEY9OxgP452Op3Qjkua0Be2O/GPk92m+W0nZDRUXN0AJ/OJE8bfl5xt1oMWEKeYc+nkxllL3VV59K5wBdO7ieI+D7b6mMfThzDFqgZcuWaI8bRHX2o48+RDt5GXnrgJxs8lgP6N0P7UVn0z3cFl9j8qzW5DsuNtLMr3Q9rMNNe/zdSvfaQONMd1Sitymvfzz+HLQ52W6aeXnpW6prc4yntmvjVmiBwYOHoG3FjkwuU3YbycCiBJskrqE3JtAIwcxZJp8y3DCffz7Vz26NaJSD/2gnrHZrk/m79Pgn5H1dvJhGNWJW5Rl0IrVXB7Shsg2v4gRa57r5eNFFpu6ZdK4pprA/+T393QI2wnZfmqO7U706bQCNAuSyKxgwVeWV7ykN5y+gst65KZUH4LzzKJ9b8R81kyxhK3lGjKKy9MYkspWV7t/fLm0PQHv22fQ88FczusHeRuD63tT+33zNFWjbc4WysqTWNHsTZlC5ef77T9Hidk6GBGyArykspHbz2qOong483HrtJye1KQvx+s0FwlHbfqkTBEEQBEEQ9kn2Kg/gWmOj5tGWNouod4hyRvbNHKFSs8Gp/aTrvVeTJL2lKnMCH0s+JLeDBTh9CHM+bpugcfvjSq0ylmdDtfXeXFNlOh7cW6atHIl8Ezunv2zuVWFFiOPPZ3F0Cu17eXryHEZ3JqEL9y/5OvAaNC97zBxAE+liuxBollkzierClLIZJtBNs8hH5m4R7KYL+yBqzOn2HMD5Zm7P2aY3d+vl1Juz87u0jDxAhXnUcy4yva/WScoYZ5yZJoivJGO4vFCf350LGIlzSHWZyKL5TDRL1J0DZfrnCF/bcRyae6wjg5SY+UgbaugeoaDxANaGVUvT2ydfo5vPdnTIL++WP2dDFqvchE154fP4/na56ehJI26ZrCkwao05gb+CrTgAO/vdmYcE+2bsYyab8lFWQxN4mmZTPIucmCrFmyhximdxRtuB9rDF/I7TAuDT+P5Ou2EdBNvAANxZ5zS16WjSE7bKATh57eDQzEGl1m+leNWaCzbP5pTSn43l9sZTlREqWW4QOQ3spsD1SxCdkpTxWhM4/hV7Y21cvyNh34PLQIlJH75OY+te7MhiJxgftMlKGD6c48qtw6IqN0QZmeTP6x4k7wpfj9MCMeEJm/BwnrqtjZuu8/Flc7peV9Nfj2Y57rzvpmbOXkf8V8fZBNA4OOvB8yj5Xnb55vYqzy5wgJU+Dil4AO12AbDvxUfb7QtQbd070wSSy2FJhHLTF3Lv1djEhK/NoUp2r0Lbm6dZ7WSymx4cHg5GI7tBNgdt9NQZ29fMlyxwm1akRh/E5YXtD0k2oG5rKiSfft5z/0S7dKk7d/ma/Wku7x+upTmAbbjAWFlQaQLF9+KZ5RWRCvNJp1WU7lJg2quDTOjt8tfIU7HFAygIgiAIgiA47DEewG3hfgE/52tgV0eAH1s9vQPEOhzx/gzwI7a5RTJPg9NV4O+SBMcJB39nrmOnqLPQiu9lfq53L/szUK8LbOx27oXwZ6+1ektO+JPFwwvfy76HFz7mFyBmBQw38NY4C9w48Z1Jb0kwx9brKJrDeZVVrfnl2f95gT5oeF7VuQcdjPaWK2jlHnvgksI34TJn4w2iXZ45inxesvMZ7npyT2935I1TbsyHJCsI+Rin6liHGCejQzJPxzblraHyx/hMolkVikcIuGwEokkSz1qRWY9kdY9P51M8cdlhUsmfJG1bImjixXHlcOxofnN54fNMubHzKOFZMep3Gi4yO4oTVE7Tetep7yNNWHOOnbjWPyR5G8vXdH5Z7yYEu8S5fUh2iLGwwTLA5ag+nvThnc5tQsnOM3A4+DrOK8mszPQckjQY/B0fu6tIdl3+bM1DRmzPIrsyYYdvwIqOAx/ujZd9Wf7O+Z35pd2um/Nho3IbT+gQ/o7PdkYYLdiry95BmIVbZs6MmYahh9PIuphFwGrWJvLbX/pfWqkMrxNk7juI5p5efz7Nbcw35TlZM5rS3zBzvhMv+zqcrvzLJM0fp1my2wuCIAiCIAj7MPIAKAiCIAiCkGbs8Q+AsGEmywE+Wj/WA9yethoAPK0gGGWwRpAI7/nwe+8x4BUG8bHmGHDHspywen5XD3NMQl8L5Fwv2f3t33mPYfhYvjfIC59rH2NfE7SHAkMy/B8kZb3k5My04wXuchD/bIA50KykZcADDEeB4rE4yoGvD4LhNRD/vE0AUwTCAuIyZq4L1YDlwPf4qfnG92Ilu4eTUFZBgeOsY7mM8yl4mvnOgc+xxXDc+Rb8M8iLEx4XLhsOfAwMs7Gi+oagOp2oIJO+9eDAc3o0ALcleFtQCsDsGxbj/MzXscTlz4F/B6ezovofW3b6sjhecLwWlydOJkwqfWF667MBPoLMOSi+Hv9ssOPFh8CuPbhzj12+tpOuHE+Qkx58IXMOlycsUxy2VIBhNRCHOaIv6hEnD5UiHQZzKGi7cMKBGAivFmwgjpuIw7Avi8uhF/sYBg4DwVcg/tn+blfT0HU5MyFfMG8scRqYuONUBhD/DGIaioP3O+917esYODg7jLkXBwcWVLDeee8d1AsvvohasXwjCnaPYi2rCqM++eQTFGwSDYJ36bM6d+qM2k7QCU8EuNzEI7oeGTkBg/KkxclS7++CiY8ToQaAci4IgiAIgiCkEXvwIhBB2M1AL4oxXaGosfzKp3Peepw+aHgj1pP2p003/3TV79AekKQG8XqlhvDX6+ICKZz0s5Jq01A/3Ml6uNLTFIQ04pd8qkjl3kmO4df7TZ5P233NaaHU4088gZ+jEXBjKhVoTptX55hN+IHqStpMjUcpm2ygDZL4RRPAE1fejDYDhps02UkCYK/Z3B78alGf8R4HeNViQ/Ah9qHms7TLgiAIgiAIaYZ4AIX0Jcn8o5jpBdaa35388gP0QTPDvLT8nEPplUN//PX/oT04SQ0SD2B9pKcpCGnEL/lUkcq9kxxTYdr+MvPqxtmZSo2aNgo/fz+GXmW4tIw29a43B9y8bjEUoi1iTmrbFe0N19yAFjjYbPzN04xzkgQgFQ+gF/EACoIgCIIgCDuEeACF9MWeA2h6RPyKO/MGI/X+9DH0QbNx0ya0PVrSy86OOoReGl/vVVHbIZ6kx7dt7yuZ7+yXJMX+YcLTC/X8KAjCXsK++jTgjVeyeHo2TIY/AfzVmlKa1zdj2Qq0pSXuyxqzjeevsJBeIXjYAb3Q5gXdC8bM/Xj/eb+9ytvgbUZTGUVK6gH0XpoPsQ81Tbt4AAVBEARBENIMeQAUBEEQBEFIM2QIWEhf7CFgQ8y86pG95e7bHN3hAJ6sy6cXGNsQMgQsCMIez776NOCNV7J4mgaeW2FYsMGfvW2+Db8d2Nt627fg9wvzdwEZAhYEQRAEQRB+CcQDKKQvSbaB4UUgTNIe0vZ6WA2yr1UzKz4JTyqllB6CIOxx7KtPAynEK+ZpxgL2OdymJRukYW8eP0oFkvzV8H7Fq0IsvM1oKvi8bkPAe2k+xD7UfN6JWwqCIAiCIAh7M+IBFNKX3ekB9BwT9+1p8/t+nJR7h+IBFIR9g331aSCFeDXoAWyIVI7zNqbJ/hyk3OBaJLu397tk7bF4AAVBEARBENIT8QAKaUySblgq3qxUasw+4QXbVd1UQRCEPYhkbbinzU4+ZrPtt35Pm7g3tJocRmnNBUEQBEEQ0gx5ABQEQRAEQUgz5AFQEARBEAQhzZAHQEEQBEEQhDRDFoEIgiAIgiCkGeIBFARBEARBSDPkAVAQBEEQBCHNkAdAQRAEQRCENEMeAAVBEARBENIMeQAUBEEQBEFIM+QBUBAEQRAEIc2QB0BBEARBEIQ0Qx4ABUEQBEEQ0gx5ABQEQRAEQUgz5AFQEARBEAQhzZAHQEEQBEEQhDRDHgAFQRAEQRDSDHkAFARBEARBSCuU+n9mZhA15xMfoQAAAABJRU5ErkJggg==;" parent="1" vertex="1">
          <mxGeometry x="900" y="456.20000000000005" width="100" height="93.6" as="geometry" />
        </mxCell>
      </root>
    </mxGraphModel>
  </diagram>
</mxfile>
